<?xml version="1.0" encoding="UTF-8"?>
<svg width="114px" height="45px" viewBox="0 0 114 45" version="1.1" xmlns="http://www.w3.org/2000/svg" xmlns:xlink="http://www.w3.org/1999/xlink">
    <title>Group 2</title>
    <g id="Page-1" stroke="none" stroke-width="1" fill="none" fill-rule="evenodd">
        <g id="59924" transform="translate(-236.000000, -601.000000)">
            <g id="Group-2" transform="translate(236.851095, 601.518128)">
                <path d="M32.2109054,35.6278722 C31.5719054,35.5108722 31.0659054,35.1938722 30.6999054,34.6828722 C30.3349054,34.1708722 30.2229054,33.5918722 30.3559054,32.9468722 C30.4899054,32.3018722 30.8209054,31.8168722 31.3409054,31.4858722 C31.8609054,31.1548722 32.4339054,31.0488722 33.0689054,31.1658722 C33.5289054,31.2498722 33.9199054,31.4298722 34.2449054,31.7078722 C34.5699054,31.9848722 34.7859054,32.3398722 34.8929054,32.7748722 C34.6549054,32.7368722 34.4169054,32.6968722 34.1789054,32.6568722 C33.9949054,32.1158722 33.5949054,31.7918722 32.9749054,31.6778722 C32.4909054,31.5888722 32.0629054,31.6688722 31.6859054,31.9208722 C31.3079054,32.1728722 31.0659054,32.5558722 30.9619054,33.0738722 C30.8579054,33.5908722 30.9339054,34.0408722 31.1949054,34.4198722 C31.4569054,34.7988722 31.8329054,35.0358722 32.3169054,35.1248722 C32.8019143,35.2128722 33.2159054,35.1518722 33.5549054,34.9398722 C33.8949054,34.7278722 34.1239054,34.4018722 34.2479054,33.9598722 C33.6219054,33.8558722 32.9969054,33.7458722 32.3729054,33.6288722 C32.4009054,33.4768722 32.4289054,33.3258722 32.4569054,33.1728722 C33.2879054,33.3278722 34.1189054,33.4718722 34.9519054,33.6058722 C34.9269054,33.7588722 34.9019054,33.9118722 34.8779054,34.0638722 C34.7249054,34.6218722 34.4049054,35.0528722 33.9119054,35.3528722 C33.4189054,35.6528722 32.8489054,35.7458722 32.2109054,35.6278722" id="Fill-195" fill="#000000"></path>
                <path d="M39.8859054,35.2648722 C40.4519054,35.3288722 41.0189054,35.3868722 41.5849054,35.4408722 C41.3749054,34.6488722 41.1699054,33.8568722 40.9719054,33.0638722 C40.6159054,33.7998722 40.2539054,34.5338722 39.8859054,35.2648722 Z M41.9879054,36.9258722 C41.8969054,36.5898722 41.8049054,36.2538722 41.7149054,35.9178722 C41.0299054,35.8548722 40.3459054,35.7838722 39.6619054,35.7068722 C39.5049054,36.0168722 39.3469054,36.3278722 39.1889054,36.6368722 C38.9799054,36.6128722 38.7719054,36.5878722 38.5639054,36.5628722 C39.3089054,35.1558722 40.0309054,33.7418722 40.7299054,32.3208722 C40.9439054,32.3428722 41.1589054,32.3658722 41.3749054,32.3868722 C41.7659054,33.9198722 42.1819054,35.4518722 42.6219054,36.9808722 C42.4109054,36.9628722 42.1989054,36.9448722 41.9879054,36.9258722 L41.9879054,36.9258722 Z" id="Fill-196" fill="#000000"></path>
                <path d="M47.6509054,33.2888722 C47.6289054,33.8508722 47.6079054,34.4128722 47.5869054,34.9748722 C47.8819054,34.9858722 48.1769054,34.9958722 48.4729054,35.0038722 C48.8029054,35.0138722 49.0499054,34.9458722 49.2139054,34.8008722 C49.3779054,34.6568722 49.4619054,34.4518722 49.4669054,34.1848722 C49.4779054,33.6228722 49.1629054,33.3358722 48.5219054,33.3178722 C48.2309054,33.3098722 47.9409054,33.2998722 47.6509054,33.2888722 Z M47.5689054,35.4378722 C47.5459054,36.0508722 47.5229054,36.6648722 47.4999054,37.2778722 C47.2949054,37.2698722 47.0899054,37.2608722 46.8849054,37.2518722 C46.9499054,35.7668722 47.0149054,34.2818722 47.0799054,32.7948722 C47.5649054,32.8168722 48.0499054,32.8338722 48.5359054,32.8488722 C49.0399054,32.8638722 49.4219054,32.9938722 49.6849054,33.2428722 C49.9459054,33.4928722 50.0759054,33.7918722 50.0709054,34.1468722 C50.0659054,34.5008722 49.9639054,34.7948722 49.7609054,35.0278722 C49.5589054,35.2598722 49.2569054,35.4028722 48.8579054,35.4538722 C49.2649054,36.0848722 49.6789054,36.7158722 50.1009054,37.3438722 C49.8439054,37.3398722 49.5869054,37.3358722 49.3299054,37.3318722 C48.9329054,36.7088722 48.5429054,36.0838722 48.1599054,35.4588722 C47.9629054,35.4518722 47.7659054,35.4448722 47.5689054,35.4378722 L47.5689054,35.4378722 Z" id="Fill-197" fill="#000000"></path>
                <path d="M55.1189054,36.8418722 C55.4059054,36.8338722 55.6919054,36.8218722 55.9789054,36.8098722 C56.5659054,36.7858722 57.0069054,36.6068722 57.2979054,36.2828722 C57.5899054,35.9568722 57.7169054,35.5158722 57.6839054,34.9638722 C57.6509054,34.4108722 57.4739054,33.9898722 57.1569054,33.6978722 C56.8399054,33.4058722 56.3989054,33.2738722 55.8319054,33.2978722 C55.5549054,33.3098722 55.2769054,33.3198722 54.9999054,33.3298722 C55.0399054,34.4998722 55.0789054,35.6708722 55.1189054,36.8418722 Z M55.8109054,32.8028722 C56.5359054,32.7718722 57.1159054,32.9428722 57.5609054,33.3208722 C58.0039054,33.6978722 58.2529054,34.2318722 58.2979054,34.9258722 C58.3439054,35.6198722 58.1639054,36.1748722 57.7529054,36.5878722 C57.3419054,37.0008722 56.7539054,37.2278722 55.9979054,37.2598722 C55.5049054,37.2808722 55.0119054,37.2978722 54.5189054,37.3118722 C54.4779054,35.8258722 54.4359054,34.3388722 54.3939054,32.8518722 C54.8669054,32.8388722 55.3389054,32.8228722 55.8109054,32.8028722 L55.8109054,32.8028722 Z" id="Fill-198" fill="#000000"></path>
                <path d="M64.5709054,32.0568722 C64.5909054,32.2098722 64.6099054,32.3638722 64.6299054,32.5168722 C64.0359054,32.5928722 63.4399054,32.6648722 62.8449054,32.7308722 C62.9009054,33.2338722 62.9569054,33.7368722 63.0129054,34.2408722 C63.5509054,34.1808722 64.0889054,34.1168722 64.6269054,34.0478722 C64.6469054,34.1998722 64.6659054,34.3508722 64.6849054,34.5018722 C64.1449054,34.5708722 63.6039054,34.6348722 63.0629054,34.6948722 C63.1199054,35.2098722 63.1769054,35.7268722 63.2339054,36.2428722 C63.8509054,36.1738722 64.4659054,36.1008722 65.0809054,36.0218722 C65.1009054,36.1748722 65.1209054,36.3288722 65.1409054,36.4818722 C64.3189054,36.5868722 63.4969054,36.6828722 62.6729054,36.7698722 C62.5179054,35.2918722 62.3629054,33.8118722 62.2069054,32.3338722 C62.9959054,32.2498722 63.7839054,32.1588722 64.5709054,32.0568722" id="Fill-199" fill="#000000"></path>
                <path d="M71.6719054,30.8878722 C71.8649054,30.8488722 72.0579054,30.8088722 72.2519054,30.7688722 C72.5529054,32.2248722 72.8549054,33.6818722 73.1559054,35.1378722 C72.9549054,35.1788722 72.7529054,35.2208722 72.5509054,35.2608722 C71.5059054,34.2678722 70.4869054,33.2588722 69.4939054,32.2358722 C69.6989054,33.3978722 69.9049054,34.5598722 70.1099054,35.7218722 C69.9079054,35.7578722 69.7049054,35.7928722 69.5019054,35.8288722 C69.2519054,34.3628722 69.0009054,32.8968722 68.7509054,31.4308722 C68.9449054,31.3978722 69.1389054,31.3638722 69.3329054,31.3298722 C70.3189054,32.3538722 71.3319054,33.3638722 72.3699054,34.3588722 C72.1369054,33.2018722 71.9039054,32.0448722 71.6719054,30.8878722" id="Fill-200" fill="#000000"></path>
                <path d="M41.1689054,42.7728722 C41.1999054,42.5508722 41.2309054,42.3308722 41.2629054,42.1088722 C41.3739054,42.0398722 41.5279054,41.9438722 41.7269054,41.8218722 C41.9259054,41.6998722 42.0789054,41.6048722 42.1879054,41.5348722 C42.2959054,41.4648722 42.4239054,41.3768722 42.5699054,41.2688722 C42.7159054,41.1628722 42.8259054,41.0688722 42.9009054,40.9888722 C43.0979054,40.7828722 43.2059054,40.5948722 43.2259054,40.4268722 C43.2599054,40.1298722 43.1449054,39.9658722 42.8779054,39.9338722 C42.7509054,39.9168722 42.6439054,39.9498722 42.5579054,40.0288722 C42.4719054,40.1088722 42.4179054,40.2308722 42.3959054,40.3988722 C42.1009054,40.3608722 41.8059054,40.3208722 41.5119054,40.2788722 C41.5709054,39.8608722 41.7399054,39.5618722 42.0139054,39.3818722 C42.2879054,39.2008722 42.6219054,39.1358722 43.0189054,39.1848722 C43.4159054,39.2338722 43.7119054,39.3808722 43.9099054,39.6308722 C44.1079054,39.8808722 44.1919054,40.1648722 44.1589054,40.4838722 C44.1339054,40.7238722 44.0579054,40.9308722 43.9299054,41.1008722 C43.8539054,41.1988722 43.7879054,41.2828722 43.7329054,41.3498722 C43.6779054,41.4178722 43.5899054,41.5008722 43.4689054,41.5968722 C43.3479054,41.6928722 43.2579054,41.7628722 43.2019054,41.8058722 C43.1449054,41.8488722 43.0409054,41.9218722 42.8899054,42.0238722 C42.7389054,42.1258722 42.6419054,42.1928722 42.6009054,42.2218722 C43.0779054,42.2818722 43.5549054,42.3348722 44.0319054,42.3848722 C44.0069054,42.6278722 43.9819054,42.8718722 43.9569054,43.1148722 C43.0259054,43.0188722 42.0959054,42.9048722 41.1689054,42.7728722" id="Fill-201" fill="#000000"></path>
                <path d="M49.1809054,40.5998722 C49.1049054,40.5568722 49.0149054,40.5338722 48.9119054,40.5298722 C48.8079054,40.5258722 48.7169054,40.5418722 48.6379054,40.5798722 C48.5599054,40.6168722 48.4989054,40.6648722 48.4549054,40.7228722 C48.4109054,40.7808722 48.3739054,40.8578722 48.3449054,40.9558722 C48.3149054,41.0518722 48.2939054,41.1468722 48.2829054,41.2378722 C48.2709054,41.3298722 48.2629054,41.4378722 48.2569054,41.5638722 C48.2519054,41.6908722 48.2499054,41.7988722 48.2529054,41.8908722 C48.2559054,41.9838722 48.2679054,42.0788722 48.2889054,42.1778722 C48.3109054,42.2778722 48.3409054,42.3578722 48.3799054,42.4188722 C48.4189054,42.4818722 48.4779054,42.5348722 48.5559054,42.5788722 C48.6329054,42.6218722 48.7249054,42.6458722 48.8319054,42.6498722 C48.9389054,42.6538722 49.0329054,42.6368722 49.1129054,42.5988722 C49.1929054,42.5608722 49.2549054,42.5128722 49.2999054,42.4548722 C49.3439054,42.3958722 49.3799054,42.3178722 49.4089054,42.2198722 C49.4379054,42.1228722 49.4569054,42.0288722 49.4669054,41.9368722 C49.4769054,41.8448722 49.4829054,41.7368722 49.4869054,41.6108722 C49.4909054,41.4838722 49.4899054,41.3748722 49.4859054,41.2828722 C49.4809054,41.1908722 49.4679054,41.0958722 49.4449054,40.9968722 C49.4229054,40.8978722 49.3929054,40.8178722 49.3529054,40.7558722 C49.3139054,40.6958722 49.2559054,40.6428722 49.1809054,40.5998722 Z M48.2399054,39.7978722 C48.4409054,39.7128722 48.6749054,39.6758722 48.9429054,39.6858722 C49.2119054,39.6958722 49.4429054,39.7498722 49.6359054,39.8508722 C49.8299054,39.9518722 49.9819054,40.0898722 50.0929054,40.2688722 C50.2029054,40.4478722 50.2829054,40.6478722 50.3329054,40.8728722 C50.3829054,41.0968722 50.4069054,41.3498722 50.4019054,41.6308722 C50.3979054,41.9118722 50.3659054,42.1648722 50.3069054,42.3858722 C50.2479054,42.6088722 50.1569054,42.8068722 50.0359054,42.9808722 C49.9139054,43.1548722 49.7479054,43.2858722 49.5389054,43.3748722 C49.3299054,43.4638722 49.0839054,43.5038722 48.7999054,43.4938722 C48.5169054,43.4828722 48.2739054,43.4238722 48.0729054,43.3198722 C47.8709054,43.2148722 47.7159054,43.0718722 47.6069054,42.8888722 C47.4989054,42.7068722 47.4229054,42.5028722 47.3809054,42.2768722 C47.3389054,42.0498722 47.3269054,41.7968722 47.3429054,41.5158722 C47.3589054,41.2348722 47.4009054,40.9848722 47.4679054,40.7648722 C47.5349054,40.5438722 47.6299054,40.3498722 47.7529054,40.1808722 C47.8769054,40.0118722 48.0389054,39.8838722 48.2399054,39.7978722 L48.2399054,39.7978722 Z" id="Fill-202" fill="#000000"></path>
                <path d="M54.3219054,43.5098722 C54.2859054,42.5418722 54.2509054,41.5738722 54.2139054,40.6048722 C53.9979054,40.6128722 53.7809054,40.6198722 53.5649054,40.6258722 C53.5569054,40.3458722 53.5489054,40.0668722 53.5419054,39.7878722 C54.0679054,39.7728722 54.5949054,39.7518722 55.1219054,39.7248722 C55.1849054,40.9718722 55.2479054,42.2198722 55.3109054,43.4668722 C54.9809054,43.4838722 54.6519054,43.4988722 54.3219054,43.5098722" id="Fill-203" fill="#000000"></path>
                <path d="M60.6289054,40.1928722 C60.6119054,40.0558722 60.5559054,39.9538722 60.4619054,39.8828722 C60.3689054,39.8138722 60.2549054,39.7878722 60.1199054,39.8038722 C59.9859054,39.8208722 59.8799054,39.8738722 59.8019054,39.9638722 C59.7249054,40.0548722 59.6929054,40.1688722 59.7099054,40.3068722 C59.7249054,40.4448722 59.7829054,40.5498722 59.8819054,40.6218722 C59.9809054,40.6938722 60.0949054,40.7208722 60.2249054,40.7058722 C60.3539054,40.6898722 60.4579054,40.6338722 60.5369054,40.5398722 C60.6159054,40.4438722 60.6469054,40.3288722 60.6289054,40.1928722 Z M60.8979054,41.7698722 C60.8779054,41.6198722 60.8159054,41.5038722 60.7119054,41.4208722 C60.6069054,41.3388722 60.4689054,41.3078722 60.2979054,41.3298722 C60.1259054,41.3498722 59.9939054,41.4118722 59.8999054,41.5138722 C59.8079054,41.6178722 59.7699054,41.7468722 59.7869054,41.9018722 C59.8049054,42.0568722 59.8689054,42.1778722 59.9809054,42.2648722 C60.0939054,42.3508722 60.2399054,42.3828722 60.4179054,42.3618722 C60.5959054,42.3388722 60.7259054,42.2738722 60.8059054,42.1628722 C60.8869054,42.0498722 60.9169054,41.9188722 60.8979054,41.7698722 Z M58.8009054,40.2698722 C58.7719054,39.9828722 58.8639054,39.7248722 59.0749054,39.4938722 C59.2859054,39.2618722 59.6019054,39.1228722 60.0259054,39.0708722 C60.4499054,39.0198722 60.7899054,39.0798722 61.0489054,39.2558722 C61.3079054,39.4318722 61.4589054,39.6628722 61.4989054,39.9478722 C61.5499054,40.3098722 61.4219054,40.6048722 61.1119054,40.8318722 C61.5359054,40.9658722 61.7819054,41.2518722 61.8449054,41.6948722 C61.8969054,42.0598722 61.7979054,42.3728722 61.5439054,42.6288722 C61.2899054,42.8858722 60.9459054,43.0418722 60.5179054,43.0928722 C60.0889054,43.1458722 59.7179054,43.0758722 59.4079054,42.8858722 C59.0969054,42.6958722 58.9259054,42.4178722 58.8889054,42.0538722 C58.8449054,41.6098722 59.0149054,41.2728722 59.3939054,41.0408722 C59.0349054,40.8948722 58.8379054,40.6368722 58.8009054,40.2698722 L58.8009054,40.2698722 Z" id="Fill-204" fill="#000000"></path>
                <path d="M15.1349054,4.52987217 C15.0579054,4.34587217 14.9919054,4.18787217 14.9369054,3.99287217 C14.8539054,3.74487217 14.7729054,3.51187217 14.6909054,3.27987217 C14.5669054,2.92587217 14.4429054,2.57387217 14.3119054,2.16387217 C14.0329054,1.30387217 13.6129054,0.784872174 13.0309054,0.615872174 C12.4909054,0.558872174 11.9139054,0.524872174 11.3599054,0.647872174 C9.30390541,1.04787217 7.22490541,2.03487217 5.20590541,3.58387217 C3.89490541,4.66687217 2.91790541,5.85187217 2.13390541,7.30087217 C1.48290541,8.41487217 1.16390541,9.69887217 1.15290541,11.2248722 C1.15090541,12.7438722 1.65090541,14.0048722 2.70990541,15.2058722 C2.71590541,15.2118722 2.72290541,15.2188722 2.72890541,15.2258722 C3.08890541,15.5498722 3.48690541,15.8748722 3.95890541,16.0478722 C3.97790541,16.0508722 3.99690541,16.0548722 4.01590541,16.0578722 C4.35790541,16.0608722 4.58890541,16.1438722 4.63490541,16.2788722 C4.81790541,16.8168722 3.50390541,18.5548722 2.73190541,19.5978722 C2.19390541,20.3228722 1.68990541,21.0078722 1.46190541,21.4798722 C0.570905409,23.1498722 0.0869054095,25.0638722 0.0119054095,27.1618722 C-0.0920945905,29.6848722 0.486905409,31.7048722 1.68490541,33.1568722 C1.72490541,33.2128722 1.77290541,33.2718722 1.82690541,33.3358722 C1.92690541,33.4568722 2.04090541,33.5918722 2.12690541,33.7768722 C2.14390541,33.8018722 2.16090541,33.8288722 2.17790541,33.8538722 C2.99390541,34.7278722 3.98590541,35.2118722 5.05390541,35.2578722 C5.28990541,35.2648722 5.52890541,35.2498722 5.77190541,35.2118722 C6.35690541,35.1238722 6.95990541,34.9068722 7.57290541,34.5638722 C7.58790541,34.5518722 7.60290541,34.5418722 7.61790541,34.5298722 C7.77990541,34.3548722 7.90890541,34.2838722 7.99790541,34.2908722 C8.20990541,34.3628722 8.37590541,34.1978722 8.49690541,34.0748722 C8.54590541,34.0238722 8.61490541,33.9548722 8.64690541,33.9498722 L8.64790541,33.9498722 C8.65890541,33.9488722 8.66990541,33.9468722 8.68090541,33.9458722 C8.69090541,33.9388722 8.70090541,33.9318722 8.71090541,33.9258722 C8.94590541,33.7748722 9.17590541,33.6548722 9.40690541,33.5348722 C9.63490541,33.4158722 9.86390541,33.2968722 10.0719054,33.1638722 C10.3919054,33.0368722 10.6969054,32.8388722 11.0199054,32.6308722 C11.1689054,32.5348722 11.3219054,32.4358722 11.4759054,32.3438722 C11.8589054,32.1468722 12.2549054,31.9428722 12.6729054,31.6168722 C13.3769054,31.0758722 14.0989054,30.2178722 14.7189054,29.4648722 C15.1789054,28.9498722 15.4769054,28.3208722 15.7219054,27.7588722 C15.8509054,27.5638722 15.9709054,27.4398722 16.1229054,27.3458722 C16.1809054,27.3108722 16.2389054,27.2748722 16.2959054,27.2398722 C16.2709054,27.1578722 16.2449054,27.0758722 16.2189054,26.9948722 C16.0149054,26.3408722 15.7139054,25.8028722 15.3319054,25.3948722 C15.2319054,25.2278722 15.1119054,25.0478722 14.9389054,25.0368722 C14.7549054,25.0288722 14.6139054,25.2108722 14.4649054,25.4398722 C13.9929054,26.0368722 13.3659054,26.5888722 12.7119054,26.9908722 C12.4139054,27.1418722 12.1159054,27.2928722 11.8179054,27.4458722 C11.3589054,27.6788722 10.8899054,27.9188722 10.4229054,28.1658722 C9.84790541,28.5348722 9.23190541,28.8768722 8.63890541,29.2088722 C8.15990541,29.4778722 7.68390541,29.7468722 7.24390541,30.0228722 C6.54290541,30.3578722 5.70390541,30.7318722 4.79790541,30.9548722 C4.40090541,31.0238722 3.98690541,31.0628722 3.60790541,30.8368722 C3.30990541,30.6588722 3.02590541,29.5718722 3.03790541,29.0668722 C3.12390541,25.0958722 7.86790541,18.0898722 9.86490541,16.1378722 C10.2539054,15.7148722 10.5189054,15.3308722 10.7009054,14.9158722 C10.9439054,14.2978722 11.1729054,13.9108722 11.4889054,13.5788722 C11.5209054,13.5448722 11.5519054,13.5128722 11.5839054,13.4798722 C11.5759054,13.4268722 11.5689054,13.3748722 11.5619054,13.3208722 C11.5509054,13.2618722 11.5399054,13.2038722 11.5289054,13.1448722 C11.3609054,12.6888722 11.1449054,12.4938722 10.7619054,12.4728722 C10.0879054,12.5148722 9.53790541,12.6948722 9.09690541,13.0028722 C8.22790541,13.4598722 7.27290541,13.7958722 6.16290541,14.0398722 C4.49690541,14.5568722 4.29690541,14.2588722 4.29590541,14.2578722 C4.29590541,14.2548722 4.23490541,13.8688722 5.38690541,12.6698722 C7.38090541,10.5898722 10.5199054,8.63087217 10.9339054,8.94687217 C10.9639054,8.99587217 10.9949054,9.04487217 11.0249054,9.09487217 C11.0709054,9.07987217 11.1179054,9.06387217 11.1639054,9.04787217 C11.7209054,8.86087217 12.2179054,8.76287217 12.7339054,8.73787217 C13.5999054,8.66987217 14.3619054,8.07887217 14.9649054,6.96287217 C15.3509054,6.28887217 15.4559054,5.58487217 15.2599054,4.83587217 C15.2159054,4.72487217 15.1749054,4.62487217 15.1349054,4.52987217" id="Fill-205" fill="#272525"></path>
                <path d="M35.0029054,8.67087217 C34.8959054,9.00587217 34.8109054,9.18787217 34.7119054,9.39787217 C34.6319054,9.56987217 34.5419054,9.76387217 34.4419054,10.0418722 C34.3339054,10.2568722 34.1859054,10.5168722 34.0089054,10.5948722 C33.7309054,10.6698722 33.5539054,10.7078722 33.4369054,10.5838722 C33.3559054,10.4718722 33.2399054,10.4128722 33.1359054,10.3598722 C33.1119054,10.3458722 33.0869054,10.3338722 33.0629054,10.3208722 C33.0439054,10.3108722 33.0189054,10.2958722 33.0129054,10.2768722 C33.0099054,10.2668722 32.9979054,10.2088722 33.0709054,10.0548722 C33.1199054,9.94487217 33.1869054,9.83087217 33.2439054,9.73387217 C33.2589054,9.70787217 33.2739054,9.68187217 33.2889054,9.65587217 C33.3679054,9.54187217 33.4439054,9.42087217 33.5209054,9.30187217 C33.7289054,8.98087217 33.9429054,8.64787217 34.2079054,8.41087217 C34.5409054,8.08487217 34.9999054,7.89787217 35.1109054,7.99187217 C35.1509054,8.02487217 35.1799054,8.20687217 35.0029054,8.67087217 Z M47.5699054,8.16687217 C47.5799054,8.14287217 47.5939054,8.11887217 47.6079054,8.09387217 C47.6559054,8.01187217 47.7259054,7.89187217 47.7159054,7.74087217 C47.7639054,7.52887217 47.8379054,7.34387217 47.9389054,7.18787217 C48.0119054,7.06487217 48.0859054,6.94787217 48.1579054,6.83387217 C48.2099054,6.75087217 48.2619054,6.66987217 48.3109054,6.58987217 C48.2819054,6.70987217 48.2529054,6.83087217 48.2249054,6.95087217 C48.2049054,7.05187217 48.1889054,7.15387217 48.1719054,7.25687217 C48.1439054,7.43987217 48.1139054,7.62887217 48.0529054,7.83987217 C47.8699054,8.64487217 47.8549054,9.36187217 48.0049054,9.97487217 C48.1649054,10.5738722 48.5029054,10.9778722 48.9089054,11.0758722 C49.0049054,11.1188722 49.1019054,11.1498722 49.1989054,11.1808722 C49.3259054,11.2218722 49.4459054,11.2608722 49.5599054,11.3278722 C49.6789054,11.4398722 49.8499054,11.4408722 50.0219054,11.3238722 C50.1309054,11.2408722 50.2329054,11.2118722 50.2449054,11.2088722 C50.4349054,11.2078722 50.5739054,11.1428722 50.7529054,10.9748722 C50.7759054,10.9628722 50.8109054,10.9458722 50.8479054,10.9098722 C50.8649054,10.8928722 50.8829054,10.8748722 50.9009054,10.8588722 C50.9009054,10.8548722 50.9019054,10.8518722 50.9019054,10.8488722 C50.9229054,10.8338722 50.9429054,10.8178722 50.9609054,10.7998722 C50.9899054,10.7728722 51.0189054,10.7448722 51.0469054,10.7158722 C51.1689054,10.6608722 51.2739054,10.5418722 51.3299054,10.4008722 C51.3549054,10.3578722 51.3909054,10.2878722 51.3909054,10.2848722 C51.5319054,10.1918722 51.6209054,10.0388722 51.6389054,9.85287217 C51.6409054,9.82787217 51.6439054,9.80187217 51.6459054,9.77687217 C51.6319054,9.75587217 51.6189054,9.73587217 51.6049054,9.71487217 C51.5699054,9.66387217 51.4419054,9.50387217 51.2979054,9.50687217 C51.1339054,9.50787217 51.0289054,9.66687217 51.0079054,9.70087217 C50.8699054,9.86187217 50.7389054,9.95887217 50.5929054,10.0688722 C50.5769054,10.0868722 50.5599054,10.1068722 50.5439054,10.1248722 C50.5369054,10.1368722 50.5189054,10.1548722 50.5009054,10.1708722 C50.4809054,10.1918722 50.4569054,10.2138722 50.4339054,10.2428722 C50.4129054,10.2418722 50.3839054,10.2388722 50.3629054,10.2368722 C50.3249054,10.2328722 50.2829054,10.2258722 50.2449054,10.2288722 C50.2309054,10.2058722 50.2139054,10.1808722 50.1929054,10.1568722 C50.2199054,9.96887217 50.2299054,9.78487217 50.2389054,9.60487217 C50.2449054,9.49987217 50.2499054,9.39587217 50.2589054,9.29187217 C50.2689054,9.17887217 50.2809054,9.06387217 50.2939054,8.94787217 C50.3329054,8.58087217 50.3729054,8.20187217 50.3519054,7.83687217 C50.3379054,7.55687217 50.3129054,7.27687217 50.2889054,7.00287217 C50.2709054,6.78987217 50.2519054,6.57987217 50.2389054,6.40787217 C50.2449054,6.34387217 50.2509054,6.28187217 50.2559054,6.21787217 C50.2509054,6.20387217 50.2449054,6.18887217 50.2399054,6.17387217 C50.0889054,5.75787217 49.8439054,5.28287217 49.2919054,5.28387217 C49.2869054,5.28387217 49.2809054,5.28387217 49.2759054,5.28387217 C49.1699054,5.28587217 49.0639054,5.29587217 48.9529054,5.30787217 C48.8439054,5.31887217 48.7299054,5.33087217 48.5839054,5.33587217 C48.3109054,5.38887217 48.0549054,5.57987217 47.8749054,5.86787217 C47.6989054,6.18387217 47.4479054,6.52287217 47.2519054,6.77887217 C47.0639054,7.12087217 46.8419054,7.44087217 46.6279054,7.74987217 C46.6199054,7.76287217 46.6109054,7.77587217 46.6019054,7.78887217 C46.3139054,8.24087217 44.9659054,10.8338722 44.7999054,11.4128722 C44.7989054,11.4138722 44.7989054,11.4148722 44.7989054,11.4158722 C44.6989054,11.7728722 44.0469054,12.5298722 43.7979054,12.6528722 C43.8029054,12.5818722 43.8249054,12.4398722 43.9129054,12.1768722 C44.1279054,11.4878722 44.4569054,10.8388722 44.8059054,10.1538722 C45.1419054,9.49387217 45.4909054,8.81287217 45.7639054,8.04287217 C45.8579054,7.71787217 45.9019054,7.68187217 45.9409054,7.64987217 C46.0399054,7.56887217 46.1189054,7.48187217 46.2309054,7.10987217 C46.4919054,6.40087217 46.4729054,5.90187217 46.1379054,5.23787217 C46.0409054,5.11287217 45.9429054,4.99787217 45.8479054,4.88487217 C45.6339054,4.63387217 45.4319054,4.39687217 45.2899054,4.10087217 C45.2739054,4.08187217 45.2599054,4.06187217 45.2449054,4.04187217 C44.9349054,3.76487217 44.6889054,3.70487217 44.4809054,3.68087217 C44.1659054,3.62587217 43.8399054,3.56687217 43.6019054,3.58687217 C43.1569054,3.52587217 42.9419054,3.68187217 42.7729054,4.18687217 C42.4829054,4.74287217 42.2529054,5.30287217 42.0109054,5.89787217 C41.9899054,5.95187217 41.9679054,6.00587217 41.9459054,6.05987217 C41.9149054,6.15987217 41.8729054,6.24787217 41.8309054,6.33387217 C41.7669054,6.46987217 41.6999054,6.61087217 41.6799054,6.74687217 C41.2829054,7.80487217 41.2539054,7.97687217 41.1549054,8.54487217 C41.1189054,8.75287217 41.0719054,9.01587217 41.0009054,9.37987217 C40.8499054,9.87187217 40.8049054,10.1118722 40.7749054,10.3438722 C40.7419054,10.3968722 40.7119054,10.4498722 40.6829054,10.4998722 C40.4099054,10.9198722 40.1029054,11.3148722 39.6479054,11.8288722 C39.5479054,11.9578722 39.4489054,12.0788722 39.3509054,12.1998722 C39.2439054,12.3318722 39.1359054,12.4618722 39.0359054,12.5948722 C39.0059054,12.6288722 38.9759054,12.6648722 38.9459054,12.6998722 C38.6999054,12.9368722 38.4599054,13.1818722 38.2239054,13.4248722 C37.9119054,13.7448722 37.5909054,14.0758722 37.2689054,14.3768722 C36.4959054,15.1078722 35.7709054,15.6218722 35.0599054,15.9428722 C34.7669054,16.0428722 34.0099054,16.2788722 33.8369054,16.2888722 C33.8279054,16.2878722 33.8209054,16.2878722 33.8139054,16.2898722 C33.3929054,16.3118722 32.8819054,15.8408722 32.4689054,15.4628722 C32.4429054,15.4408722 32.4179054,15.4188722 32.3919054,15.3968722 C32.3559054,15.3488722 32.2469054,15.1048722 32.1749054,14.9428722 C32.0599054,14.6818722 31.9819054,14.5088722 31.9199054,14.4188722 C31.8599054,14.2758722 31.8009054,14.1028722 31.7949054,13.8938722 C31.7879054,13.6368722 31.7819054,13.4148722 31.7389054,13.1548722 C31.7349054,13.0918722 31.7309054,13.0308722 31.7279054,12.9678722 C31.6929054,12.9728722 31.6579054,12.9778722 31.6239054,12.9838722 C31.6279054,12.9338722 31.6339054,12.8838722 31.6389054,12.8348722 C31.6979054,12.8258722 31.7569054,12.8168722 31.8159054,12.8068722 C31.8659054,12.7878722 31.9159054,12.7678722 31.9649054,12.7488722 C31.9629054,12.6608722 31.9599054,12.5728722 31.9579054,12.4848722 C31.9369054,12.4658722 31.9159054,12.4478722 31.8959054,12.4288722 C31.8879054,12.4218722 31.8789054,12.4158722 31.8709054,12.4098722 C31.9859054,12.3358722 32.0409054,12.2428722 32.0759054,12.0668722 C32.0889054,12.0378722 32.1019054,12.0088722 32.1139054,11.9798722 C32.2129054,11.9058722 32.3109054,11.7768722 32.3079054,11.6248722 C32.3059054,11.5428722 32.3389054,11.4628722 32.3769054,11.3698722 C32.3949054,11.3258722 32.4129054,11.2808722 32.4289054,11.2328722 C32.5429054,11.4108722 32.6429054,11.6078722 32.7409054,11.7988722 C32.7709054,11.8568722 32.8009054,11.9138722 32.8309054,11.9698722 C32.8409054,11.9998722 32.8529054,12.0268722 32.8659054,12.0538722 C32.8729054,12.0698722 32.8839054,12.0928722 32.8749054,12.1328722 C32.8699054,12.1628722 32.8639054,12.1908722 32.8579054,12.2188722 C32.8599054,12.3018722 32.9109054,12.4608722 32.9909054,12.5358722 C33.0079054,12.5458722 33.0259054,12.5568722 33.0429054,12.5678722 C33.0919054,12.5868722 33.1479054,12.6328722 33.2089054,12.6818722 C33.3269054,12.7788722 33.4839054,12.9058722 33.6739054,12.8958722 C33.6759054,12.8958722 33.6779054,12.8958722 33.6789054,12.8958722 C33.7729054,13.0088722 33.8899054,13.0108722 33.9569054,13.0128722 C33.9749054,13.0128722 33.9929054,13.0128722 34.0379054,13.0198722 C34.2769054,13.0318722 34.5419054,12.9498722 34.7379054,12.8138722 C35.0369054,12.6828722 35.2879054,12.4248722 35.4239054,12.1148722 C35.4499054,12.0638722 35.4759054,12.0128722 35.5009054,11.9618722 C35.6099054,11.7488722 35.7139054,11.5448722 35.7689054,11.3308722 C35.8429054,11.1098722 35.9399054,10.9238722 36.0419054,10.7278722 C36.0709054,10.6718722 36.0989054,10.6168722 36.1279054,10.5618722 C36.4299054,9.97987217 36.6009054,9.49587217 36.6619054,9.05287217 C36.7709054,8.56087217 36.7459054,8.14987217 36.6719054,7.68287217 C36.6649054,7.65887217 36.6579054,7.63287217 36.6509054,7.60787217 C36.6159054,7.49387217 36.5729054,7.35087217 36.4649054,7.25087217 C36.3099054,7.13087217 36.1989054,6.91787217 36.0799054,6.69287217 C36.0419054,6.61987217 36.0029054,6.54587217 35.9649054,6.47887217 C35.8889054,6.33187217 35.8029054,6.16387217 35.6539054,6.07887217 C35.4509054,5.96287217 34.9319054,5.85487217 34.4309054,5.75187217 C34.1229054,5.68887217 33.8319054,5.62987217 33.6799054,5.58187217 C33.6719054,5.56887217 33.6619054,5.55187217 33.6539054,5.54087217 C33.6119054,5.47087217 33.5549054,5.37587217 33.4819054,5.34087217 C33.4099054,5.27787217 33.3279054,5.26987217 33.2619054,5.26387217 C33.2289054,5.26087217 33.1969054,5.25787217 33.1769054,5.24887217 C32.9659054,4.96887217 32.6359054,5.15187217 32.5009054,5.22987217 C32.4399054,5.28087217 32.3789054,5.31787217 32.3099054,5.35987217 C32.2659054,5.38587217 32.2199054,5.41487217 32.1579054,5.45687217 C31.6189054,5.88487217 31.0929054,6.43287217 30.5979054,7.08087217 C30.1279054,7.65687217 29.7229054,8.27387217 29.3619054,8.95987217 C29.0259054,9.56187217 28.7339054,10.2238722 28.4699054,10.9828722 C28.4519054,11.0368722 28.4319054,11.0878722 28.4129054,11.1408722 C28.3299054,11.3628722 28.2439054,11.5908722 28.2579054,11.8908722 C28.2699054,12.1358722 28.2809054,12.3808722 28.2919054,12.6258722 C28.3869054,12.4068722 28.4829054,12.1868722 28.5789054,11.9668722 C28.5809054,11.9628722 28.5829054,11.9588722 28.5849054,11.9538722 C28.5149054,12.2358722 28.4639054,12.5148722 28.4229054,12.7918722 C28.3019054,12.9398722 28.1859054,13.0758722 28.0679054,13.1248722 C27.8649054,13.2078722 27.7189054,13.3048722 27.5789054,13.3998722 C27.4779054,13.4678722 27.3739054,13.5388722 27.2519054,13.6028722 C26.9159054,13.7448722 26.6599054,13.4958722 26.3379054,13.1298722 C26.2309054,13.0088722 26.1369054,12.9028722 26.0399054,12.8328722 C26.0239054,12.7998722 26.0089054,12.7678722 25.9929054,12.7368722 C25.6189054,11.9898722 25.4799054,11.7088722 25.1979054,10.4248722 C25.1789054,10.3778722 25.1609054,10.3438722 25.1319054,10.2918722 C25.1269054,10.2698722 25.1219054,10.2478722 25.1159054,10.2248722 C25.0569054,10.0798722 24.9849054,10.0068722 24.8359054,9.96287217 C24.8169054,9.95887217 24.7969054,9.95587217 24.7769054,9.95187217 C24.6839054,9.93187217 24.5559054,9.90387217 24.4389054,9.96287217 C24.4249054,9.96587217 24.4139054,9.96887217 24.4029054,9.97087217 C24.3699054,9.93887217 24.3239054,9.90887217 24.2539054,9.88887217 C24.0959054,9.81387217 23.4269054,9.81487217 23.2569054,9.85587217 C22.9529054,10.0038722 22.8519054,10.0758722 22.9199054,10.4448722 C22.9369054,10.5348722 22.9609054,10.6618722 22.9759054,10.8498722 C22.9819054,10.8768722 22.9889054,10.9048722 22.9959054,10.9318722 C23.2379054,11.6508722 23.2599054,11.8088722 23.2629054,11.8178722 C23.1899054,12.1908722 23.1409054,12.2408722 23.0729054,12.3078722 C22.9509054,12.4308722 22.8379054,12.5748722 22.7009054,13.0578722 C22.5809054,13.3088722 22.4669054,13.6758722 22.4189054,13.9588722 C22.3139054,14.4038722 22.1819054,14.7648722 21.9989054,15.1048722 C21.8549054,15.3968722 21.7109054,15.6888722 21.5679054,15.9798722 C21.2729054,16.6818722 20.9329054,17.2878722 20.5759054,17.9298722 C20.5109054,18.0468722 20.4459054,18.1648722 20.3809054,18.2828722 L20.3799054,18.2838722 C20.3769054,18.2778722 20.3739054,18.2748722 20.3719054,18.2728722 C20.3729054,18.2728722 20.3719054,18.2498722 20.3989054,18.1928722 C20.4229054,18.1408722 20.4469054,18.0888722 20.4719054,18.0388722 C20.4389054,18.0128722 20.4059054,17.9878722 20.3729054,17.9618722 C20.3629054,17.9378722 20.3539054,17.9138722 20.3439054,17.8898722 C20.3299054,17.8678722 20.3249054,17.8548722 20.3119054,17.8188722 C20.3049054,17.7988722 20.2959054,17.7768722 20.2859054,17.7498722 C20.2679054,17.5838722 20.2449054,17.3968722 20.1599054,17.1918722 C20.1479054,17.1288722 20.1239054,17.0868722 20.1179054,17.0948722 C20.1009054,16.9388722 20.0839054,16.7818722 20.0669054,16.6248722 C19.9639054,16.7808722 19.8619054,16.9348722 19.7599054,17.0898722 C19.7509054,17.1168722 19.7399054,17.1438722 19.7309054,17.1698722 C19.7209054,17.2298722 19.7129054,17.2888722 19.7049054,17.3468722 C19.6909054,17.2918722 19.6759054,17.2408722 19.6599054,17.1908722 C19.6199054,16.9918722 19.5909054,16.7868722 19.5649054,16.5808722 C19.5819054,16.6208722 19.5979054,16.6608722 19.6149054,16.7008722 C19.7249054,16.7118722 19.8349054,16.7238722 19.9459054,16.7358722 C19.9589054,16.6858722 19.9719054,16.6358722 19.9849054,16.5858722 C20.0639054,16.2888722 20.0659054,16.2598722 20.0329054,15.9558722 C19.9729054,15.7058722 19.9189054,15.4598722 19.9219054,15.1748722 C19.8859054,14.8198722 19.8489054,14.4528722 19.7819054,14.1148722 C19.7719054,14.0168722 19.7619054,13.9198722 19.7519054,13.8238722 C19.7099054,13.4018722 19.6609054,12.9258722 19.4829054,12.5098722 C19.4759054,12.4638722 19.4649054,12.4118722 19.4529054,12.3528722 C19.4359054,12.2748722 19.4169054,12.1848722 19.4049054,12.0758722 C19.3939054,12.0128722 19.3829054,11.9508722 19.3719054,11.8878722 C19.3099054,11.5218722 19.2509054,11.1768722 19.0609054,10.8858722 C18.9979054,10.7728722 19.0009054,10.6968722 19.0269054,10.5628722 C19.1089054,10.5738722 19.1759054,10.5388722 19.2699054,10.5148722 C19.3249054,10.5008722 19.3799054,10.4878722 19.4359054,10.4738722 C19.4229054,10.4118722 19.4109054,10.3488722 19.3979054,10.2868722 C19.3419054,9.99987217 19.1889054,9.83887217 19.0529054,9.69787217 C18.9929054,9.63487217 18.9309054,9.57287217 18.8799054,9.49587217 C18.8609054,9.47687217 18.8419054,9.45787217 18.8229054,9.43887217 C18.7629054,9.40387217 18.7009054,9.37087217 18.6389054,9.33587217 C18.4489054,9.23387217 18.2699054,9.13687217 18.1369054,8.96987217 C18.1129054,8.94187217 18.0889054,8.91387217 18.0649054,8.88487217 C17.9949054,8.82887217 17.8449054,8.76387217 17.7299054,8.79187217 C17.6909054,8.80087217 17.6669054,8.80687217 17.6509054,8.80987217 C17.6269054,8.77987217 17.5949054,8.74187217 17.5279054,8.68187217 C17.4119054,8.59987217 17.3849054,8.56687217 17.3799054,8.56087217 C17.3649054,8.54387217 17.3489054,8.52887217 17.3339054,8.51287217 C17.1499054,8.38287217 16.9259054,8.39987217 16.7779054,8.55287217 C16.7659054,8.57087217 16.7539054,8.58887217 16.7419054,8.60687217 C16.6899054,8.72387217 16.6779054,8.80987217 16.6689054,8.88687217 C16.6649054,8.91187217 16.6619054,8.93687217 16.6529054,9.00287217 C16.6519054,9.16687217 16.6569054,9.20687217 16.6619054,9.25587217 C16.6669054,9.29687217 16.6719054,9.34687217 16.6789054,9.47087217 C16.6239054,9.75487217 16.6349054,10.0308722 16.6449054,10.2978722 C16.6479054,10.3818722 16.6509054,10.4638722 16.6519054,10.5298722 C16.6139054,11.1468722 16.5709054,11.6488722 16.4729054,12.2498722 C16.3989054,12.8258722 16.3519054,13.3948722 16.3029054,13.9978722 C16.2679054,14.4248722 16.2319054,14.8598722 16.1869054,15.3078722 C16.1679054,15.5328722 16.1549054,15.7478722 16.1419054,15.9588722 C16.1269054,16.2058722 16.1129054,16.4468722 16.0889054,16.6898722 C16.0589054,16.9948722 16.0469054,17.3108722 16.0369054,17.6178722 C16.0259054,17.9358722 16.0149054,18.2378722 15.9839054,18.5418722 C15.9839054,18.6188722 15.9809054,18.6968722 15.9779054,18.7758722 C15.9701443,18.9668722 15.9619054,19.1638722 15.9879054,19.3338722 C15.9589054,19.7758722 16.4839054,20.5538722 16.7539054,20.7498722 C16.8209054,20.7998722 16.9549054,20.8688722 17.1849054,20.9858722 C17.4509054,21.1218722 18.0049054,21.4068722 18.0819054,21.5188722 C18.2109054,21.7488722 18.3919054,21.8968722 18.6079054,21.9488722 C18.6919054,21.9688722 18.7789054,21.9738722 18.8669054,21.9638722 C19.0519054,21.9458722 19.2389054,21.8638722 19.4009054,21.7318722 C19.4309054,21.7178722 19.4609054,21.7058722 19.4919054,21.6918722 C19.6659054,21.6168722 19.8159054,21.5498722 19.9009054,21.5228722 C20.0509054,21.5268722 20.1889054,21.4918722 20.2929054,21.4638722 C20.4879054,21.4138722 20.6389054,21.2878722 20.7439054,21.0888722 C21.1869054,20.6138722 21.3439054,20.1168722 21.4779054,19.6088722 C21.5589054,19.3128722 21.6729054,19.0468722 21.8779054,18.6818722 C21.8929054,18.6348722 21.9099054,18.5898722 21.9259054,18.5458722 C21.9959054,18.3518722 22.0759054,18.1318722 22.0229054,17.9208722 C22.0229054,17.9068722 22.0259054,17.8838722 22.0289054,17.8628722 C22.0339054,17.8298722 22.0379054,17.7978722 22.0389054,17.7688722 C22.1409054,17.3658722 22.2419054,17.0848722 22.3749054,16.8248722 C22.6489054,16.4228722 22.8049054,16.0838722 22.8759054,15.7308722 C22.8939054,15.6998722 22.9089054,15.6668722 22.9249054,15.6328722 C22.9509054,15.5798722 22.9709054,15.5358722 23.0059054,15.4998722 C23.0189054,15.4818722 23.0319054,15.4618722 23.0449054,15.4428722 C23.2199054,15.0408722 23.3469054,14.6528722 23.4689054,14.2768722 C23.5459054,14.0408722 23.6229054,13.8088722 23.7099054,13.5758722 C23.7949054,13.3358722 23.8379054,13.1828722 23.8739054,13.0588722 C23.9109054,12.9258722 23.9379054,12.8338722 23.9989054,12.6988722 C24.0859054,12.8188722 24.1639054,12.9178722 24.2409054,13.0158722 C24.3839054,13.1998722 24.5199054,13.3728722 24.7029054,13.6648722 C24.7169054,13.6798722 24.7309054,13.6958722 24.7439054,13.7108722 C24.7659054,13.7278722 24.8299054,13.7748722 24.9119054,13.8338722 C25.0409054,13.9248722 25.3419054,14.1418722 25.3759054,14.1728722 C25.3889054,14.1888722 25.4019054,14.2048722 25.4149054,14.2208722 C25.4339054,14.2368722 25.4549054,14.2528722 25.8709054,14.4808722 C25.8709054,14.4968722 25.8719054,14.5118722 25.8719054,14.5278722 C25.9169054,14.5348722 25.9629054,14.5418722 26.0079054,14.5478722 C26.0299054,14.5538722 26.0729054,14.5718722 26.1289054,14.5958722 C26.6389054,14.8038722 27.1459054,14.9658722 27.4359054,14.7398722 C27.5849054,14.6798722 28.0109054,14.5008722 28.3389054,14.2928722 C28.3389054,14.2978722 28.3389054,14.3028722 28.3389054,14.3078722 C28.3979054,14.8238722 28.4569054,15.3568722 28.6579054,15.8278722 C28.7939054,16.1488722 28.9969054,16.4218722 29.2109054,16.5738722 C29.3549054,16.6808722 29.4779054,16.8008722 29.6069054,16.9278722 C29.9539054,17.2668722 30.3449054,17.6508722 31.2189054,17.8888722 C31.5639054,17.9738722 32.8999054,18.0608722 33.6589054,18.0218722 C33.8429054,18.0108722 33.9939054,17.9938722 34.0869054,17.9658722 C34.5419054,17.8598722 34.9229054,17.7258722 35.2859054,17.5438722 C35.3759054,17.4988722 35.4659054,17.4528722 35.5559054,17.4078722 C35.8929054,17.2958722 36.2579054,17.0868722 36.6479054,16.7818722 C36.8389054,16.6198722 37.0339054,16.4908722 37.2429054,16.3478722 C37.3049054,16.2918722 37.3669054,16.2418722 37.4289054,16.1928722 C37.4989054,16.1368722 37.5679054,16.0818722 37.6249054,16.0278722 C37.7479054,15.9338722 37.8499054,15.8288722 37.9589054,15.7158722 C38.0049054,15.6678722 38.0529054,15.6198722 38.1249054,15.5488722 C38.4479054,15.2358722 38.7829054,14.9118722 39.0909054,14.5168722 C39.2529054,14.2948722 39.4499054,14.0678722 39.6559054,13.8648722 C39.7959054,13.7048722 39.9079054,13.5768722 40.0209054,13.3718722 C40.0579054,13.3058722 40.0949054,13.2418722 40.1319054,13.1758722 C40.0889054,13.1568722 40.0459054,13.1368722 40.0019054,13.1178722 C40.0069054,13.1118722 40.0119054,13.1058722 40.0169054,13.0998722 C40.0769054,13.0258722 40.1599054,12.9248722 40.1889054,12.7558722 C40.2069054,12.6568722 40.2239054,12.5578722 40.2409054,12.4588722 C40.2879054,12.3978722 40.3359054,12.3338722 40.3869054,12.2558722 C40.4429054,12.1358722 40.5089054,12.0318722 40.5769054,11.9268722 C40.5149054,12.6418722 40.4689054,13.3628722 40.4189054,14.1998722 C40.4029054,14.7928722 40.3869054,15.4658722 40.4749054,16.0928722 C40.6139054,16.9548722 40.9309054,17.4318722 41.4409054,17.5548722 C41.5539054,17.6588722 41.6559054,17.6838722 41.7469054,17.6338722 C41.8869054,17.6598722 42.0309054,17.6778722 42.1769054,17.6738722 C42.5289054,17.6658722 42.8879054,17.5268722 43.2039054,17.0398722 C43.2219054,17.0188722 43.2429054,17.0028722 43.2619054,16.9878722 C43.3099054,16.9498722 43.3749054,16.8958722 43.4069054,16.8108722 C43.6939054,16.4458722 44.5219054,14.7958722 44.5879054,14.6118722 C44.6309054,14.5008722 44.6789054,14.3918722 44.7259054,14.2848722 C44.8059054,14.0998722 44.8809054,13.9258722 44.9319054,13.7638722 C45.1069054,13.2498722 45.3359054,12.7858722 45.5789054,12.2938722 C45.7049054,12.0398722 45.8319054,11.7838722 45.9519054,11.5198722 C46.0449054,11.3158722 46.1439054,11.1228722 46.2409054,10.9328722 C46.3829054,10.6538722 46.5309054,10.3648722 46.6579054,10.0478722 C46.8879054,9.41187217 47.1719054,8.86687217 47.5699054,8.16687217 L47.5699054,8.16687217 Z" id="Fill-206" fill="#272525"></path>
                <path d="M88.6039054,31.2478722 C88.6119054,31.0298722 88.7349054,30.8458722 88.9719054,30.7008722 C89.1819054,30.7038722 89.3619054,30.7288722 89.5829054,30.7678722 C89.6199054,30.7728722 89.6559054,30.7768722 89.6919054,30.7818722 C90.3719054,30.8668722 91.0749054,30.9578722 91.8059054,30.9938722 C92.7569054,30.9378722 93.2659054,30.9708722 93.5369054,31.0108722 C93.7719054,31.0448722 93.8279054,31.0908722 93.8369054,31.0848722 C93.7939054,31.2448722 93.2819054,31.5848722 92.3219054,32.1048722 C92.3139054,32.1098722 92.3069054,32.1158722 92.2979054,32.1208722 C91.2109054,32.9888722 90.0659054,32.7998722 89.3479054,32.3338722 C88.8829054,32.0318722 88.5899054,31.6058722 88.6039054,31.2478722 Z M48.5619054,24.8658722 C48.7649054,24.7968722 48.9439054,24.7608722 49.1699054,24.7238722 C49.2109054,24.7148722 49.2519054,24.7068722 49.2929054,24.6968722 C49.9679054,24.5488722 50.6669054,24.3998722 51.3779054,24.1888722 C52.7549054,23.6218722 53.1959054,23.5888722 53.3229054,23.5898515 C53.3519054,23.5908722 53.3649054,23.5928722 53.3679054,23.5908722 C53.3679054,23.7568722 52.9609054,24.2538722 52.1679054,25.0728722 C52.1609054,25.0808722 52.1549054,25.0878722 52.1479054,25.0958722 C51.3199054,26.2898722 50.1629054,26.4968722 49.3479054,26.2948722 C48.8199054,26.1648722 48.4269054,25.8578722 48.3469054,25.5108722 C48.2979054,25.2998722 48.3709054,25.0838722 48.5619054,24.8658722 Z M83.9199054,4.91287217 C83.8639054,5.09487217 83.7969054,5.20187217 83.7079054,5.31787217 C83.1409054,5.90387217 82.7249054,6.37387217 82.3679054,6.82987217 C82.0919054,7.11887217 81.7839054,7.36487217 81.4879054,7.60387217 C81.3949054,7.67787217 81.3029054,7.75187217 81.2129054,7.82687217 C80.9449054,8.04787217 80.7309054,8.27687217 80.5059054,8.51887217 C80.4029054,8.62787217 80.2999054,8.73987217 80.2169054,8.82987217 C79.7979054,9.10387217 79.6189054,9.16087217 79.5489054,9.16987217 C79.5739054,8.92287217 79.9869054,8.18387217 80.2169054,7.77587217 C80.3419054,7.55387217 80.4619054,7.33887217 80.5659054,7.13887217 C80.7519054,6.69387217 81.0259054,6.32387217 81.3169054,5.93087217 C81.5269054,5.64987217 81.7449054,5.35787217 81.9459054,5.00787217 C82.0389054,4.80087217 82.1989054,4.60287217 82.3809054,4.37587217 C82.5249054,4.16887217 82.6269054,3.97687217 82.6499054,3.75387217 C82.6729054,3.67687217 82.7029054,3.61787217 82.9219054,3.54487217 C83.1359054,3.42187217 83.4079054,3.24387217 83.5989054,2.98487217 C83.8169054,2.79987217 84.0249054,2.58487217 84.0669054,2.29387217 C84.0749054,2.26687217 84.1199054,2.21387217 84.1529054,2.17687217 C84.1769054,2.14987217 84.1999054,2.12187217 84.2209054,2.09387217 C84.2799054,2.04787217 84.3429054,2.00387217 84.4069054,1.95887217 C84.6129054,1.81187217 84.8459054,1.64487217 85.0129054,1.41487217 C85.0249054,1.39687217 85.0689054,1.38087217 85.1089054,1.36687217 C85.1509054,1.35187217 85.1919054,1.33587217 85.1919054,1.32987217 C85.3349054,1.29187217 85.3789054,1.30987217 85.3909054,1.31887217 C85.3989054,1.32487217 85.4269054,1.35387217 85.4459054,1.47787217 C85.4189054,1.67487217 85.3929054,1.86287217 85.3389054,2.03487217 C85.0239054,2.91487217 84.7289054,3.74587217 84.1689054,4.40987217 C84.0269054,4.56187217 83.9649054,4.76387217 83.9199054,4.91287217 Z M73.2109054,13.6038722 C73.1189054,13.8468722 73.0589054,14.1018722 73.0319054,14.3588722 C72.9899054,14.4718722 72.9569054,14.5798722 72.9239054,14.6868722 C72.8909054,14.7938722 72.8579054,14.9008722 72.8069054,15.0418722 C72.8049054,15.0538722 72.7919054,15.0798722 72.7829054,15.0988722 C72.7699054,15.1258722 72.7539054,15.1588722 72.7409054,15.1958722 C72.5639054,15.4238722 72.3629054,15.6218722 72.1369054,15.7858722 C72.0179054,15.8818722 71.8949054,15.9788722 71.7729054,16.0748722 C71.5159054,16.2768722 71.2519054,16.4848722 71.0339054,16.6868722 C71.0029054,16.7098722 70.9729054,16.7328722 70.9429054,16.7558722 C70.8119054,16.8558722 70.6769054,16.9588722 70.5219054,17.0218722 C70.3589054,16.3678722 70.5589054,15.7638722 70.7809054,15.2478722 C70.8599054,15.1398722 70.9349054,15.0358722 71.0079054,14.9338722 C71.1539054,14.7308722 71.2939054,14.5388722 71.4389054,14.3578722 C71.4879054,14.3058722 71.5289054,14.2518722 71.5689054,14.1988722 C71.6019054,14.1558722 71.6329054,14.1128722 71.6729054,14.0708722 C71.6769054,14.0668722 71.6809054,14.0618722 71.6849054,14.0578722 C71.8019054,13.9088722 71.9069054,13.7608722 72.0089054,13.6178722 C72.2289054,13.3078722 72.4369054,13.0158722 72.7619054,12.7598722 C73.4759054,11.9538722 73.7419054,11.9408722 73.7819054,11.9438722 C73.7899054,11.9448722 73.7879054,11.9448722 73.7879054,11.9448722 C73.8409054,12.0128722 73.8029054,12.5268722 73.2109054,13.6038722 Z M112.203905,23.7838722 C112.295905,23.6048722 112.388905,23.4268722 112.481905,23.2498722 C112.363905,23.2878722 112.245905,23.3258722 112.126905,23.3638722 C112.118905,23.3548722 112.109905,23.3448722 112.100905,23.3348722 C112.063905,23.3628722 112.026905,23.3908722 111.990905,23.4178722 C111.875905,23.5028722 111.773905,23.5618722 111.660905,23.6268722 C111.262905,23.8668722 110.947905,24.0488722 110.603905,24.2188722 C109.612905,24.6848722 108.813905,25.0388722 108.016905,25.3598722 C107.867905,25.4128722 107.719905,25.4648722 107.571905,25.5178722 C103.144905,27.1248722 102.043905,27.2148722 101.868905,26.9668722 C101.853905,26.9448722 101.869905,26.8748722 101.899905,26.8078722 C102.041905,26.5688722 102.987905,25.5348722 103.686905,24.7818722 C104.209905,24.2168722 104.663905,23.7308722 104.815905,23.5418722 C105.331905,22.8648722 106.618905,21.7448722 106.917905,21.5068722 C106.974905,21.4508722 107.034905,21.3988722 107.095905,21.3468722 C107.264905,21.2028722 107.455905,21.0398722 107.563905,20.8068722 C107.631905,20.7138722 108.113905,20.3498722 108.272905,20.2298722 C108.308905,20.2028722 108.343905,20.1748722 108.379905,20.1478722 C108.559905,20.0978722 108.726905,19.9658722 108.819905,19.7978722 C109.100905,19.4988722 109.163905,18.9908722 109.176905,18.7828722 C109.185905,18.6418722 109.201905,18.1678722 109.011905,17.9288722 C108.825905,17.7318722 108.688905,17.7088722 108.412905,17.8338722 C108.200905,17.8658722 108.048905,17.9858722 107.887905,18.1138722 C107.875905,18.1248722 107.861905,18.1368722 107.848905,18.1478722 C107.749905,18.2038722 107.651905,18.2588722 107.555905,18.3148722 C107.244905,18.4938722 106.951905,18.6628722 106.642905,18.7808722 C106.628905,18.7888722 106.615905,18.7948722 106.601905,18.8028722 C106.240905,19.0758722 106.147905,19.1738722 106.072905,19.2538722 C105.998905,19.3328722 105.949905,19.3828722 105.530905,19.6548722 C105.060905,19.9268722 103.180905,20.6398722 101.380905,21.2088722 C98.7139054,22.0518722 97.8369054,22.0358722 97.7409054,21.9058722 C97.7409054,21.8718722 97.7649054,21.5158722 99.5059054,20.2608722 C99.6679054,20.1598722 99.7979054,20.0568722 99.9159054,19.9658722 C100.011905,19.8908722 100.096905,19.8238722 100.203905,19.7588722 C100.376905,19.6208722 100.562905,19.4988722 100.742905,19.3778722 C101.030905,19.1878722 101.302905,19.0088722 101.504905,18.7948722 C101.596905,18.7198722 101.687905,18.6458722 101.778905,18.5718722 C102.103905,18.3098722 102.439905,18.0388722 102.673905,17.8048722 C102.879905,17.6748722 103.046905,17.5308722 103.193905,17.4018722 C103.318905,17.2928722 103.427905,17.2008722 103.536905,17.1328722 C103.548905,17.1238722 103.560905,17.1138722 103.572905,17.1048722 C103.886905,16.7738722 104.098905,16.4758722 104.177905,16.0348722 C104.307905,15.5998722 104.437905,14.9538722 104.072905,14.3298722 C104.070905,14.3178722 104.070905,14.3018722 104.069905,14.2868722 C104.066905,14.2298722 104.063905,14.1618722 104.047905,14.0798722 C104.005905,13.9018722 103.949905,13.7598722 103.894905,13.6238722 C103.838905,13.5408722 103.783905,13.4568722 103.727905,13.3738722 C103.498905,13.0538722 103.111905,12.5198722 103.086905,12.2758722 C103.084905,12.2578722 103.082905,12.2408722 103.080905,12.2228722 C103.071905,12.2088722 103.061905,12.1958722 103.052905,12.1818722 C103.016905,12.1288722 102.975905,12.0648722 102.935905,12.0008722 C102.895905,11.9388722 102.856905,11.8768722 102.821905,11.8268722 C102.798905,11.7918722 102.775905,11.7578722 102.752905,11.7248722 C102.715905,11.7358722 102.678905,11.7478722 102.642905,11.7588722 C102.375905,11.8418722 102.252905,11.9148722 102.072905,12.0218722 C101.639905,12.2818722 101.342905,12.5158722 101.006905,12.8108722 C100.684905,12.9828722 100.296905,13.4208722 99.9229054,13.8448722 C99.6819054,14.1188722 99.4559054,14.3758722 99.2779054,14.5268722 C99.2609054,14.5508722 99.2429054,14.5758722 99.2249054,14.5998722 C99.1369054,14.8128722 98.8499054,15.1188722 98.6199054,15.3638722 C98.4669054,15.5268722 98.3359054,15.6668722 98.2549054,15.7858722 C97.9639054,16.2528722 97.7169054,16.5678722 97.4779054,16.8728722 C97.2879054,17.1138722 97.1049054,17.3508722 96.9209054,17.6448722 C96.9189054,17.6458722 96.9169054,17.6468722 96.9149054,17.6478722 C96.8899054,17.6508722 96.8519054,17.6558722 96.8069054,17.6768722 C96.4949054,17.8238722 96.0599054,18.1248722 95.6409054,18.4168722 C95.2529054,18.6868722 94.8549054,18.9668722 94.5849054,19.1018722 C94.4799054,19.1548722 94.3699054,19.1958722 94.2599054,19.2378722 C94.1389054,19.2848722 94.0179054,19.3318722 93.9339054,19.3778722 C93.6379054,19.4528722 93.3799054,19.5068722 93.1259054,19.5628722 C93.1069054,19.5668722 93.0899054,19.5708722 93.0719054,19.5748722 C92.9019054,19.6248722 92.7189054,19.6508722 92.5429054,19.6758722 C92.4859054,19.6848722 92.4309054,19.6938722 92.3749054,19.7028722 C92.1389054,19.7268722 91.9229054,19.6908722 91.7099054,19.6578722 C91.6479054,19.6378722 91.6129054,19.5988722 91.6029054,19.5598722 C91.5689054,19.2308722 91.5909054,18.9008722 91.6109054,18.7038722 C91.6549054,18.4978722 91.7559054,18.3038722 91.8979054,18.1418722 C92.1689054,17.8918722 92.4529054,17.6088722 92.6919054,17.3508722 C92.7039054,17.3398722 92.7149054,17.3298722 92.7279054,17.3188722 C92.7699054,17.2818722 92.8279054,17.2298722 92.8689054,17.1128722 C92.9599054,16.7638722 93.0639054,16.3678722 92.9199054,15.9138722 C92.8789054,15.8248722 92.8389054,15.7368722 92.8039054,15.6648722 C92.6539054,15.2608722 92.3379054,15.1478722 92.0489054,15.0908722 C92.0239054,15.0858722 91.9999054,15.0818722 91.9759054,15.0768722 C91.9559054,15.0938722 91.9359054,15.1118722 91.9159054,15.1288722 C91.5869054,15.4188722 91.2689054,15.6838722 90.9529054,15.9468722 C90.9129054,15.9808722 90.8729054,16.0138722 90.8329054,16.0468722 C90.5939054,16.2498722 90.3279054,16.4178722 90.0559054,16.5928722 C89.9059054,16.6728722 89.7729054,16.7478722 89.6569054,16.8418722 C89.4489054,17.0358722 89.2309054,17.1458722 89.0319054,17.2328722 C88.6839054,17.3668722 88.3289054,17.5288722 87.9569054,17.7258722 C88.0959054,17.5278722 88.2599054,17.3358722 88.4479054,17.1508722 C88.5009054,17.0938722 88.5399054,17.0548722 88.6209054,17.0078722 C88.6529054,16.9848722 88.6849054,16.9598722 88.7169054,16.9368722 C88.8449054,16.8428722 88.9899054,16.7358722 89.1049054,16.6318722 C89.2029054,16.5568722 89.2999054,16.4808722 89.3959054,16.4068722 C89.6759054,16.1868722 89.9409054,15.9808722 90.2299054,15.8068722 C90.4219054,15.7048722 90.5969054,15.6098722 90.7959054,15.4758722 C91.0989054,15.2418722 91.4609054,15.0708722 91.8119054,14.9058722 C91.9599054,14.8358722 92.1079054,14.7668722 92.2519054,14.6938722 C92.2699054,14.6778722 92.2879054,14.6628722 92.3059054,14.6468722 C92.6059054,14.5418722 92.9169054,14.4388722 93.2359054,14.4048722 C93.6479054,14.3228722 93.8589054,14.0978722 93.9219054,13.6508722 C93.9239054,13.5918722 93.9229054,13.5418722 93.9219054,13.4928722 C93.9199054,13.4488722 93.9199054,13.4058722 93.9189054,13.3118722 C93.8809054,13.0818722 93.7749054,12.8818722 93.6719054,12.6898722 C93.6339054,12.6208722 93.5969054,12.5498722 93.5639054,12.4798722 C93.5199054,12.3838722 93.4239054,12.2988722 93.3199054,12.2658722 C93.2779054,12.2518722 93.2369054,12.2078722 93.1899054,12.1558722 C93.1319054,12.0918722 93.0629054,12.0158722 92.9649054,11.9708722 C92.9129054,11.7998722 92.7709054,11.7268722 92.6549054,11.6658722 C92.6219054,11.6498722 92.5889054,11.6328722 92.5569054,11.6178722 C92.5269054,11.6078722 92.4849054,11.5658722 92.4219054,11.5068722 C92.3349054,11.4488722 92.2359054,11.3998722 92.1399054,11.3508722 C92.0099054,11.2858722 91.8869054,11.2238722 91.8059054,11.1448722 C91.7509054,11.1218722 91.6949054,11.0978722 91.6399054,11.0748722 C91.3879054,10.9988722 91.1579054,10.9698722 90.9799054,10.9498722 C90.8649054,10.9158722 90.6959054,10.9038722 90.5739054,10.9238722 C89.9719054,11.0758722 89.4419054,11.2938722 88.8979054,11.6168722 C88.2159054,12.0628722 87.4469054,12.5708722 86.8119054,13.1218722 C86.7669054,13.1468722 86.7109054,13.1778722 86.6689054,13.2328722 C86.2509054,13.5008722 85.8999054,13.8508722 85.5819054,14.1778722 C85.4519054,14.0038722 85.2949054,13.8288722 85.1039054,13.8278722 C84.9089054,13.8288722 84.7789054,13.9998722 84.6149054,14.2178722 C84.5159054,14.3498722 84.3919054,14.5138722 84.2289054,14.6768722 C83.8639054,15.0348722 83.5169054,15.4008722 83.1709054,15.7688722 C82.5709054,16.4058722 81.9539054,17.0658722 81.2409054,17.6818722 C80.7439054,18.2548722 80.4879054,18.6518722 80.2829054,18.9698722 C80.1089054,19.2388722 79.9839054,19.4328722 79.7889054,19.6208722 C79.5759054,19.8128722 79.3779054,20.0218722 79.1629054,20.2868722 C78.9429054,20.5058722 78.8829054,20.5988722 78.8879054,20.7148722 C78.8579054,20.7438722 78.8129054,20.7868722 78.7429054,20.8478722 C78.6979054,20.8928722 78.6369054,20.9268722 78.5789054,20.9608722 C78.5549054,20.9748722 78.5319054,20.9878722 78.5109054,21.0008722 C78.4009054,21.0258722 78.3159054,21.0578722 78.2309054,21.0898722 C78.0669054,21.1528722 77.9129054,21.2108722 77.5269054,21.1988722 C77.4849054,21.1298722 77.4429054,21.0618722 77.4009054,20.9938722 C77.1519054,20.5928722 76.9379054,20.2488722 76.8469054,19.7688722 C76.8389054,19.7478722 76.8319054,19.7268722 76.8239054,19.7068722 C76.7919054,19.6498722 76.7729054,19.6028722 76.7669054,19.5588722 C76.8109054,19.5688722 76.8559054,19.5778722 76.8989054,19.5868722 C76.8649054,19.5268722 76.8309054,19.4658722 76.7959054,19.4058722 C76.8459054,19.2998722 76.8439054,19.1548722 76.7889054,18.9698722 C76.7909054,18.8308722 76.7769054,18.6928722 76.6819054,18.5458722 C76.6689054,18.0948722 76.6589054,17.6668722 76.7439054,17.2038722 C76.7509054,17.1368722 76.7699054,17.0728722 76.7879054,17.0068722 C76.8269054,16.8628722 76.8719054,16.6998722 76.8339054,16.5068722 C76.8319054,16.4968722 76.8299054,16.4848722 76.8279054,16.4738722 C76.8289054,16.4728722 76.8309054,16.4688722 76.8339054,16.4588722 C76.9069054,16.1708722 76.9799054,15.8828722 77.0529054,15.5948722 C77.1529054,15.3598722 77.2519054,15.1068722 77.2469054,14.8338722 C77.2529054,14.7428722 77.2849054,14.6438722 77.3189054,14.5418722 C77.3309054,14.5018722 77.3439054,14.4638722 77.3559054,14.4258722 C77.4439054,14.3448722 77.5149054,14.2258722 77.5129054,14.0958722 C77.5359054,14.0178722 77.5639054,13.9448722 77.5919054,13.8738722 C77.6369054,13.7558722 77.6849054,13.6358722 77.7059054,13.5018722 C77.8789054,13.2218722 78.0089054,12.9898722 78.1149054,12.7208722 C78.2009054,12.5018722 78.3299054,12.2318722 78.5009054,11.9168722 C78.5679054,11.7898722 78.6149054,11.7088722 78.7199054,11.6598722 C78.7399054,11.6438722 78.7589054,11.6288722 78.7779054,11.6138722 C78.9129054,11.4548722 78.9599054,11.3278722 78.9989054,11.2248722 C79.0419054,11.1108722 79.0699054,11.0358722 79.2339054,10.9058722 C79.2469054,10.8958722 79.2599054,10.8858722 79.2729054,10.8758722 C79.6719054,10.5658722 80.1249054,10.2158722 80.3869054,9.77587217 C80.5269054,9.61287217 80.7279054,9.48987217 80.9139054,9.37287217 C81.1389054,9.28687217 81.4539054,9.11987217 81.6849054,8.79687217 C81.8819054,8.48587217 82.1289054,8.24387217 82.4619054,8.04187217 C82.6929054,7.85087217 82.9349054,7.57587217 83.1749054,7.22187217 C83.2449054,7.08087217 83.3279054,6.96187217 83.4249054,6.82487217 C83.4469054,6.79187217 83.4679054,6.76087217 83.4899054,6.72887217 C83.7189054,6.47887217 83.9099054,6.22487217 84.0879054,5.98887217 C84.2769054,5.76487217 84.5069054,5.50887217 84.7739054,5.29587217 C84.9359054,5.14787217 85.0799054,4.95487217 85.1929054,4.73687217 C85.2369054,4.68087217 85.2539054,4.62187217 85.2589054,4.57787217 C85.5579054,4.31387217 85.6679054,3.96587217 85.7479054,3.70787217 C85.8669054,3.44687217 85.9769054,3.21887217 86.0849054,2.99987217 C86.2499054,2.68787217 86.3149054,2.36087217 86.3779054,2.04387217 C86.3959054,1.95887217 86.4129054,1.87487217 86.4299054,1.79087217 C86.4299054,1.78187217 86.4299054,1.77287217 86.4299054,1.76487217 C86.4259054,1.63687217 86.4219054,1.49387217 86.3459054,1.36487217 C86.3369054,1.35187217 86.3269054,1.33887217 86.3169054,1.32787217 C86.1869054,1.19587217 86.0879054,1.05187217 85.9929054,0.912872174 C85.8869054,0.758872174 85.7769054,0.599872174 85.6239054,0.458872174 C85.1269054,0.014872174 84.5849054,-0.110127826 84.0589054,0.097872174 C83.7349054,0.225872174 83.4139054,0.330872174 82.9979054,0.441872174 C82.9439054,0.462872174 82.8869054,0.483872174 82.8289054,0.504872174 C82.6979054,0.552872174 82.5629054,0.602872174 82.4579054,0.663872174 C82.0859054,0.875872174 81.6919054,1.07687217 81.2999054,1.24987217 C80.8689054,1.50287217 80.5039054,1.83887217 80.1359054,2.18087217 C79.7809054,2.59987217 79.3699054,3.04987217 78.8939054,3.54487217 C78.8599054,3.59687217 78.8299054,3.64587217 78.8009054,3.69387217 C78.7229054,3.81887217 78.6559054,3.92787217 78.5349054,4.05487217 C78.3489054,4.33887217 78.1269054,4.62187217 77.8979054,4.91687217 C77.7709054,5.13287217 77.6399054,5.35587217 77.4919054,5.53187217 C77.4329054,5.60187217 77.3799054,5.68287217 77.3289054,5.76287217 C77.2879054,5.82787217 77.2469054,5.89187217 77.2049054,5.94387217 C76.9349054,6.24587217 76.7149054,6.73487217 76.5029054,7.20787217 C76.3009054,7.65787217 76.0269054,8.27287217 75.8449054,8.27287217 C75.8079054,8.27187217 75.6709054,8.23287217 75.4539054,7.72187217 C75.4469054,7.70487217 75.4389054,7.68687217 75.4319054,7.66887217 C75.4169054,7.65887217 75.4009054,7.64887217 75.3859054,7.63887217 C75.3349054,7.60587217 75.2799054,7.56887217 75.2229054,7.52887217 C75.1069054,7.44787217 74.9809054,7.36187217 74.8519054,7.29087217 C74.8349054,7.28087217 74.8179054,7.27087217 74.8009054,7.26087217 C74.7289054,7.21887217 74.6539054,7.17487217 74.5199054,7.15487217 C74.4679054,7.15487217 74.4139054,7.15187217 74.3599054,7.14987217 C74.1769054,7.14087217 73.9879054,7.13187217 73.8439054,7.19187217 C72.7489054,7.35487217 71.7439054,7.77687217 70.9489054,8.40487217 C70.3339054,8.84387217 69.8149054,9.37487217 69.3179054,9.94187217 C69.3219054,9.91887217 69.3249054,9.89687217 69.3289054,9.87487217 C69.1869054,9.98087217 69.0439054,10.0868722 68.9019054,10.1938722 C68.9009054,10.2048722 68.8999054,10.2148722 68.8989054,10.2258722 C68.8239054,10.3228722 68.7519054,10.4008722 68.6659054,10.4948722 C68.3579054,10.8408722 68.0929054,11.1298722 67.8009054,11.4118722 C67.1969054,11.9728722 66.4629054,12.6458722 65.5989054,13.3668722 C65.4719054,13.4638722 65.3459054,13.5618722 65.2189054,13.6598722 C61.3489054,16.6828722 60.3049054,17.1428722 60.0669054,16.9648722 C60.0459054,16.9498722 60.0429054,16.8758722 60.0549054,16.8028722 C60.1279054,16.5288722 60.7699054,15.2258722 61.2439054,14.2768722 C61.5999054,13.5628722 61.9099054,12.9468722 62.0059054,12.7148722 C62.3269054,11.8888722 63.2579054,10.4128722 63.4919054,10.0738722 C63.5309054,10.0008722 63.5759054,9.93187217 63.6199054,9.86287217 C63.7439054,9.66787217 63.8859054,9.44887217 63.9269054,9.19087217 C63.9679054,9.07887217 64.3359054,8.56987217 64.4579054,8.40187217 C64.4849054,8.36487217 64.5119054,8.32787217 64.5389054,8.29087217 C64.6979054,8.18187217 64.8239054,7.99987217 64.8689054,7.80987217 C65.0589054,7.43087217 64.9799054,6.92687217 64.9359054,6.72487217 C64.9059054,6.58787217 64.7909054,6.13187217 64.5409054,5.96787217 C64.3089054,5.84387217 64.1689054,5.86787217 63.9349054,6.07987217 C63.7379054,6.17987217 63.6249054,6.34487217 63.5049054,6.51987217 C63.4949054,6.53587217 63.4849054,6.55087217 63.4749054,6.56687217 C63.3939054,6.65287217 63.3149054,6.73887217 63.2369054,6.82387217 C62.9849054,7.09787217 62.7479054,7.35787217 62.4809054,7.57387217 C62.4699054,7.58487217 62.4589054,7.59687217 62.4479054,7.60887217 C62.1729054,7.98987217 62.1099054,8.11487217 62.0589054,8.21487217 C62.0089054,8.31487217 61.9759054,8.37887217 61.6429054,8.77987217 C61.2649054,9.19487217 59.6399054,10.5038722 58.0509054,11.6508722 C55.6989054,13.3498722 54.8479054,13.6308722 54.7189054,13.5388722 C54.7089054,13.5058722 54.6369054,13.1608722 55.9809054,11.3798722 C56.1089054,11.2298722 56.2079054,11.0888722 56.2969054,10.9618722 C56.3699054,10.8588722 56.4339054,10.7658722 56.5199054,10.6678722 C56.6499054,10.4768722 56.7969054,10.2978722 56.9389054,10.1248722 C57.1649054,9.84687217 57.3799054,9.58487217 57.5169054,9.31387217 C57.5859054,9.20987217 57.6549054,9.10787217 57.7239054,9.00387217 C57.9649054,8.64687217 58.2149054,8.27887217 58.3759054,7.97987217 C58.5399054,7.78687217 58.6619054,7.59187217 58.7699054,7.42087217 C58.8609054,7.27687217 58.9389054,7.15187217 59.0269054,7.05087217 C59.0359054,7.03787217 59.0439054,7.02487217 59.0539054,7.01187217 C59.2669054,6.59187217 59.3899054,6.23887217 59.3439054,5.79187217 C59.3499054,5.33387217 59.2969054,4.67487217 58.7729054,4.20587217 C58.7679054,4.19387217 58.7639054,4.17987217 58.7579054,4.16587217 C58.7399054,4.11287217 58.7169054,4.04987217 58.6799054,3.97687217 C58.5889054,3.81887217 58.4939054,3.70187217 58.4009054,3.58787217 C58.3249054,3.52887217 58.2489054,3.46887217 58.1729054,3.40987217 C57.8639054,3.18387217 57.3449054,2.80687217 57.2519054,2.58387217 C57.2459054,2.56787217 57.2389054,2.55187217 57.2329054,2.53687217 C57.2199054,2.52687217 57.2069054,2.51687217 57.1939054,2.50687217 C57.1479054,2.47087217 57.0929054,2.42487217 57.0389054,2.37987217 C56.9809054,2.33287217 56.9219054,2.28387217 56.8719054,2.24587217 C56.8399054,2.22087217 56.8089054,2.19687217 56.7769054,2.17187217 C56.7449054,2.19587217 56.7119054,2.21787217 56.6799054,2.24187217 C56.4489054,2.40787217 56.3519054,2.51587217 56.2379054,2.64287217 C56.2269054,2.65587217 56.2149054,2.66887217 56.2029054,2.68187217 C55.8579054,3.07687217 55.6359054,3.39887217 55.3939054,3.79187217 C55.1309054,4.06187217 54.8779054,4.60787217 54.6349054,5.13487217 C54.4779054,5.47687217 54.3299054,5.79987217 54.1989054,6.00187217 C54.1889054,6.03287217 54.1789054,6.06187217 54.1679054,6.09087217 C54.1419054,6.32387217 53.9479054,6.70887217 53.7939054,7.01887217 C53.6899054,7.22587217 53.6029054,7.40387217 53.5579054,7.54287217 C53.4049054,8.08687217 53.2509054,8.46887217 53.1029054,8.83887217 C52.9299054,9.27187217 52.7669054,9.67887217 52.6469054,10.2848722 C52.6079054,10.8648722 52.5859054,10.9078722 52.5129054,11.0498722 C52.4689054,11.1338722 52.4099054,11.2498722 52.3329054,11.4618722 C52.1579054,11.8868722 52.5779054,12.8198722 53.3989054,14.3948722 C53.5239054,14.6348722 53.6219054,14.8238722 53.6659054,14.9268722 C53.8809054,15.3698722 54.9289054,16.1388722 55.3579054,16.2318722 C55.3709054,16.2348722 55.3829054,16.2378722 55.3949054,16.2398722 C55.4069054,16.2358722 55.4189054,16.2328722 55.4319054,16.2288722 C56.3889054,15.9338722 57.1449054,15.5248722 57.6469054,15.2548722 C57.7419054,15.2048722 57.8389054,15.1518722 57.9219054,15.1098722 C57.7549054,15.4098722 57.4189054,15.9368722 56.9789054,16.6328722 C56.7469054,17.0018722 56.5149054,17.3718722 56.2839054,17.7408722 C56.0039054,18.1658722 55.3249054,19.4118722 54.8169054,20.3728722 C54.6349054,20.6668722 54.2349054,21.0218722 54.0009054,21.1428722 C53.1809054,21.5488722 52.5609054,21.7898722 51.8439054,22.0698722 C51.7729054,22.0978722 51.7019054,22.1258722 51.6309054,22.1538722 C50.3639054,22.7498722 49.1899054,23.1358722 48.1219054,23.3038722 C48.0519054,23.3208722 47.9829054,23.3378722 47.9139054,23.3548722 C47.6479054,23.4198722 47.3459054,23.4948722 47.0749054,23.5888722 C46.6619054,23.6978722 46.3519054,24.2668722 46.3719054,24.6868722 C46.4989054,25.6158722 47.0489054,26.5278722 47.8759054,27.1938722 C48.6039054,27.7808722 49.4389054,28.0958722 50.2019054,28.0968722 C50.4269054,28.0968722 50.6469054,28.0688722 50.8559054,28.0128722 C50.9099054,28.0128722 50.9639054,28.0128722 51.0189054,28.0128722 C51.5109054,28.0118722 52.1859054,28.0138722 52.6439054,27.7468722 C53.3109054,27.3978722 53.8429054,27.0168722 54.5139054,26.3998722 C54.6679054,26.1768722 54.8589054,26.0028722 55.0449054,25.8338722 C55.1929054,25.7018722 55.3459054,25.5638722 55.4599054,25.4218722 C55.8519054,25.0688722 56.1069054,24.7288722 56.3019054,24.3028722 C56.5259054,23.9328722 56.7589054,23.5498722 57.0629054,23.1608722 C57.0799054,23.1348722 57.0969054,23.1088722 57.1139054,23.0828722 C57.5209054,22.4558722 57.9429054,21.8078722 58.2939054,21.0988722 C58.3879054,20.7978722 58.5819054,20.5658722 58.8469054,20.4278722 C58.9189054,20.3948722 58.9669054,20.3438722 59.0179054,20.2908722 C59.0429054,20.2638722 59.0719054,20.2338722 59.0879054,20.2148722 C59.1579054,20.1688722 59.6669054,19.9548722 60.1169054,19.7658722 C61.1999054,19.3128722 61.9839054,18.9858722 62.1529054,18.8448722 C62.1649054,18.8308722 62.1779054,18.8168722 62.1899054,18.8018722 C62.3069054,18.6188722 62.4909054,18.4618722 62.6079054,18.3608722 C62.7939054,18.2398722 63.0489054,17.9008722 63.3199054,17.5428722 C63.5079054,17.2958722 63.7019054,17.0418722 63.8149054,16.9468722 C64.1599054,16.6238722 64.3229054,16.4538722 64.5089054,16.2588722 C64.6429054,16.1208722 64.7879054,15.9688722 65.0129054,15.7488722 C65.2719054,15.5368722 65.4879054,15.2948722 65.6209054,15.0728722 C65.6529054,15.0348722 65.6859054,14.9968722 65.7179054,14.9588722 C65.8569054,14.7918722 66.0009054,14.6218722 66.1889054,14.4718722 C66.4189054,14.2628722 66.6039054,14.0738722 66.7999054,13.8728722 C66.8559054,13.8128722 66.9129054,13.7518722 66.9689054,13.6928722 C67.1319054,13.4318722 67.2589054,13.2658722 67.3909054,13.1388722 C67.4249054,13.1088722 67.4719054,13.0708722 67.5239054,13.0298722 C67.3879054,13.4038722 67.2939054,13.8118722 67.2209054,14.1888722 C67.1799054,14.2818722 67.1689054,14.3838722 67.1589054,14.4748722 C67.1539054,14.5158722 67.1489054,14.5588722 67.1419054,14.6008722 C67.1399054,14.6088722 67.1379054,14.6178722 67.1359054,14.6258722 C67.1379054,14.6588722 67.1389054,14.6898722 67.1409054,14.7218722 C67.1469054,14.8268722 67.1509054,14.9028722 67.1369054,14.9778722 C67.0169054,15.4168722 67.0269054,15.8928722 67.1599054,16.3378722 C67.3179054,17.0868722 67.6529054,17.6438722 68.1739054,18.0368722 C68.5219054,18.3388722 68.9399054,18.5418722 69.3439054,18.7188722 C69.6899054,18.8568722 70.1009054,18.8138722 70.3699054,18.6078722 C70.4729054,18.5288722 70.5649054,18.5068722 70.6929054,18.4758722 C70.7189054,18.4698722 70.7439054,18.4628722 70.7699054,18.4578722 C71.3939054,18.3598722 71.8629054,17.9678722 72.1629054,17.2948722 C72.2889054,17.0308722 72.4269054,16.8358722 72.5849054,16.6958722 C72.5599054,16.8278722 72.5509054,16.9598722 72.5469054,17.0738722 C72.4999054,17.4318722 72.4929054,17.7618722 72.4869054,18.0788722 C72.4739054,18.1978722 72.4769054,18.3198722 72.4789054,18.4388722 C72.4819054,18.5928722 72.4859054,18.7398722 72.4389054,18.8728722 C72.3899054,19.0868722 72.3519054,19.2568722 72.4699054,19.5188722 C72.4799054,19.5358722 72.4899054,19.5508722 72.4999054,19.5678722 C72.4999054,19.5698722 72.4989054,19.5708722 72.4999054,19.5738722 C72.5019054,19.5908722 72.5029054,19.6108722 72.5059054,19.6288722 C72.4809054,19.9968722 72.5509054,20.3248722 72.6189054,20.6428722 C72.6399054,20.7458722 72.6619054,20.8468722 72.6849054,20.9708722 C72.8429054,21.5108722 73.0439054,22.1278722 73.4489054,22.6308722 C73.7339054,23.2348722 73.8599054,23.3338722 74.1759054,23.5268722 C74.2599054,23.5778722 74.3599054,23.6388722 74.4859054,23.7278722 C74.8139054,23.9598722 75.0899054,24.0378722 75.3389054,24.0858722 C75.3589054,24.0898722 75.3799054,24.0938722 75.3989054,24.0978722 C75.4169054,24.0848722 75.4349054,24.0728722 75.4519054,24.0598722 C75.5169054,24.0138722 75.5659054,23.9538722 75.6019054,23.9088722 C75.6069054,23.9028722 75.6119054,23.8968722 75.6159054,23.8918722 C75.8459054,23.8328722 76.0559054,23.7498722 76.2599054,23.6678722 C76.4199054,23.6048722 76.5839054,23.5408722 76.7839054,23.4768722 C76.8529054,23.4438722 76.9269054,23.4108722 77.0019054,23.3768722 C77.2099054,23.2858722 77.4249054,23.1898722 77.5929054,23.0578722 C77.8989054,22.9298722 78.1569054,22.7228722 78.4099054,22.5218722 C78.5849054,22.3748722 78.7679054,22.1938722 78.9559054,22.0078722 C79.2129054,21.7418722 79.4149054,21.4868722 79.5989054,21.1918722 C79.6579054,21.0798722 79.7399054,20.9848722 79.8419054,20.9168722 C80.0099054,20.7848722 80.1599054,20.6478722 80.3229054,20.4988722 C80.3879054,20.4398722 80.4519054,20.3818722 80.5159054,20.3238722 C80.5159054,20.3238722 80.5159054,20.3228722 80.5159054,20.3218722 C80.5209054,20.3198722 80.5269054,20.3188722 80.5339054,20.3168722 C80.5579054,20.3108722 80.5819054,20.3038722 80.6059054,20.2968722 C80.6179054,20.2728722 80.6299054,20.2478722 80.6429054,20.2218722 C80.6779054,20.1488722 80.7089054,20.0838722 80.7349054,20.0248722 C80.8789054,19.7108722 80.9379054,19.5828722 81.5919054,19.0308722 C81.7689054,18.8938722 81.9459054,18.7568722 82.1229054,18.6208722 C82.0949054,18.5678722 82.0669054,18.5158722 82.0399054,18.4628722 C82.0269054,18.4388722 82.0149054,18.4168722 82.0039054,18.3968722 C82.0639054,18.3448722 82.1189054,18.2728722 82.1679054,18.1828722 C82.4239054,17.8618722 82.6739054,17.7028722 82.9639054,17.5178722 C83.1689054,17.3878722 83.3979054,17.2438722 83.6489054,17.0248722 C83.7449054,17.0648722 83.8309054,17.0658722 83.9119054,17.0328722 C84.0809054,16.9628722 84.1489054,16.7638722 84.2099054,16.5878722 C84.2569054,16.4528722 84.3059054,16.3118722 84.3789054,16.2858722 C84.3929054,16.2778722 84.4069054,16.2698722 84.4209054,16.2618722 C84.4839054,16.2148722 84.5819054,16.1398722 84.6619054,16.0348722 C84.4939054,17.1028722 84.8139054,17.9788722 85.6209054,18.6428722 C85.7559054,18.7508722 85.8849054,18.8548722 86.0069054,18.9948722 C86.3479054,19.3458722 86.8139054,19.5188722 87.4039054,19.5098722 C87.4609054,19.5048722 87.5179054,19.5018722 87.5739054,19.4998722 C87.8019054,19.4888722 88.0369054,19.4768722 88.2889054,19.2978722 C88.2939054,19.2998722 88.2999054,19.3018722 88.3059054,19.3028722 C88.3219054,19.2968722 88.3369054,19.2918722 88.3529054,19.2848722 C88.5179054,19.2198722 88.6229054,19.1878722 88.7879054,19.1508722 C88.9699054,19.0698722 89.1719054,19.0078722 89.4449054,18.9518722 C89.5809054,19.2648722 89.8119054,19.5068722 90.0019054,19.6848722 C90.0319054,19.7138722 90.0809054,19.7638722 90.1019054,19.8018722 C90.2909054,20.1118722 90.5609054,20.3018722 90.8209054,20.4858722 C90.8979054,20.5408722 90.9769054,20.5958722 91.0539054,20.6558722 C91.1759054,20.6968722 91.2979054,20.7368722 91.4199054,20.7778722 C91.5229054,20.7828722 91.6229054,20.7978722 91.7199054,20.8138722 C91.8829054,20.8368722 92.0519054,20.8658722 92.2189054,20.8468722 C92.3809054,20.8368722 92.5379054,20.8648722 92.7029054,20.8928722 C92.8119054,20.9128722 92.9249054,20.9308722 93.0529054,20.9428722 C93.3279054,20.9518722 93.5759054,20.9088722 93.8469054,20.7978722 C93.9489054,20.7478722 94.0599054,20.6998722 94.1729054,20.6498722 C94.3569054,20.5708722 94.5459054,20.4888722 94.7559054,20.3578722 C94.7729054,20.3408722 94.8259054,20.3338722 94.8859054,20.3248722 C95.0789054,20.2818722 95.2839054,20.2218722 95.5099054,20.0018722 C95.5359054,19.9698722 95.5989054,19.9438722 95.6559054,19.9198722 C95.6809054,19.9098722 95.7059054,19.8978722 95.7309054,19.8868722 C95.7919054,19.8568722 95.8489054,19.8188722 95.9059054,19.7858722 C95.9079054,20.3378722 96.0489054,21.1748722 96.2709054,22.2868722 C96.3249054,22.5578722 96.3669054,22.7698722 96.3809054,22.8828722 C96.4669054,23.3788722 97.2519054,24.4648722 97.6309054,24.6968722 C97.6419054,24.7038722 97.6529054,24.7098722 97.6639054,24.7168722 C97.6759054,24.7168722 97.6889054,24.7178722 97.7009054,24.7178722 C98.6799054,24.7538722 99.4999054,24.6148722 100.042905,24.5238722 C100.146905,24.5058722 100.251905,24.4888722 100.341905,24.4758722 C100.104905,24.7068722 99.6479054,25.1008722 99.0499054,25.6228722 C98.7349054,25.8978722 98.4199054,26.1728722 98.1059054,26.4508722 C97.8099054,26.6988722 97.1059054,27.3818722 96.0369054,28.4828722 C95.7889054,28.7048722 95.3189054,28.9128722 95.0669054,28.9498722 C94.2019054,29.0628722 93.5639054,29.0868722 92.8259054,29.1168722 C92.7409054,29.1198722 92.6549054,29.1238722 92.5699054,29.1268722 C91.2209054,29.2748722 90.0109054,29.2508722 88.9589054,29.0558722 C88.8869054,29.0488722 88.8139054,29.0418722 88.7419054,29.0358722 C88.4759054,29.0088722 88.1739054,28.9798722 87.8949054,28.9788722 C87.4779054,28.9458722 87.0369054,29.3878722 86.9469054,29.7958722 C86.8279054,30.7288722 87.1159054,31.7878722 87.7279054,32.7038722 C88.4259054,33.7498722 89.4199054,34.4188722 90.3329054,34.4868722 C90.3829054,34.5038722 90.4329054,34.5218722 90.4829054,34.5398722 C90.7859054,34.6468722 91.1609054,34.7808722 91.5239054,34.8328722 C91.7199054,34.8608722 91.9129054,34.8658722 92.0879054,34.8298722 C92.8049054,34.7178722 93.4049054,34.5308722 94.1959054,34.1618722 C94.3969054,33.9998722 94.6229054,33.8968722 94.8419054,33.7968722 C95.0149054,33.7188722 95.1939054,33.6378722 95.3369054,33.5408722 C95.7969054,33.3328722 96.1249054,33.0908722 96.4179054,32.7478722 C96.7239054,32.4678722 97.0409054,32.1778722 97.4289054,31.9058722 C97.4439054,31.8928722 97.4599054,31.8798722 97.4749054,31.8668722 C98.0259054,31.3948722 98.5989054,30.9098722 99.1199054,30.3378722 C99.2859054,30.0828722 99.5289054,29.9228722 99.8149054,29.8788722 C99.8909054,29.8728722 99.9489054,29.8398722 100.010905,29.8048722 C100.040905,29.7888722 100.075905,29.7678722 100.097905,29.7558722 C100.174905,29.7358722 100.710905,29.6988722 101.184905,29.6678722 C102.319905,29.5938722 103.140905,29.5418722 103.335905,29.4628722 C103.350905,29.4548722 103.365905,29.4448722 103.381905,29.4348722 C103.539905,29.2978722 103.752905,29.2088722 103.889905,29.1508722 C104.095905,29.0958722 104.424905,28.8568722 104.772905,28.6038722 C105.013905,28.4298722 105.263905,28.2498722 105.394905,28.1968722 C105.805905,28.0008722 106.003905,27.8918722 106.230905,27.7668722 C106.390905,27.6778722 106.566905,27.5818722 106.832905,27.4458722 C107.131905,27.3298722 107.399905,27.1688722 107.583905,26.9998722 C107.623905,26.9738722 107.664905,26.9478722 107.705905,26.9218722 C107.879905,26.8098722 108.059905,26.6948722 108.274905,26.6138722 C108.544905,26.4928722 108.767905,26.3728722 109.003905,26.2448722 C109.073905,26.2058722 109.144905,26.1668722 109.213905,26.1268722 C109.435905,25.9308722 109.598905,25.8138722 109.756905,25.7368722 C109.828905,25.7038722 109.939905,25.6658722 110.063905,25.6238722 C110.476905,25.4828722 110.778905,25.3708722 110.880905,25.2198722 C110.961905,25.1378722 111.281905,24.9658722 111.833905,24.7108722 C111.855905,24.7008722 111.877905,24.6898722 111.899905,24.6798722 C112.260905,24.4648722 112.235905,24.2218722 112.162905,24.0128722 C112.126905,23.9098722 112.119905,23.8898722 112.203905,23.7838722 L112.203905,23.7838722 Z" id="Fill-207" fill="#272525"></path>
            </g>
        </g>
    </g>
</svg>