<?xml version="1.0" encoding="UTF-8"?>
<svg width="103px" height="64px" viewBox="0 0 103 64" version="1.1" xmlns="http://www.w3.org/2000/svg" xmlns:xlink="http://www.w3.org/1999/xlink">
    <title>Group 6</title>
    <g id="Page-1" stroke="none" stroke-width="1" fill="none" fill-rule="evenodd">
        <g id="59924" transform="translate(-51.000000, -49.000000)">
            <g id="Group-6" transform="translate(51.945421, 49.727000)">
                <path d="M77.0125789,50.607 C74.8945789,50.616 72.7805789,51.861 71.1825789,49.397 C70.6515789,49.399 71.6965789,44.453 71.1575789,41.981 C70.6245789,41.983 69.5595789,41.987 69.0265789,41.989 C68.4755789,38.288 69.5265789,34.579 68.9745789,30.873 C68.9585789,30.769 68.9375789,30.687 68.9195789,30.593 L77.0125789,30.457 C74.3055789,30.457 71.5985789,30.454 68.8925789,30.452 C68.2405789,27.385 66.2635789,29.547 65.7355789,27.181 C64.1035789,24.719 66.7855789,23.473 68.4015789,23.466 C67.8515789,20.997 69.4785789,23.462 69.4675789,20.991 C69.4445789,16.05 69.4285789,11.106 67.2355789,7.411 C66.6845789,6.176 67.2065789,2.469 67.1935789,0 C60.6545789,0.029 53.5285789,0.046 47.1005789,5.032 C41.7855789,8.819 35.1815789,3.604 29.9295789,7.764 C29.1355789,8.394 28.0415789,7.483 27.0275789,7.189 C26.5065789,7.042 26.0905789,7.051 25.6475789,7.483 C25.2095789,7.916 24.8135789,8.773 24.5475789,10.324 L26.2435789,10.291 C24.7525789,14.029 22.7245789,10.342 20.4255789,11.74 C20.6045789,14.207 20.6785789,15.437 20.0475789,16.729 C21.5315789,16.596 23.4935789,15.288 24.6885789,16.502 L24.7735789,20.203 C24.2115789,20.836 23.4665789,20.547 22.6645789,20.274 C21.8685789,20 20.9995789,19.745 20.3615789,20.418 C20.4665789,21.651 20.6765789,24.114 20.7815789,25.345 C20.8815789,26.575 20.2855789,26.625 19.6735789,26.697 C20.2895789,26.619 21.4895789,26.519 22.0705789,26.489 C22.1365789,27.607 22.2635789,29.733 22.3415789,31.039 C21.1145789,31.112 19.9015789,31.228 18.7215789,31.436 L22.3615789,31.375 C22.3625789,31.388 22.3635789,31.406 22.3645789,31.42 C22.4355789,32.657 21.9215789,32.687 21.4095789,32.73 C21.5975789,35.192 21.3975789,37.692 21.9325789,38.883 C22.3585789,38.848 22.7995789,38.818 23.2595789,38.796 C22.3645789,39.46 21.8975789,41.365 21.8165789,43.549 C21.7265789,45.734 21.9835789,48.194 22.2265789,50.031 C22.2735789,48.779 22.6945789,52.462 22.7515789,51.212 C22.6805789,52.152 22.7135789,53.159 22.7695789,54.165 C22.8215789,55.17 22.9235789,56.172 23.0485789,57.089 C23.1295789,57.545 23.1435789,57.992 23.1895789,58.405 C23.2405789,58.817 23.3235789,59.195 23.4425789,59.527 C23.4995789,59.834 23.5815789,60.269 23.7265789,61.044 C23.5945789,61.51 24.8145789,61.746 27.3015789,61.933 C29.7265789,62.108 32.0315789,62.177 34.4065789,62.15 C39.1245789,62.098 43.8525789,61.679 48.5785789,61.067 C57.9115789,59.945 67.2465789,58.061 76.4865789,56.787 C77.5425789,55.546 77.0165789,53.08 77.0125789,50.607" id="Fill-4" fill="#ECEEF1"></path>
                <path d="M11.7905789,30.199 C11.9585789,30.311 12.1265789,30.423 12.2945789,30.479 C13.5805789,31.15 14.5885789,32.046 15.6515789,32.94 C17.1615789,34.283 18.2245789,36.017 18.7835789,38.143 C19.1195789,39.598 18.8955789,41.22 17.9455789,42.898 C17.6645789,43.458 17.3295789,44.073 16.8815789,44.577 C16.7145789,44.8 16.4345789,45.136 16.1545789,45.36 C15.0915789,46.367 13.9165789,47.038 12.6305789,47.542 C12.0145789,47.877 11.3435789,47.934 10.7275789,47.877 C10.2245789,47.877 9.77757891,47.934 9.27357891,48.213 C8.82557891,48.437 8.43457891,48.548 7.93057891,48.717 C6.75657891,48.996 5.74857891,49.052 4.74157891,48.884 C3.23157891,48.66 1.77757891,48.213 0.825578912,47.206 C-0.013421088,46.311 -0.237421088,45.136 0.266578912,43.57 C0.657578912,42.619 1.16157891,41.668 1.88957891,40.716 C2.50457891,39.821 3.23157891,38.926 4.12657891,38.143 C4.29457891,38.031 4.40657891,37.808 4.51857891,37.639 C4.96557891,36.8 5.18957891,36.632 6.02857891,36.745 C6.36457891,36.632 6.58857891,36.129 7.03557891,36.297 C6.81257891,36.409 6.64357891,36.521 6.30857891,36.689 C6.58857891,36.745 6.75657891,36.8 6.86857891,36.8 C6.86857891,37.08 6.86857891,37.304 6.92357891,37.584 C6.97957891,37.752 6.92357891,37.919 6.75657891,38.143 C6.42057891,38.591 6.14057891,39.038 5.74857891,39.542 C5.18957891,40.269 4.79857891,40.94 4.68657891,41.78 C4.57457891,42.283 4.57457891,42.731 4.51857891,43.29 C4.46257891,43.682 4.62957891,43.962 5.02157891,44.073 C5.46957891,44.241 6.02857891,44.296 6.58857891,44.185 C7.59457891,44.017 8.65757891,43.793 9.66557891,43.346 C10.6725789,42.898 11.7355789,42.506 12.7415789,42.003 C13.4695789,41.668 14.2525789,41.22 14.9235789,40.605 C15.4275789,40.213 15.5945789,39.766 15.4275789,39.43 C15.0355789,38.143 14.5315789,37.025 13.4695789,36.185 C11.7355789,34.786 9.72057891,33.555 7.70757891,32.381 C6.47657891,31.654 5.35757891,30.871 4.29457891,29.975 C3.06357891,29.025 2.16857891,27.794 1.49757891,26.507 C0.210578912,24.381 1.38557891,21.472 3.17557891,19.29 C4.79857891,17.276 6.97957891,15.934 9.21757891,14.703 C9.88957891,14.423 10.5605789,14.255 11.1755789,13.976 C14.5885789,12.745 17.7765789,12.633 20.8535789,12.856 C21.8045789,12.968 22.7005789,13.137 23.6515789,13.248 C24.6575789,13.36 25.6095789,13.584 26.3365789,14.144 C26.6155789,14.367 26.7835789,14.591 26.6155789,15.038 C26.5605789,15.15 26.5605789,15.318 26.5605789,15.43 C26.5045789,15.71 26.5045789,15.989 26.3925789,16.269 C25.9445789,17.22 25.6095789,18.171 25.5535789,19.122 C25.4975789,19.514 25.2175789,20.073 24.9375789,20.521 C24.7145789,20.968 24.3785789,21.304 24.1545789,21.696 C23.9305789,22.088 23.6515789,22.367 23.2595789,22.591 C22.6435789,22.871 22.1405789,23.15 21.5255789,23.318 C21.1895789,23.486 20.8535789,23.486 20.6305789,23.318 C19.7905789,22.983 18.8955789,22.814 18.0005789,22.703 C16.2105789,22.479 14.4205789,22.199 12.4625789,22.255 C11.9025789,22.311 11.2875789,22.367 10.7275789,22.535 C10.0565789,22.647 9.44157891,22.814 8.82557891,22.926 C4.79857891,23.934 7.14757891,26.842 9.16157891,28.297 C10.0565789,28.856 10.9515789,29.528 11.7905789,30.199" id="Fill-5" fill="#000000"></path>
                <path d="M31.6505789,36.632 C31.5945789,36.577 31.4265789,36.577 31.3705789,36.745 C31.3145789,36.745 31.3145789,36.8 31.3145789,36.856 C31.0905789,37.416 30.8115789,37.752 30.3075789,37.639 C30.0285789,37.919 29.9155789,38.199 29.6925789,38.422 C29.4685789,38.535 29.1885789,38.759 29.1325789,39.15 C29.1325789,39.262 29.0765789,39.318 29.0205789,39.43 C28.7405789,39.821 28.4615789,40.101 28.2375789,40.437 C28.0135789,40.997 27.6225789,41.332 27.2305789,41.668 C27.0625789,41.891 26.7825789,42.06 26.6155789,42.451 C26.6155789,42.506 26.5035789,42.674 26.3355789,42.674 C26.0555789,42.731 25.7765789,42.954 25.4965789,43.178 C24.8805789,43.514 24.2655789,43.793 23.5945789,43.85 C22.9785789,43.85 22.4195789,43.793 21.8605789,43.514 C20.9655789,43.01 20.6295789,42.06 20.5175789,40.829 C20.5175789,40.549 20.5175789,40.269 20.6295789,39.989 C20.7405789,38.255 21.0765789,36.521 21.5245789,34.786 C21.8035789,33.836 22.1395789,32.996 22.4755789,32.157 C23.2025789,30.647 23.8185789,29.025 24.5455789,27.514 C24.5455789,27.346 24.6015789,27.29 24.6575789,27.122 C24.9925789,25.836 25.6635789,24.605 26.3355789,23.43 C26.5595789,23.094 26.6715789,22.758 26.8945789,22.311 C27.1745789,22.255 27.4545789,22.255 27.6775789,22.479 C28.2935789,22.871 28.9085789,23.318 29.5805789,23.71 C29.6925789,23.766 29.8605789,23.877 29.8605789,23.989 C30.2515789,24.828 30.7555789,25.611 30.9785789,26.563 C31.0905789,27.122 31.1465789,27.626 31.2585789,28.185 C31.3705789,28.801 31.3145789,29.472 31.0345789,30.031 C30.8115789,30.479 30.6995789,30.982 30.4755789,31.43 C30.4195789,31.71 30.3075789,31.989 30.2515789,32.269 C29.9155789,33.388 29.5805789,34.506 29.0765789,35.626 C29.0765789,35.626 29.0205789,35.682 29.0205789,35.737 C29.0205789,35.737 29.0205789,35.794 28.9085789,35.906 C28.8525789,36.297 28.7405789,36.745 28.5175789,37.192 C28.6295789,37.136 28.7405789,37.136 28.7975789,37.08 C29.3565789,36.465 29.9715789,35.737 30.5315789,35.066 C31.5375789,33.947 32.4335789,32.829 33.3845789,31.71 C33.7765789,31.262 34.1115789,30.926 34.4475789,30.423 C35.5105789,28.968 36.6855789,27.681 37.8605789,26.395 C38.0835789,26.171 38.3075789,26.003 38.4755789,25.947 C38.9785789,25.724 39.4825789,25.668 39.8735789,25.724 C40.0975789,25.836 40.2655789,25.891 40.3775789,26.003 C40.8245789,26.451 41.2165789,26.955 41.6645789,27.346 C41.9445789,27.57 42.1115789,27.905 42.2795789,28.353 C42.3915789,28.745 42.5035789,29.08 42.5595789,29.528 C42.6715789,30.088 42.6715789,30.647 42.5035789,31.262 C42.1115789,32.548 41.7755789,33.724 41.2725789,34.898 C41.1605789,35.402 40.9365789,35.906 40.8245789,36.521 C40.9935789,36.465 41.1605789,36.353 41.2165789,36.297 C42.3355789,35.682 43.3425789,34.786 44.2935789,33.779 C45.1885789,32.94 46.1395789,32.157 47.1465789,31.598 C47.3145789,31.542 47.4265789,31.43 47.5945789,31.262 C47.9295789,30.982 48.2095789,31.039 48.4335789,31.262 C48.7135789,31.485 48.8255789,31.877 49.2165789,32.046 C49.4965789,32.157 49.6635789,32.437 49.8875789,32.716 C49.8325789,33.22 49.8325789,33.668 49.8875789,34.115 C49.8875789,34.506 49.7765789,34.898 49.6085789,35.346 C49.2725789,35.514 49.4965789,35.961 49.2725789,36.241 C49.2165789,36.913 49.1045789,37.584 48.9925789,38.199 C48.9365789,38.815 48.9365789,39.374 48.9925789,39.989 C48.9925789,40.381 49.1045789,40.549 49.3845789,40.66 C50.2235789,40.829 53.1325789,38.759 53.6925789,38.031 C54.6995789,36.913 55.5375789,35.626 56.3215789,34.283 C56.3775789,34.003 56.4895789,33.724 56.6575789,33.555 C56.7685789,33.724 56.8255789,33.724 56.7685789,33.779 C56.6005789,34.619 56.8815789,34.115 56.7685789,35.066 C56.7685789,34.842 56.4895789,36.017 56.3215789,35.906 C56.2095789,35.906 56.2095789,36.073 56.0975789,36.185 C55.7625789,36.8 55.4265789,37.36 55.1465789,38.031 C55.1465789,38.255 54.9785789,38.422 54.9225789,38.535 C54.4195789,38.87 54.0835789,39.262 53.6925789,39.653 C53.6925789,39.821 53.5245789,39.877 53.4125789,39.933 C53.1325789,40.549 50.7835789,42.227 50.1675789,42.227 C49.8875789,42.227 48.5455789,42.115 48.2655789,41.891 C47.7065789,41.388 46.8105789,40.773 46.4755789,39.989 C46.1955789,39.318 46.1955789,38.479 46.4195789,37.639 C46.6995789,36.241 47.0345789,34.898 47.5385789,33.555 C47.5945789,33.388 47.6505789,33.164 47.6505789,32.996 C47.7065789,32.884 47.6505789,32.829 47.6505789,32.661 C47.3145789,32.716 47.0905789,33.108 46.8105789,33.164 C46.5315789,33.276 46.2515789,33.388 46.0275789,33.555 C45.9725789,34.115 45.9725789,34.115 45.6365789,34.619 C45.4125789,34.842 45.3005789,35.123 45.0765789,35.402 C44.7975789,35.234 44.5175789,35.402 44.2375789,35.626 C43.7895789,36.017 43.3985789,36.353 42.8945789,36.745 C42.7825789,36.856 42.6145789,36.913 42.5035789,37.136 C41.9995789,37.752 41.3845789,38.199 40.7135789,38.703 C40.6575789,38.815 40.5455789,38.815 40.4335789,38.983 C40.0975789,39.653 39.4265789,39.989 38.9225789,40.549 C38.7555789,40.773 38.5875789,40.997 38.3635789,41.22 C37.4685789,41.947 36.4615789,42.227 35.5105789,42.115 C35.0625789,42.06 34.6715789,41.78 34.3355789,41.388 C33.9435789,40.997 33.7765789,40.493 33.8315789,39.709 C33.8315789,39.094 33.9435789,38.535 34.1675789,37.919 C35.0625789,35.123 36.4055789,32.661 38.0275789,30.311 C38.4195789,29.584 38.9225789,28.912 39.3145789,28.129 C39.5385789,27.905 39.7055789,27.626 39.5945789,27.29 C39.4265789,27.122 39.2025789,27.122 38.9785789,27.346 C38.8675789,27.514 38.6995789,27.626 38.4755789,27.794 C37.9155789,28.353 37.3565789,28.912 36.7975789,29.36 C36.4615789,29.752 36.1815789,30.088 35.9575789,30.591 C35.6785789,31.262 35.3425789,31.822 34.8945789,32.325 C34.3915789,32.829 33.9435789,33.276 33.6085789,33.836 C33.2725789,34.283 33.0485789,34.786 32.7685789,35.234 C32.6565789,35.514 32.4335789,35.906 32.2655789,36.185 C32.1535789,36.353 31.9855789,36.577 31.8735789,36.745 C31.8185789,36.745 31.7065789,36.632 31.6505789,36.632" id="Fill-6" fill="#000000"></path>
                <path d="M61.6905789,23.094 C61.5785789,23.262 61.4675789,23.374 61.4115789,23.597 C61.4115789,23.654 61.4115789,23.766 61.2995789,23.877 C61.1315789,24.045 60.9635789,24.269 60.7405789,24.548 C60.6285789,24.717 60.1805789,24.941 59.9005789,24.996 C59.7885789,24.941 59.6205789,25.052 59.5095789,25.165 C59.1735789,25.388 58.9505789,25.332 58.7255789,25.22 C58.5575789,25.108 58.4465789,25.108 58.2785789,25.108 C58.0545789,25.108 57.8865789,25.108 57.6625789,25.052 C57.7195789,24.996 57.7745789,24.885 57.8305789,24.828 C57.8305789,24.661 57.9425789,24.493 57.9985789,24.269 C58.1105789,23.989 58.2225789,23.821 58.3905789,23.542 C58.3905789,23.43 58.5575789,23.318 58.5575789,23.262 C58.5575789,22.926 58.8375789,22.647 59.0055789,22.311 C59.1175789,22.143 59.2295789,21.975 59.3415789,21.807 C59.4535789,21.696 59.5645789,21.584 59.6775789,21.584 C59.7885789,21.527 59.9005789,21.527 59.9565789,21.584 C59.9565789,21.696 60.0685789,21.696 60.1805789,21.64 C60.2925789,21.584 60.3475789,21.527 60.4045789,21.584 C60.6285789,21.696 60.9075789,21.752 61.1315789,21.807 C61.5235789,21.975 61.8035789,22.255 62.0265789,22.647 C61.8585789,22.814 61.8035789,22.983 61.6905789,23.094 Z M56.5445789,29.192 C56.5445789,29.192 56.5445789,29.192 56.5995789,29.136 C56.7675789,28.912 56.8795789,28.856 57.0475789,28.745 C57.6625789,28.632 59.0615789,27.626 59.6205789,27.961 C59.7885789,28.185 60.3475789,28.465 60.5725789,28.689 C60.7955789,28.968 60.8515789,29.36 60.6835789,29.919 C60.3475789,30.647 59.9565789,31.318 59.5095789,32.213 C59.3975789,32.548 59.2855789,32.829 59.2295789,33.052 C59.0055789,33.555 58.7815789,34.227 58.5025789,34.731 C58.2785789,35.402 59.2855789,33.276 59.1735789,33.836 C59.1735789,34.003 59.0615789,34.171 59.0055789,34.283 C58.5575789,35.402 58.5575789,35.178 58.5025789,36.185 C58.5025789,36.745 58.2785789,39.598 58.3345789,40.101 C58.3905789,40.493 58.6145789,40.716 58.7815789,40.94 C59.0055789,41.052 59.2855789,41.276 59.6205789,41.388 C59.9005789,41.612 60.1805789,41.5 60.5155789,41.443 C65.1595789,39.766 63.4815789,39.15 66.1665789,36.297 C66.6695789,35.569 67.2855789,34.898 67.5655789,34.003 C67.5655789,33.947 67.5655789,33.947 67.7325789,33.668 C68.0125789,34.227 67.3975789,35.01 68.1805789,35.178 C67.0055789,37.304 66.1665789,40.381 64.2645789,41.5 C63.7045789,42.227 59.9005789,45.584 57.4395789,44.633 C56.6565789,44.913 55.9285789,44.129 55.0895789,43.793 C54.5305789,43.57 53.9705789,43.122 53.4675789,42.563 C53.1875789,41.836 52.9075789,41.052 52.9075789,40.325 C52.7955789,39.989 52.7955789,39.598 52.7955789,39.318 C52.9635789,38.647 52.8515789,37.36 53.0755789,36.913 C53.1315789,36.632 53.2435789,36.353 53.2435789,36.017 C53.3555789,35.961 53.2435789,35.682 53.6355789,35.626 C53.6905789,35.626 53.7465789,35.402 53.8025789,35.346 C54.0825789,34.955 54.1385789,34.619 54.4185789,34.227 C54.4185789,34.227 53.2435789,35.402 53.9145789,34.283 C54.3625789,33.164 55.3695789,31.933 55.7045789,31.15 C55.7045789,31.039 55.8165789,30.871 55.8165789,30.871 C55.9845789,30.535 56.1525789,30.311 56.0405789,29.919 C55.9845789,29.695 56.0405789,29.472 56.2085789,29.136 C56.3205789,29.192 56.3765789,29.248 56.5445789,29.192 L56.5445789,29.192 Z" id="Fill-7" fill="#000000"></path>
                <path d="M74.2775789,26.507 C76.0675789,23.654 76.3475789,23.206 77.9705789,20.129 C78.5855789,18.954 79.0885789,17.78 79.7045789,16.605 C79.9835789,15.766 80.1515789,14.927 80.2635789,14.087 C80.3755789,13.808 80.3755789,13.64 80.0955789,13.752 C79.8155789,13.808 79.6485789,13.919 79.4805789,14.031 C78.7525789,14.311 78.0815789,14.87 77.5785789,15.653 C77.1865789,16.101 76.9075789,16.605 76.4595789,17.052 C75.9555789,17.668 75.6765789,18.283 75.4525789,19.011 C75.1725789,19.57 74.8925789,20.241 74.6135789,20.801 C74.2215789,21.975 73.6615789,23.15 73.1025789,24.325 C72.8785789,24.885 72.7115789,25.5 72.4875789,26.059 C71.8165789,27.961 72.0955789,27.01 71.4805789,28.912 C71.3125789,29.36 71.4245789,30.647 72.1515789,29.863 C72.9915789,28.632 73.5505789,27.794 74.2775789,26.507 Z M83.2285789,36.577 C82.9495789,37.136 81.9975789,38.367 81.9975789,38.983 C81.9415789,39.038 81.7745789,39.206 81.6615789,39.262 C81.4945789,39.43 81.3265789,39.653 81.2145789,39.933 C81.1025789,40.213 80.9345789,40.325 80.8235789,40.549 C80.0395789,41.947 79.5355789,42.731 78.2495789,43.962 C77.9135789,44.241 74.9485789,47.094 74.7255789,47.374 C73.1025789,48.717 70.9205789,48.101 69.2985789,48.157 C68.8505789,48.157 68.4035789,48.101 68.1235789,47.934 C67.6195789,47.654 66.5015789,47.206 66.1655789,46.703 C65.6625789,45.472 64.3755789,44.633 64.2635789,42.898 C64.2075789,42.451 63.9835789,42.171 63.9285789,41.723 C63.9835789,39.933 64.2635789,38.143 64.4875789,36.297 C64.8235789,35.01 65.1025789,33.612 65.3265789,32.325 C65.8855789,29.919 66.0545789,29.64 67.1165789,27.458 C67.6765789,26.003 68.1795789,25.891 68.7395789,24.437 C69.1305789,23.654 69.5775789,22.871 70.0255789,22.199 C70.3615789,21.36 70.9205789,20.577 71.4245789,19.737 C72.4875789,17.891 73.6615789,16.269 74.8925789,14.927 C75.7315789,14.087 76.6275789,13.192 77.4665789,12.465 C77.9705789,12.073 78.4735789,11.626 78.9765789,11.458 C79.1445789,11.346 79.3125789,11.29 79.4805789,11.234 C80.2635789,11.178 80.9915789,11.29 81.5505789,11.85 C82.1095789,12.354 82.2775789,13.137 82.1095789,14.199 C81.9975789,14.87 81.9415789,15.542 81.7745789,16.157 C81.7185789,16.66 81.4945789,17.108 81.2145789,17.668 C80.8235789,18.619 80.3755789,19.514 79.7605789,20.409 C79.3685789,21.136 78.9205789,21.864 78.5295789,22.591 C77.8575789,23.597 77.2985789,24.661 76.6275789,25.611 C75.4525789,27.178 74.4455789,28.856 73.3825789,30.423 C71.6475789,33.388 71.8165789,33.892 71.2005789,36.856 C70.9765789,38.031 71.0885789,38.703 71.0335789,39.877 C71.0885789,40.213 71.2565789,42.395 71.3125789,42.619 C71.4805789,43.402 71.6475789,43.682 71.9835789,44.409 C72.0955789,44.633 72.8785789,44.8 73.1585789,44.913 C73.5505789,45.192 76.5155789,43.178 76.9075789,42.898 C77.8025789,42.395 78.5295789,41.556 79.3125789,40.773 C80.1515789,39.989 80.5435789,39.094 81.2705789,38.031 C82.2775789,36.689 82.6135789,35.569 83.6765789,34.115 C84.4595789,34.003 84.0115789,35.178 83.2285789,36.577 L83.2285789,36.577 Z" id="Fill-8" fill="#000000"></path>
                <path d="M87.7585789,31.039 C87.6465789,31.206 87.4795789,31.43 87.3665789,31.654 C87.1435789,32.046 87.1995789,32.325 87.4795789,32.493 C87.6465789,32.605 87.8705789,32.716 87.9825789,32.884 C88.3185789,33.276 88.7655789,33.22 89.2135789,33.164 C89.6055789,33.052 89.8855789,32.661 90.1085789,32.269 C90.5005789,31.318 90.7235789,31.15 91.0595789,30.199 C91.9545789,28.073 90.1645789,28.577 89.3255789,29.248 C88.7105789,29.695 88.2625789,30.423 87.7585789,31.039 Z M84.6815789,36.913 C84.6815789,36.968 84.6815789,36.968 84.6815789,37.025 C84.6815789,36.968 84.6815789,36.968 84.6815789,36.913 Z M80.7095789,35.514 C80.4305789,36.409 80.4865789,37.248 80.5975789,38.087 C80.5975789,38.143 80.6545789,38.143 80.7095789,38.199 C80.7655789,37.584 80.8225789,37.025 80.8775789,36.465 C80.9335789,36.073 80.9895789,35.682 80.8225789,35.346 C80.7655789,35.402 80.7095789,35.458 80.7095789,35.514 Z M80.7095789,39.094 C80.7655789,39.262 80.8225789,39.374 80.8775789,39.542 C80.8775789,39.709 81.0455789,39.821 80.9335789,40.045 C80.8775789,39.989 80.8225789,39.989 80.8225789,39.933 C80.5425789,39.374 80.4305789,38.647 80.3185789,37.919 C80.2625789,37.863 80.3185789,37.808 80.3185789,37.752 C80.3185789,36.913 80.3185789,36.129 80.5425789,35.29 C80.5975789,35.123 80.6545789,34.955 80.6545789,34.786 C80.6545789,34.675 80.6545789,34.619 80.6545789,34.395 C80.4865789,34.731 80.3745789,34.955 80.3185789,35.178 C80.2625789,35.458 80.2065789,35.682 80.1505789,35.961 C79.9265789,37.416 79.9825789,38.759 80.5975789,39.933 C80.7095789,40.157 80.8775789,40.325 81.0455789,40.549 C81.1575789,40.66 81.2695789,40.716 81.4375789,40.773 C81.4375789,40.829 81.4925789,40.773 81.6045789,40.773 C81.4375789,40.493 81.2695789,40.269 81.1575789,39.989 C80.9895789,39.653 80.9895789,39.318 80.8225789,39.038 C80.7655789,39.038 80.7095789,39.094 80.7095789,39.094 Z M86.0245789,34.059 C86.0245789,34.171 85.9125789,34.283 85.8015789,34.338 C85.7445789,34.395 85.6335789,34.451 85.6335789,34.619 C85.5765789,34.842 85.5215789,34.898 85.3535789,34.955 C85.2415789,35.01 85.2415789,35.066 85.1855789,35.402 C85.2975789,35.402 85.3535789,35.402 85.4095789,35.458 C85.4095789,35.458 85.4095789,35.458 85.4095789,35.514 C85.2975789,35.514 85.1855789,35.514 85.0175789,35.514 C85.0735789,35.346 85.0735789,35.178 85.0735789,35.066 C85.0175789,35.066 84.9615789,35.066 84.9615789,35.066 C84.9065789,35.458 84.8495789,35.849 84.7935789,36.241 C84.9065789,36.297 84.9615789,36.353 85.0175789,36.353 C85.0735789,36.745 85.0735789,37.08 85.0735789,37.472 C85.0735789,37.863 85.1855789,38.199 85.2975789,38.479 C85.4655789,38.703 85.9125789,39.933 86.0805789,40.157 C86.8635789,40.94 87.8145789,41.947 88.7105789,42.003 C88.9895789,42.06 90.6125789,41.78 90.8915789,41.723 C92.2345789,41.332 93.5205789,40.605 94.7515789,39.653 C95.7025789,38.926 96.5975789,38.087 97.5495789,37.304 C97.6045789,37.248 97.6605789,37.192 97.7165789,37.136 C98.0525789,36.745 98.3875789,36.409 98.7235789,36.017 C99.3395789,35.402 99.8985789,34.786 100.402579,34.059 C100.570579,33.779 100.738579,33.5 101.073579,33.388 C100.961579,33.892 100.849579,34.338 100.626579,34.786 C100.570579,34.955 100.458579,35.123 100.346579,35.234 C100.010579,35.626 99.7305789,35.961 99.5075789,36.409 C99.3395789,36.632 99.1155789,36.856 98.9475789,37.08 C98.8915789,37.136 98.8355789,37.248 98.7235789,37.416 C98.8915789,37.36 99.0035789,37.304 99.1715789,37.248 C99.1155789,37.584 98.8355789,37.639 98.7795789,37.919 C98.8355789,37.976 98.8355789,38.031 98.9475789,38.087 C98.7795789,38.367 98.6125789,38.535 98.3875789,38.759 C98.0525789,39.038 97.7165789,39.374 97.4375789,39.709 C96.9335789,40.269 96.3745789,40.716 95.8145789,41.164 C95.5345789,41.388 95.3115789,41.612 95.0315789,41.78 C94.8075789,41.947 94.5845789,42.06 94.3605789,42.227 C94.0245789,42.395 93.6895789,42.563 93.3535789,42.787 C92.7935789,43.122 92.1785789,43.402 91.5635789,43.514 C91.3955789,43.57 91.2275789,43.626 91.0595789,43.682 C90.3885789,43.905 89.7175789,44.017 89.0455789,44.073 C88.2625789,44.185 84.9615789,43.57 84.2345789,43.29 C82.2765789,42.506 81.8845789,41.556 80.9895789,40.773 C80.6545789,40.493 80.3745789,40.045 80.2065789,39.598 C79.9265789,38.87 79.8705789,38.087 79.8145789,37.248 C79.8145789,35.514 80.2625789,33.836 80.9895789,32.269 C81.1575789,31.933 81.1575789,31.933 81.1015789,31.43 C80.8225789,31.598 80.6545789,31.71 80.5425789,32.046 C80.3745789,32.548 80.1505789,32.996 79.8705789,33.5 C79.8705789,32.996 80.0945789,32.661 80.2625789,32.269 C80.7095789,31.262 81.2135789,30.311 81.8285789,29.416 C82.4445789,28.465 83.1155789,27.626 83.8985789,26.842 C84.6815789,26.003 85.5215789,25.276 86.4165789,24.717 C86.6395789,24.605 86.8075789,24.548 86.9755789,24.437 C87.2555789,24.325 87.5355789,24.269 87.7025789,24.548 C87.8705789,24.717 88.0945789,24.661 88.2065789,24.773 C88.3745789,24.885 88.4295789,25.108 88.5415789,25.22 C89.1015789,25.5 91.2275789,26.059 91.7305789,26.395 C91.8985789,26.507 92.0105789,26.731 92.1225789,26.955 C92.4025789,27.458 92.6255789,28.018 93.0175789,28.353 C93.1295789,28.465 93.1855789,28.689 93.2415789,28.856 C93.3535789,29.528 93.4085789,30.143 93.2415789,30.871 C93.1295789,31.654 92.7935789,32.381 92.4025789,33.052 C92.1785789,33.444 91.9545789,33.779 91.7865789,34.227 C91.6755789,34.619 91.4505789,34.955 91.2275789,35.346 C91.0035789,35.794 90.6125789,36.073 90.2205789,36.185 C89.8855789,36.353 89.4935789,36.409 89.1575789,36.353 C88.9895789,36.297 88.8225789,36.353 88.7105789,36.129 C88.7105789,36.073 88.6545789,36.073 88.6545789,36.073 C88.2065789,36.129 87.9275789,35.626 87.5915789,35.458 C87.5355789,35.402 87.4795789,35.234 87.4795789,35.178 C87.5915789,34.955 87.4795789,34.842 87.4235789,34.675 C87.1995789,34.227 86.9755789,33.724 86.6965789,33.276 C86.6395789,33.108 86.4715789,33.052 86.3045789,33.22 C86.2485789,33.5 86.0245789,33.724 86.0245789,34.059 L86.0245789,34.059 Z" id="Fill-9" fill="#000000"></path>
            </g>
        </g>
    </g>
</svg>