<?xml version="1.0" encoding="UTF-8"?>
<svg width="97px" height="51px" viewBox="0 0 97 51" version="1.1" xmlns="http://www.w3.org/2000/svg" xmlns:xlink="http://www.w3.org/1999/xlink">
    <title>Group</title>
    <g id="Page-1" stroke="none" stroke-width="1" fill="none" fill-rule="evenodd">
        <g id="59924" transform="translate(-54.000000, -598.000000)">
            <g id="Group" transform="translate(54.773000, 598.639000)">
                <path d="M1.333,17.319 L1.333,4.629 C1.333,2.597 1.466,1.698 3.55271368e-15,1.698 L3.55271368e-15,1.398 L9.526,1.398 L9.526,1.698 C8.094,1.698 8.161,2.231 8.161,4.629 L8.161,17.552 C8.161,21.483 10.226,23.148 13.39,23.148 C16.954,23.148 18.752,20.683 18.752,17.552 L18.752,8.892 C18.752,6.161 17.886,1.698 14.722,1.698 L14.722,1.398 L23.449,1.398 L23.482,1.698 C19.751,1.698 19.052,6.161 19.052,8.892 L19.052,17.552 C19.052,21.949 16.121,25.146 10.259,25.146 C5.729,25.146 1.333,22.748 1.333,17.319" id="Fill-307" fill="#272525"></path>
                <path d="M38.435,14.322 C37.303,15.621 35.371,15.754 34.038,14.655 C33.406,14.054 32.973,13.355 32.973,12.589 C32.973,12.156 31.907,12.389 30.541,14.455 L30.541,21.083 C30.541,22.915 30.707,24.247 31.907,24.58 L31.907,24.846 L23.58,24.846 L23.58,24.58 C24.846,24.213 24.879,22.781 24.879,21.083 L24.879,12.956 C24.879,11.79 24.479,11.324 23.114,10.825 L23.114,10.558 L30.541,9.159 L30.541,13.822 C32.906,10.257 33.905,9.859 34.904,9.392 C35.837,8.959 37.236,9.159 38.102,9.925 C39.401,11.057 39.567,13.055 38.435,14.322" id="Fill-308" fill="#272525"></path>
                <path d="M52.189,17.352 C52.189,13.456 51.256,10.158 48.858,10.158 C46.627,10.158 46.127,12.889 46.127,15.454 L46.127,18.984 C46.127,22.781 46.893,24.846 48.892,24.846 C50.757,24.846 52.189,22.681 52.189,17.352 Z M58.884,16.885 C58.884,23.481 54.487,25.146 50.224,25.146 C47.593,25.146 46.027,24.513 45.128,23.68 C44.062,24.38 40.498,25.213 40.498,24.679 L40.498,3.796 C40.498,2.664 40.165,2.165 38.8,1.665 L38.8,1.398 L46.127,-2.13162821e-14 L46.127,11.69 C47.093,10.025 48.758,9.159 51.856,9.159 C56.452,9.159 58.884,12.756 58.884,16.885 L58.884,16.885 Z" id="Fill-309" fill="#272525"></path>
                <path d="M69.007,16.719 C66.276,17.319 66.31,19.351 66.31,20.916 C66.31,20.916 66.276,23.115 67.609,23.115 C68.175,23.115 68.641,22.648 69.007,21.848 L69.007,16.719 Z M77.334,22.714 C76.868,24.18 75.136,25.146 73.038,25.146 C73.038,25.146 69.34,25.146 69.041,22.149 C68.608,23.88 66.909,25.146 64.544,25.146 C63.279,25.146 60.381,24.58 60.381,21.749 C60.381,18.419 63.079,17.785 69.007,16.386 L69.007,14.254 C69.007,10.792 67.042,8.925 64.744,10.125 C64.744,10.125 64.011,10.558 65.144,10.957 C65.71,11.157 66.077,11.624 66.343,12.223 C66.842,13.456 66.276,14.788 65.044,15.321 C63.845,15.787 62.479,15.22 61.979,14.021 C61.646,13.156 61.813,12.156 62.379,11.557 C62.779,11.124 63.378,10.525 64.611,9.859 C66.11,9.059 67.742,9.159 67.742,9.159 C72.105,9.159 74.536,11.89 74.536,15.82 L74.536,20.783 C74.536,20.783 74.536,23.181 76.135,23.115 C76.135,23.115 76.968,23.115 77.134,22.548 L77.334,22.714 L77.334,22.714 Z" id="Fill-310" fill="#272525"></path>
                <path d="M95.418,24.58 L95.418,24.846 L87.091,24.846 L87.091,24.58 C88.357,24.213 88.424,22.748 88.424,21.049 L88.424,14.355 C88.424,12.457 87.725,11.557 86.125,11.557 C85.393,11.557 84.627,12.156 84.161,12.856 L84.161,21.083 C84.161,22.915 84.327,24.247 85.526,24.58 L85.526,24.846 L77.199,24.846 L77.199,24.58 C78.465,24.213 78.498,22.814 78.498,21.083 L78.498,12.956 C78.498,11.79 78.132,11.324 76.766,10.825 L76.766,10.558 L84.161,9.159 L84.161,12.389 C85.026,10.625 86.791,9.159 88.59,9.159 C91.255,9.159 94.053,10.224 94.053,14.221 L94.053,21.049 C94.053,22.881 94.252,24.281 95.418,24.58" id="Fill-311" fill="#272525"></path>
                <path d="M15.809,46.682 C15.996,47.065 16.335,47.11 16.655,47.181 C16.416,46.812 16.157,46.648 15.809,46.682" id="Fill-312" fill="#EFC5CD"></path>
                <path d="M16.661,47.19 C16.662,47.188 16.664,47.186 16.666,47.185 C16.662,47.184 16.659,47.183 16.655,47.181 C16.657,47.185 16.659,47.186 16.661,47.19" id="Fill-313" fill="#EFC5CD"></path>
                <path d="M79.452,31.755 C79.371,31.76 79.279,31.766 79.186,31.773 C79.275,31.786 79.365,31.79 79.452,31.755" id="Fill-314" fill="#EFC5CD"></path>
                <path d="M79.003,32.06 L78.954,32.547 C78.451,32.707 78.844,32.254 78.356,32.276 C78.34,31.876 78.79,31.801 79.186,31.773 C78.832,31.717 78.485,31.418 78.33,31.851 C77.999,31.677 78.379,31.365 77.98,31.183 C77.691,31.295 77.305,31.675 76.982,31.431 L76.989,31.361 C76.199,30.929 75.749,31.936 75.028,31.511 L75.11,31.379 C74.858,31.142 74.341,31.44 73.881,31.182 C74.012,31.266 74.121,31.558 73.839,31.598 C73.309,31.334 72.937,31.577 72.553,31.255 L72.167,31.637 C70.302,31.515 62.914,31.89 61.038,31.907 L61.113,31.846 C58.25,31.971 52.386,31.797 49.42,32.263 C48.973,31.868 48.34,31.943 47.867,31.823 C48.128,31.99 48.03,32.261 47.824,32.24 C46.373,32.16 47.719,32.504 46.247,32.632 C44.547,32.949 38.087,32.382 36.595,32.017 C35.774,32.565 34.779,32.111 33.98,32.451 L34.063,32.319 C33.209,32.511 28.421,31.868 27.43,32.046 L27.56,32.131 C26.692,32.463 26.824,31.844 26.152,31.634 C26.225,32.273 25.479,32.617 25.198,32.658 L25.211,32.519 C24.786,32.616 23.812,33.145 23.11,33.213 L23.146,32.866 C22.554,33.225 21.46,33.043 21.04,33.069 C20.084,32.902 18.621,32.259 17.327,32.688 L16.523,31.674 L16.399,31.77 C16.399,31.77 14.771,43.726 16.401,46.321 L16.366,46.668 L16.702,46.631 C17.1,46.812 17.295,46.414 17.26,46.76 L16.71,46.704 C17.111,46.815 16.825,46.992 16.666,47.185 C16.834,47.222 16.997,47.268 17.128,47.379 C17.211,47.247 17.073,47.233 17.012,47.156 C17.232,47.039 17.542,46.719 17.803,46.886 C18.216,46.929 17.815,47.45 18.297,47.5 C20.834,47.831 23.289,48.294 25.862,48.279 C25.917,48.424 25.848,48.418 25.772,48.48 C26.55,48.349 27.237,48.421 27.946,48.282 C28.139,48.443 28.186,48.658 28.241,48.804 C28.132,48.512 32.144,48.585 32.205,48.662 L32.27,48.035 C33.033,48.045 32.475,48.758 33.183,48.621 C33.481,47.74 34.352,48.742 34.608,48.276 C34.6,48.346 34.945,48.381 34.917,48.659 C35.034,48.179 35.274,48.555 35.495,48.438 C35.578,48.306 35.441,48.293 35.385,48.145 L35.888,47.988 C36.079,48.147 36.121,48.432 35.908,48.479 C37.207,48.684 43.455,49.299 44.865,49.093 C44.693,48.725 44.253,48.961 44.103,48.383 C44.482,48.072 44.647,48.509 44.819,48.176 C44.94,49.031 45.63,48.4 45.89,49.269 L46.008,48.79 L46.185,49.089 C47.831,48.628 46.564,48.854 48.009,49.003 C48.849,48.949 49.263,48.29 49.723,48.547 C49.654,48.541 49.477,48.241 49.697,48.123 C49.723,48.547 50.282,47.834 50.377,48.264 C50.591,48.215 51.278,48.287 51.06,47.702 C51.169,47.994 51.781,48.128 51.409,48.37 C51.616,48.391 51.814,48.482 51.967,48.357 L51.705,48.189 C52.407,48.123 52.777,48.581 53.246,48.068 L52.993,47.831 C53.412,47.804 53.763,47.77 53.914,48.346 L53.479,48.512 C54.174,48.514 54.594,48.487 55.18,48.197 L54.974,48.175 C55.725,47.622 59.592,47.243 60.289,46.543 L59.987,46.09 L60.58,45.73 C60.511,45.723 60.263,47.168 60.208,47.021 C61.46,47.01 67.978,46.825 69.127,47.153 C69.587,47.411 69.193,47.862 69.186,47.932 C69.758,47.78 69.443,47.466 69.924,47.516 C70.054,47.599 69.889,47.864 69.813,47.925 C70.026,47.879 70.218,48.038 70.239,47.83 C69.979,47.662 70.104,47.113 70.001,46.752 L70.621,46.815 L70.584,47.163 C70.723,47.176 70.959,46.218 71.564,46.421 C72.589,46.597 73.709,46.503 74.741,46.608 C74.72,46.817 74.5,46.935 74.279,47.052 C74.417,47.066 74.63,47.018 74.754,47.171 C74.514,46.796 75.194,46.936 75.003,46.776 C75.781,45.943 76.743,46.745 77.425,46.183 C77.502,45.419 79.18,33.062 79.203,32.151 C79.41,32.172 79.616,32.194 79.677,32.271 C79.629,32.055 79.224,31.943 79.003,32.06" id="Fill-315" fill="#C7C9CD"></path>
                <polyline id="Fill-316" fill="#FFFFFF" points="27.638 36.954 27.638 37.926 25.738 37.926 25.738 39.055 27.413 39.055 27.413 40.028 25.738 40.028 25.738 41.247 27.638 41.247 27.638 42.219 24.459 42.219 24.459 36.954 27.638 36.954"></polyline>
                <path d="M33.644,40.365 L34.886,40.365 L34.265,38.495 L33.644,40.365 Z M35.499,42.219 L35.207,41.337 L33.322,41.337 L33.031,42.219 L31.669,42.219 L33.494,36.954 L35.05,36.954 L36.868,42.219 L35.499,42.219 L35.499,42.219 Z" id="Fill-317" fill="#FFFFFF"></path>
                <polyline id="Fill-318" fill="#FFFFFF" points="40.562 37.941 40.562 36.969 44.706 36.969 44.706 37.941 43.27 37.941 43.27 42.219 41.991 42.219 41.991 37.941 40.562 37.941"></polyline>
                <polyline id="Fill-319" fill="#FFFFFF" points="52.074 36.954 52.074 37.926 50.174 37.926 50.174 39.055 51.849 39.055 51.849 40.028 50.174 40.028 50.174 41.247 52.074 41.247 52.074 42.219 48.894 42.219 48.894 36.954 52.074 36.954"></polyline>
                <path d="M57.877,37.941 L57.877,39.205 L58.67,39.205 C58.865,39.205 59.018,39.148 59.13,39.033 C59.243,38.919 59.299,38.768 59.299,38.581 C59.299,38.394 59.241,38.241 59.126,38.121 C59.012,38.001 58.859,37.941 58.67,37.941 L57.877,37.941 Z M57.877,40.177 L57.877,42.219 L56.599,42.219 L56.599,36.969 L58.67,36.969 C59.278,36.969 59.752,37.126 60.091,37.44 C60.43,37.754 60.6,38.133 60.6,38.577 C60.6,38.881 60.508,39.178 60.323,39.467 C60.139,39.756 59.837,39.962 59.418,40.081 L60.705,42.219 L59.208,42.219 L58.027,40.177 L57.877,40.177 L57.877,40.177 Z" id="Fill-320" fill="#FFFFFF"></path>
                <polyline id="Fill-321" fill="#FFFFFF" points="67.668 42.219 66.389 42.219 66.389 40.529 64.572 36.969 66.023 36.969 67.032 39.34 68.035 36.969 69.486 36.969 67.668 40.529 67.668 42.219"></polyline>
            </g>
        </g>
    </g>
</svg>