<?xml version="1.0" encoding="UTF-8"?>
<svg width="130px" height="67px" viewBox="0 0 130 67" version="1.1" xmlns="http://www.w3.org/2000/svg" xmlns:xlink="http://www.w3.org/1999/xlink">
    <title>Group</title>
    <g id="Page-1" stroke="none" stroke-width="1" fill="none" fill-rule="evenodd">
        <g id="59924" transform="translate(-435.000000, -462.000000)">
            <g id="Group" transform="translate(435.863000, 462.256854)">
                <path d="M1.064,59.0851456 C0.861,59.1911456 0.669,59.2921456 0.669,59.2921456 C0.693,59.3381456 0.721,59.3821456 0.748,59.4281456 C0.866,59.3071456 0.969,59.1941456 1.064,59.0851456" id="Fill-18" fill="#ECEEF1"></path>
                <path d="M0.562,57.1841456 C0.521,57.2061456 0.479,57.2281456 0.438,57.2501456 C0.472,57.2811456 0.494,57.3161456 0.522,57.3511456 C0.533,57.2961456 0.544,57.2401456 0.562,57.1841456" id="Fill-19" fill="#ECEEF1"></path>
                <path d="M0.751,59.4321456 C1.052,59.9341456 1.487,60.3651456 1.557,60.9891456 C1.339,61.1031456 0.902,61.3331456 0.682,61.4481456 C0.611,61.8451456 0.978,62.0121456 1.126,62.2971456 C0.907,62.4111456 0.689,62.5251456 0.763,62.6671456 C0.814,63.1131456 1.18,63.2351456 1.65,63.1011456 C1.762,61.0211456 3.866,59.1991456 0.751,59.4321456" id="Fill-20" fill="#ECEEF1"></path>
                <path d="M1.903,57.3841456 C1.519,57.5851456 1.135,57.7861456 0.751,57.9871456 C0.801,58.3751456 0.809,58.7841456 1.095,59.0481456 C1.567,58.4971456 1.787,58.0331456 1.903,57.3841456" id="Fill-21" fill="#ECEEF1"></path>
                <path d="M90.857,10.0151456 C90.812,9.92914555 90.808,9.87314555 91.072,9.89614555 C90.995,9.93614555 90.928,9.97714555 90.857,10.0151456 C90.897,10.0981456 90.971,10.2101456 90.899,10.3131456 C91.577,9.75314555 92.39,9.13414555 93.232,8.63614555 C93.266,8.42614555 93.295,8.21714555 93.315,8.01314555 C91.216,9.22014555 89.073,10.3421456 87.715,12.0141456 C88.955,11.3651456 89.678,10.6711456 90.857,10.0151456" id="Fill-22" fill="#ECEEF1"></path>
                <path d="M93.034,7.07314555 C93.108,7.03314555 93.176,6.99214555 93.249,6.95314555 C92.987,6.92914555 92.99,6.98514555 93.034,7.07314555" id="Fill-23" fill="#ECEEF1"></path>
                <path d="M56.519,30.2681456 C55.26,31.0841456 54.356,32.1801456 53.431,33.2681456 C55.711,31.5621456 58.16,30.0231456 59.778,28.4881456 C58.704,29.0961456 57.621,29.6911456 56.519,30.2681456" id="Fill-24" fill="#ECEEF1"></path>
                <path d="M48.573,38.1901456 C50.348,37.5971456 51.513,36.5371456 52.55,35.3831456 C51.306,36.1971456 50.067,36.9981456 48.829,37.7871456 C48.744,37.9211456 48.65,38.0541456 48.573,38.1901456" id="Fill-25" fill="#ECEEF1"></path>
                <path d="M49.927,36.3551456 C51.428,35.5781456 52.443,34.4291456 53.431,33.2681456 C52.141,34.2321456 50.919,35.2521456 49.927,36.3551456" id="Fill-26" fill="#ECEEF1"></path>
                <path d="M72.782,7.82714555 C73.552,6.90214555 74.056,6.41014555 74.371,6.18514555 C74.418,5.90914555 74.49,5.56214555 74.6,5.11814555 C74.542,5.14714555 74.482,5.17914555 74.425,5.21014555 C73.541,5.99714555 72.631,6.76714555 71.699,7.52914555 C71.367,7.93114555 71.061,8.33714555 70.843,8.74914555 C71.496,8.45514555 72.15,8.15214555 72.782,7.82714555" id="Fill-27" fill="#ECEEF1"></path>
                <path d="M74.371,6.18514555 C73.974,8.54814555 75.604,5.31214555 74.371,6.18514555" id="Fill-28" fill="#ECEEF1"></path>
                <path d="M72.653,18.4041456 C72.603,18.4301456 72.552,18.4571456 72.502,18.4841456 C72.374,18.5931456 72.241,18.7011456 72.115,18.8101456 C72.298,18.6731456 72.471,18.5401456 72.653,18.4041456" id="Fill-29" fill="#ECEEF1"></path>
                <path d="M58.36,20.7861456 C59.196,20.2771456 60.009,19.7221456 60.789,19.1401456 C59.112,20.2101456 57.419,21.2841456 56.172,22.4721456 C56.39,22.3581456 56.685,22.3851456 56.904,22.2701456 C57.194,21.7591456 57.701,21.1321456 58.36,20.7861456" id="Fill-30" fill="#ECEEF1"></path>
                <path d="M54.141,25.5191456 C56.469,23.0401456 59.46,21.2911456 62.011,19.2351456 C63.979,17.6641456 66.758,17.1091456 68.21,15.0871456 C68.136,14.9461456 68.062,14.8041456 67.988,14.6631456 L67.844,14.9191456 C67.032,15.2381456 66.293,15.3361456 65.587,15.5551456 C65.616,15.5231456 65.651,15.4921456 65.68,15.4591456 C65.619,15.5011456 65.559,15.5421456 65.497,15.5841456 C65.029,15.7361456 64.573,15.9501456 64.116,16.3301456 C63.916,16.5211456 63.711,16.7131456 63.503,16.9021456 C60.896,18.5871456 58.186,20.2851456 56.172,22.4721456 C54.862,23.6991456 53.919,25.0951456 52.608,26.3231456 C53.045,26.0941456 53.777,25.8901456 54.141,25.5191456 Z M60.453,14.8721456 C59.652,15.5741456 58.869,16.2391456 57.827,16.7851456 C58.7,16.1431456 59.576,15.5081456 60.453,14.8721456 Z M43.546,27.0391456 C41.552,28.8491456 39.137,30.4641456 36.895,31.4871456 C35.142,32.4051456 30.551,35.8901456 32.317,37.1301456 C32.871,32.9111456 46.766,29.4841456 43.546,27.0391456 Z M44.31,34.4541456 C42.928,36.0781456 40.737,37.2251456 38.696,38.6561456 C38.039,39.0001456 37.679,39.9091456 36.803,40.3681456 C35.781,41.0821456 35.273,41.7101456 34.47,42.3091456 L35.277,42.2481456 C33.669,42.9111456 33.237,44.2181456 31.556,44.7361456 C31.631,44.8791456 31.56,45.2761456 31.341,45.3911456 C30.321,46.1051456 29.076,46.3971456 28.348,47.1381456 C27.328,47.8531456 26.234,48.4261456 25.505,49.1681456 C25.285,49.2831456 25.071,49.9361456 24.707,50.3081456 C24.202,50.6441456 23.686,50.9611456 23.173,51.2801456 C23.217,51.3051456 23.258,51.3321456 23.297,51.3581456 C23.735,51.1361456 24.17,50.8901456 24.561,50.5641456 C25.728,49.5931456 27.112,48.5071456 28.351,47.6781456 C31.49,45.6741456 34.259,43.5021456 37.027,41.3311456 C37.61,40.8461456 38.12,40.2191456 38.702,39.7341456 C40.377,38.1361456 42.861,37.0141456 43.655,35.3381456 C43.8,35.0811456 44.238,34.8511456 44.31,34.4541456 Z M12.441,53.1441456 C10.81,53.6881456 9.001,55.0501456 7.203,56.2711456 C7.212,56.3161456 7.225,56.3571456 7.242,56.3891456 C8.916,55.6791456 10.708,54.3001456 12.441,53.1441456 Z M7.247,55.6901456 C7.441,55.5141456 7.637,55.3231456 7.829,55.1271456 C7.777,55.1141456 7.726,55.1001456 7.674,55.0831456 C7.462,55.1931456 7.321,55.4351456 7.247,55.6901456 Z M78.793,13.5101456 C76.6,15.1161456 74.5,16.7921456 72.502,18.4841456 C67.934,20.9431456 63.679,23.6021456 60.304,26.8431456 C57.394,29.8101456 51.114,32.7381456 48.795,36.8361456 C49.203,36.6991456 49.579,36.5371456 49.927,36.3551456 C49.514,36.8171456 49.145,37.2941456 48.829,37.7871456 C43.301,41.3081456 37.782,44.5861456 31.872,47.6801456 C30.995,48.1391456 30.561,48.9091456 29.685,49.3681456 C28.809,49.8541456 27.951,50.3391456 27.098,50.8241456 C27.111,50.8581456 27.138,50.8841456 27.178,50.9011456 C23.665,52.9701456 20.261,55.1071456 16.769,57.5291456 C15.091,58.5881456 13.263,59.3651456 11.512,60.2821456 C10.856,60.6261456 10.559,60.0601456 10.047,60.1481456 C7.925,60.3581456 6.315,60.4801456 4.197,61.2291456 C4.197,61.2291456 4.048,60.9461456 3.974,60.8051456 C3.698,61.0111456 3.424,61.1491456 3.178,61.2201456 C3.289,59.1391456 5.393,57.3171456 2.277,57.5521456 C2.277,57.5501456 2.276,57.5491456 2.275,57.5471456 C2.392,57.4281456 2.494,57.3141456 2.591,57.2031456 C2.606,57.1951456 2.619,57.1881456 2.633,57.1811456 C2.629,57.1771456 2.626,57.1711456 2.622,57.1671456 C3.094,56.6161456 3.313,56.1531456 3.429,55.5041456 C3.046,55.7041456 2.662,55.9051456 2.277,56.1061456 C2.246,55.8701456 2.189,55.6471456 2.046,55.4701456 C2.059,55.4151456 2.07,55.3601456 2.088,55.3031456 C2.259,55.2151456 2.402,55.1391456 2.402,55.1391456 C2.4,55.0021456 2.384,54.8711456 2.355,54.7471456 C3.041,53.6131456 4.459,52.4681456 3.847,52.0401456 C3.455,51.8601456 2.857,52.5061456 2.118,53.1241456 C2.04,53.0971456 1.957,53.0781456 1.878,53.0711456 C2.899,52.3561456 1.359,52.0811456 1.942,51.5961456 C2.818,51.1371456 3.617,50.5361456 4.493,50.0781456 C8.059,48.2101456 10.991,46.4961456 14.271,44.2371456 C14.416,44.1381456 14.562,44.0431456 14.707,43.9461456 C16.313,42.8811456 17.9,42.0111456 19.621,41.2501456 C19.566,41.4031456 19.502,41.5521456 19.434,41.6981456 C20.819,41.0881456 22.176,40.4181456 23.403,39.5011456 C26.391,37.2141456 29.379,34.9291456 32.808,32.9531456 C36.42,30.9171456 39.8,28.7691456 43.278,26.3441456 C41.92,27.4561456 40.549,28.5391456 39.038,29.4551456 C38.329,29.8071456 37.626,30.1661456 36.963,30.5501456 C37.691,30.2271456 38.376,29.8561456 39.038,29.4551456 C41.766,28.0981456 44.628,26.8161456 46.012,24.4001456 C46.299,24.3991456 46.373,24.5411456 46.591,24.4271456 C48.125,23.6241456 49.731,22.9631456 50.748,21.7091456 C50.674,21.5671456 51.332,21.2221456 50.965,21.0541456 C52.205,20.2241456 53.739,19.4221456 54.904,18.4511456 C55.425,18.0611456 55.849,17.4931456 56.243,16.8631456 C60.548,13.6431456 64.795,10.4451456 69.485,7.07514555 C70.672,6.28014555 72.121,5.51414555 73.395,4.84714555 C71.768,6.30114555 70.041,7.70414555 68.265,9.08314555 C66.308,9.97414555 64.487,10.9301456 63.367,12.4411456 C63.088,12.7601456 62.808,13.0681456 62.521,13.3701456 C64.47,11.9511456 66.398,10.5301456 68.265,9.08314555 C69.419,8.55414555 70.621,8.04914555 71.752,7.46414555 C71.735,7.48614555 71.719,7.50814555 71.699,7.52914555 C70.91,8.17514555 70.108,8.81314555 69.292,9.44514555 C67.552,10.2391456 65.921,11.0831456 64.793,12.3231456 C64.653,12.4771456 64.516,12.6381456 64.394,12.8051456 C64.117,13.1221456 63.834,13.4311456 63.548,13.7321456 C64.75,12.8581456 65.944,11.9801456 67.119,11.0981456 C67.849,10.5521456 68.575,10.0011456 69.292,9.44514555 C69.804,9.21314555 70.324,8.98214555 70.843,8.74914555 C70.808,8.81114555 70.77,8.87614555 70.742,8.94014555 C70.375,9.31114555 70.02,11.6151456 70.899,11.6961456 C74.251,9.89514555 78.631,6.74514555 78.705,6.88714555 C79.219,7.33914555 73.83,11.1071456 74.123,11.1351456 C74.48,11.0291456 74.832,10.9121456 75.179,10.7901456 C74.932,11.0651456 74.694,11.3411456 74.488,11.6201456 C73.905,12.1041456 72.954,12.4231456 72.663,12.9351456 C71.576,14.5871456 69.675,15.2211456 68.22,16.7031456 C67.346,17.7031456 66.329,18.9551456 65.313,20.2101456 C65.46,20.4921456 64.728,20.6961456 65.096,20.8641456 C63.86,21.5121456 62.43,22.2611456 62.333,23.3641456 C62.307,23.3881456 62.281,23.4091456 62.255,23.4321456 C62.168,23.4781456 62.069,23.5911456 61.97,23.7241456 C59.838,24.6561456 58.814,26.1921456 57.235,27.7131456 C56.631,28.1211456 56.004,28.5101456 55.333,28.8611456 C55.771,28.6321456 56.501,28.4291456 56.866,28.0571456 C56.992,27.9431456 57.115,27.8281456 57.235,27.7131456 C58.799,26.6551456 60.184,25.4491456 61.603,24.3151456 C61.689,24.1641456 61.826,23.9211456 61.97,23.7241456 C62.088,23.6721456 62.207,23.6211456 62.329,23.5741456 C62.326,23.5021456 62.328,23.4311456 62.333,23.3641456 C63.633,22.1661456 65.266,21.1251456 66.336,20.0341456 C68.513,18.2781456 71.229,17.1591456 73.749,15.9421456 C72.64,16.8241456 71.558,17.7181456 70.507,18.6161456 C71.876,17.5911456 73.158,16.6081456 74.389,15.6271456 C74.604,15.5201456 74.813,15.4151456 75.022,15.3041456 L76.337,14.6161456 C75.895,14.7681456 75.464,14.9331456 75.039,15.1021456 C75.771,14.5121456 76.489,13.9191456 77.187,13.3141456 C81.231,10.3531456 85.583,7.63714555 90.1428123,5.52714555 C90.146,5.74514555 90.135,5.96914555 90.114,6.19714555 C88.015,7.40314555 85.873,8.52514555 84.516,10.1981456 C85.752,9.55114555 86.477,8.85414555 87.655,8.20014555 C87.697,8.28214555 87.77,8.39314555 87.697,8.49714555 C88.376,7.93614555 89.188,7.31714555 90.031,6.81914555 C89.946,7.33114555 89.824,7.85614555 89.704,8.38214555 C89.413,8.89414555 88.757,9.23914555 88.173,9.72414555 C85.459,11.4581456 82.742,12.7881456 80.122,14.5961456 C77.602,15.8481456 75.084,17.0991456 72.653,18.4041456 C74.871,16.7341456 76.89,15.1591456 78.793,13.5101456 L78.793,13.5101456 Z" id="Fill-31" fill="#ECEEF1"></path>
                <path d="M74.578,15.2951456 C75.434,14.6271456 76.301,13.9641456 77.187,13.3141456 C77.836,12.7511456 78.476,12.1791456 79.105,11.5891456 C82.224,8.99114555 86.465,7.09514555 90.063,4.77614555 C89.956,4.30314555 89.747,3.87114555 89.381,3.50414555 C85.039,5.19014555 81.336,8.09614555 77.114,10.0071456 C77.09,10.0381456 77.064,10.0681456 77.041,10.1011456 C75.733,11.8681456 72.738,13.0771456 70.918,14.9301456 C69.173,16.9261456 67.131,18.3561456 65.313,20.2101456 C68.477,18.5531456 71.325,16.6731456 74.578,15.2951456" id="Fill-32" fill="#ECEEF1"></path>
                <path d="M52.55,35.3831456 C53.363,34.8491456 54.18,34.3121456 55.002,33.7651456 C57.244,32.1641456 59.169,30.6161456 61.096,28.9561456 C59.524,29.8731456 57.928,30.7671456 56.296,31.6221456 C54.741,32.6281456 53.729,34.0661456 52.55,35.3831456" id="Fill-33" fill="#ECEEF1"></path>
                <path d="M62.653,27.5961456 C62.13,28.0601456 61.614,28.5111456 61.096,28.9561456 C63.427,27.5961456 65.707,26.1851456 67.976,24.7631456 C71.562,22.1501456 75.189,19.6121456 78.686,16.8311456 C79.088,16.5231456 79.493,16.2311456 79.902,15.9511456 C72.583,19.5811456 65.286,23.1981456 60.081,28.1971456 C59.988,28.2941456 59.879,28.3911456 59.778,28.4881456 C62.65,26.8611456 65.432,25.1421456 68.198,23.4091456 C66.33,24.7691456 64.473,26.1481456 62.653,27.5961456" id="Fill-34" fill="#ECEEF1"></path>
                <path d="M73.749,15.9421456 C73.965,15.8381456 74.177,15.7331456 74.389,15.6271456 C74.61,15.4521456 74.824,15.2781456 75.039,15.1021456 C74.885,15.1671456 74.73,15.2301456 74.578,15.2951456 C74.301,15.5121456 74.022,15.7241456 73.749,15.9421456" id="Fill-35" fill="#ECEEF1"></path>
                <path d="M65.587,15.5551456 C65.557,15.5641456 65.528,15.5731456 65.497,15.5841456 C64.848,16.0271456 64.179,16.4651456 63.503,16.9021456 C62.657,17.6721456 61.748,18.4271456 60.789,19.1401456 C62.6,17.9861456 64.388,16.8391456 65.587,15.5551456" id="Fill-36" fill="#ECEEF1"></path>
                <path d="M57.74,15.3441456 C57.521,15.4581456 57.085,15.6861456 56.865,15.8031456 C56.776,15.9581456 56.689,16.1121456 56.6,16.2661456 C56.808,16.1661456 57.02,16.0671456 57.233,15.9701456 L57.74,15.3441456" id="Fill-37" fill="#ECEEF1"></path>
                <path d="M46.012,24.4001456 C49.605,21.8161456 52.941,19.3331456 56.243,16.8631456 C56.365,16.6691456 56.484,16.4691456 56.6,16.2661456 C54.134,17.4471456 51.822,18.8891456 50.011,20.8331456 C49.648,21.2041456 49.212,21.9721456 48.775,22.2011456 C46.772,23.4221456 45.033,24.9041456 43.278,26.3441456 C44.157,25.7311456 45.04,25.1051456 45.937,24.4531456 C45.963,24.4361456 45.987,24.4181456 46.012,24.4001456" id="Fill-38" fill="#ECEEF1"></path>
                <path d="M127.238,4.16514555 C127.465,4.04414555 127.682,3.93014555 127.682,3.93014555 C127.658,3.88514555 127.628,3.84114555 127.601,3.79514555 C127.465,3.92614555 127.347,4.04714555 127.238,4.16514555" id="Fill-39" fill="#ECEEF1"></path>
                <path d="M127.697,6.08914555 C127.742,6.06414555 127.789,6.04014555 127.836,6.01514555 C127.8,5.98514555 127.778,5.94914555 127.749,5.91514555 C127.734,5.97214555 127.72,6.03014555 127.697,6.08914555" id="Fill-40" fill="#ECEEF1"></path>
                <path d="M127.598,3.79114555 C127.292,3.29114555 126.835,2.87214555 126.788,2.23514555 C127.033,2.10614555 127.524,1.84714555 127.771,1.71814555 C127.867,1.30514555 127.474,1.15314555 127.325,0.870145554 C127.57,0.740145554 127.816,0.611145554 127.741,0.471145554 C127.706,0.014145554 127.311,-0.090854446 126.788,0.072145554 C126.566,2.21314555 124.168,4.19714555 127.598,3.79114555" id="Fill-41" fill="#ECEEF1"></path>
                <path d="M126.236,5.95614555 C126.666,5.72914555 127.097,5.50214555 127.529,5.27414555 C127.491,4.88014555 127.503,4.46014555 127.201,4.20514555 C126.658,4.79514555 126.393,5.28314555 126.236,5.95614555" id="Fill-42" fill="#ECEEF1"></path>
                <path d="M26.361,59.3701456 C26.406,59.4571456 26.408,59.5141456 26.119,59.5051456 C26.205,59.4591456 26.281,59.4141456 26.361,59.3701456 C26.321,59.2881456 26.245,59.1781456 26.329,59.0671456 C25.557,59.6791456 24.636,60.3581456 23.688,60.9151456 C23.641,61.1321456 23.599,61.3471456 23.568,61.5581456 C25.928,60.2071456 28.333,58.9391456 29.904,57.1491456 C28.511,57.8831456 27.685,58.6351456 26.361,59.3701456" id="Fill-43" fill="#ECEEF1"></path>
                <path d="M23.83,62.5091456 C23.747,62.5531456 23.671,62.5991456 23.588,62.6431456 C23.875,62.6541456 23.874,62.5971456 23.83,62.5091456" id="Fill-44" fill="#ECEEF1"></path>
                <path d="M65.009,36.7301456 C66.43,35.8261456 67.474,34.6511456 68.541,33.4841456 C65.957,35.3591456 63.197,37.0701456 61.348,38.7341456 C62.555,38.0531456 63.772,37.3831456 65.009,36.7301456" id="Fill-45" fill="#ECEEF1"></path>
                <path d="M74.109,28.1701456 C72.132,28.8751456 70.804,30.0261456 69.611,31.2661456 C71.014,30.3641456 72.412,29.4741456 73.809,28.5971456 C73.907,28.4561456 74.018,28.3151456 74.109,28.1701456" id="Fill-46" fill="#ECEEF1"></path>
                <path d="M72.535,30.1271456 C70.85,31.0061456 69.682,32.2391456 68.541,33.4841456 C70.003,32.4261456 71.394,31.3131456 72.535,30.1271456" id="Fill-47" fill="#ECEEF1"></path>
                <path d="M46.085,60.6471456 C45.195,61.6381456 44.618,62.1711456 44.262,62.4181456 C44.197,62.7041456 44.101,63.0641456 43.959,63.5261456 C44.023,63.4931456 44.092,63.4561456 44.156,63.4231456 C45.162,62.5661456 46.199,61.7261456 47.257,60.8941456 C47.641,60.4641456 47.996,60.0311456 48.257,59.5951456 C47.525,59.9331456 46.794,60.2791456 46.085,60.6471456" id="Fill-48" fill="#ECEEF1"></path>
                <path d="M44.262,62.4181456 C44.812,59.9701456 42.867,63.3801456 44.262,62.4181456" id="Fill-49" fill="#ECEEF1"></path>
                <path d="M46.737,49.7791456 C46.792,49.7501456 46.849,49.7201456 46.906,49.6891456 C47.051,49.5711456 47.202,49.4521456 47.347,49.3341456 C47.139,49.4851456 46.942,49.6311456 46.737,49.7791456" id="Fill-50" fill="#ECEEF1"></path>
                <path d="M62.532,46.5661456 C61.591,47.1341456 60.671,47.7471456 59.787,48.3871456 C61.678,47.1981456 63.589,46.0051456 65.013,44.7171456 C64.768,44.8461456 64.446,44.8351456 64.201,44.9641456 C63.858,45.5051456 63.271,46.1771456 62.532,46.5661456" id="Fill-51" fill="#ECEEF1"></path>
                <path d="M67.388,41.4791456 C64.715,44.1511456 61.35,46.1061456 58.452,48.3541456 C56.216,50.0731456 53.141,50.7921456 51.45,52.9461456 C51.525,53.0881456 51.599,53.2291456 51.674,53.3711456 L51.844,53.1001456 C52.751,52.7281456 53.566,52.5891456 54.351,52.3251456 C54.317,52.3601456 54.278,52.3941456 54.244,52.4291456 C54.312,52.3831456 54.381,52.3381456 54.45,52.2911456 C54.972,52.1091456 55.483,51.8651456 56.002,51.4511456 C56.23,51.2431456 56.465,51.0361456 56.702,50.8301456 C59.643,48.9611456 62.698,47.0711456 65.013,44.7171456 C66.51,43.3881456 67.612,41.9031456 69.11,40.5721456 C68.619,40.8311456 67.806,41.0791456 67.388,41.4791456 Z M59.95,52.7511456 C60.863,51.9871456 61.753,51.2611456 62.923,50.6451456 C61.934,51.3511456 60.943,52.0511456 59.95,52.7511456 Z M79.085,39.3501456 C81.36,37.3841456 84.087,35.5971456 86.596,34.4261456 C88.565,33.3881456 93.769,29.5631456 91.892,28.3871456 C91.079,32.7471456 75.671,37.0131456 79.085,39.3501456 Z M78.606,31.7771456 C80.199,30.0361456 82.658,28.7401456 84.967,27.1621456 C85.704,26.7731456 86.143,25.8201456 87.126,25.3021456 C88.281,24.5131456 88.869,23.8431456 89.78,23.1821456 L88.892,23.2901456 C90.688,22.5221456 91.224,21.1571456 93.093,20.5341456 C93.019,20.3921456 93.114,19.9801456 93.361,19.8511456 C94.515,19.0621456 95.894,18.6961456 96.728,17.8961456 C97.882,17.1071456 99.111,16.4611456 99.946,15.6601456 C100.193,15.5301456 100.459,14.8471456 100.877,14.4461456 C101.447,14.0731456 102.028,13.7211456 102.607,13.3661456 C102.56,13.3421456 102.515,13.3171456 102.474,13.2921456 C101.983,13.5441456 101.494,13.8191456 101.049,14.1751456 C99.722,15.2351456 98.152,16.4251456 96.752,17.3431456 C93.212,19.5681456 90.069,21.9471456 86.927,24.3251456 C86.264,24.8531456 85.675,25.5261456 85.012,26.0541456 C83.098,27.7861456 80.319,29.0701456 79.366,30.8351456 C79.195,31.1061456 78.703,31.3651456 78.606,31.7771456 Z M114.469,10.8751456 C116.285,10.2281456 118.336,8.73414555 120.367,7.38314555 C120.359,7.33814555 120.347,7.29614555 120.329,7.26314555 C118.46,8.08314555 116.426,9.59614555 114.469,10.8751456 Z M120.29,7.98114555 C120.07,8.17314555 119.845,8.38014555 119.624,8.59214555 C119.682,8.60114555 119.738,8.61314555 119.793,8.62914555 C120.032,8.50414555 120.198,8.24714555 120.29,7.98114555 Z M39.764,55.1351456 C42.247,53.3681456 44.632,51.5341456 46.906,49.6891456 C52.036,46.9191456 56.832,43.9601456 60.691,40.4511456 C64.028,37.2481456 71.058,33.9051456 73.8,29.5731456 C73.346,29.7351456 72.926,29.9221456 72.535,30.1271456 C73.01,29.6301456 73.438,29.1221456 73.809,28.5971456 C80.043,24.6851456 86.256,21.0241456 92.889,17.5291456 C93.872,17.0111456 94.386,16.1971456 95.369,15.6791456 C96.355,15.1331456 97.319,14.5891456 98.279,14.0451456 C98.265,14.0111456 98.237,13.9861456 98.194,13.9701456 C102.149,11.6571456 105.985,9.27914555 109.934,6.60514555 C111.825,5.42814555 113.868,4.53114555 115.832,3.49714555 C116.571,3.10714555 116.868,3.67314555 117.435,3.55514555 C119.773,3.22514555 121.545,3.01314555 123.905,2.13114555 C123.905,2.13114555 124.054,2.41314555 124.128,2.55414555 C124.442,2.32714555 124.748,2.17214555 125.022,2.08614555 C124.8,4.22714555 122.404,6.21214555 125.833,5.80414555 C125.833,5.80514555 125.834,5.80614555 125.835,5.80814555 C125.701,5.93714555 125.583,6.05914555 125.473,6.17814555 C125.455,6.18714555 125.441,6.19514555 125.425,6.20314555 C125.429,6.20814555 125.432,6.21314555 125.436,6.21714555 C124.892,6.80814555 124.629,7.29614555 124.471,7.96914555 C124.901,7.74214555 125.331,7.51514555 125.763,7.28814555 C125.786,7.52814555 125.838,7.75514555 125.987,7.92914555 C125.969,7.98614555 125.954,8.04314555 125.932,8.10114555 C125.741,8.20214555 125.58,8.28714555 125.58,8.28714555 C125.575,8.42914555 125.586,8.56214555 125.612,8.68714555 C124.805,9.88814555 123.194,11.1411456 123.845,11.5481456 C124.266,11.7111456 124.953,11.0151456 125.793,10.3411456 C125.877,10.3651456 125.968,10.3801456 126.055,10.3831456 C124.901,11.1721456 126.576,11.3721456 125.913,11.9001456 C124.93,12.4191456 124.024,13.0791456 123.04,13.5961456 C119.039,15.7061456 115.74,17.6241456 112.031,20.1191456 C111.868,20.2291456 111.704,20.3341456 111.54,20.4411456 C109.727,21.6221456 107.944,22.6001456 106.019,23.4731456 C106.087,23.3131456 106.163,23.1571456 106.245,23.0041456 C104.697,23.7051456 103.176,24.4661456 101.785,25.4731456 C98.397,27.9811456 95.009,30.4881456 91.152,32.7011456 C87.091,34.9861456 83.28,37.3731456 79.346,40.0501456 C80.889,38.8341456 82.446,37.6481456 84.148,36.6281456 C84.943,36.2271456 85.731,35.8211456 86.477,35.3911456 C85.663,35.7621456 84.893,36.1791456 84.148,36.6281456 C81.089,38.1671456 77.888,39.6371456 76.252,42.1921456 C75.938,42.2081456 75.864,42.0671456 75.618,42.1961456 C73.898,43.1031456 72.103,43.8681456 70.927,45.2101456 C71.001,45.3511456 70.263,45.7401456 70.657,45.8931456 C69.257,46.8111456 67.535,47.7191456 66.211,48.7781456 C65.62,49.2061456 65.127,49.8121456 64.664,50.4801456 C59.787,54.0171456 54.973,57.5291456 49.665,61.2421456 C48.324,62.1221456 46.697,62.9851456 45.268,63.7391456 C47.123,62.1591456 49.085,60.6261456 51.101,59.1151456 C53.29,58.0941456 55.335,57.0151456 56.636,55.4031456 C56.957,55.0611456 57.28,54.7291456 57.609,54.4041456 C55.402,55.9671456 53.219,57.5291456 51.101,59.1151456 C49.808,59.7201456 48.466,60.3031456 47.197,60.9651456 C47.217,60.9411456 47.235,60.9181456 47.257,60.8941456 C48.155,60.1891456 49.066,59.4901456 49.99,58.7981456 C51.938,57.8891456 53.768,56.9351456 55.066,55.6011456 C55.227,55.4351456 55.384,55.2631456 55.527,55.0851456 C55.846,54.7441456 56.172,54.4111456 56.5,54.0871456 C55.138,55.0501456 53.787,56.0141456 52.454,56.9831456 C51.628,57.5851456 50.804,58.1881456 49.99,58.7981456 C49.419,59.0641456 48.836,59.3291456 48.257,59.5951456 C48.297,59.5291456 48.342,59.4621456 48.376,59.3941456 C48.796,58.9941456 49.297,56.6091456 48.337,56.5731456 C44.572,58.6011456 39.615,62.0721456 39.541,61.9301456 C38.999,61.4941456 45.092,57.3361456 44.773,57.3221456 C44.376,57.4501456 43.984,57.5891456 43.597,57.7341456 C43.882,57.4371456 44.157,57.1411456 44.397,56.8441456 C45.059,56.3141456 46.117,55.9371456 46.461,55.3951456 C47.734,53.6411456 49.849,52.8871456 51.518,51.2881456 C52.525,50.2151456 53.7,48.8741456 54.876,47.5311456 C54.728,47.2491456 55.541,47.0011456 55.145,46.8471456 C56.532,46.1171456 58.137,45.2711456 58.297,44.1331456 C58.327,44.1071456 58.357,44.0831456 58.386,44.0571456 C58.484,44.0061456 58.598,43.8861456 58.713,43.7431456 C61.097,42.6721456 62.294,41.0391456 64.101,39.3931456 C64.782,38.9421456 65.49,38.5091456 66.242,38.1121456 C65.751,38.3711456 64.94,38.6191456 64.521,39.0191456 C64.378,39.1431456 64.238,39.2681456 64.101,39.3931456 C62.334,40.5631456 60.756,41.8761456 59.144,43.1171456 C59.043,43.2761456 58.881,43.5341456 58.713,43.7431456 C58.581,43.8041456 58.448,43.8621456 58.312,43.9161456 C58.312,43.9901456 58.306,44.0621456 58.297,44.1331456 C56.814,45.4321456 54.971,46.5891456 53.745,47.7671456 C51.272,49.6861456 48.239,50.9811456 45.415,52.3661456 C46.674,51.4011456 47.904,50.4261456 49.1,49.4471456 C47.549,50.5731456 46.095,51.6501456 44.698,52.7231456 C44.457,52.8451456 44.223,52.9651456 43.988,53.0891456 L42.511,53.8671456 C43.004,53.6871456 43.484,53.4951456 43.959,53.2981456 C43.128,53.9441456 42.311,54.5921456 41.517,55.2491456 C36.937,58.5071456 32.032,61.5301456 26.928,63.9401456 C26.935,63.7181456 26.957,63.4871456 26.992,63.2521456 C29.353,61.9001456 31.756,60.6331456 33.326,58.8431456 C31.938,59.5741456 31.109,60.3281456 29.785,61.0621456 C29.744,60.9801456 29.669,60.8711456 29.754,60.7601456 C28.982,61.3721456 28.061,62.0511456 27.112,62.6081456 C27.231,62.0781456 27.389,61.5321456 27.546,60.9861456 C27.89,60.4441456 28.627,60.0551456 29.29,59.5251456 C32.352,57.6001456 35.396,56.0881456 38.358,54.0901456 C41.184,52.6701456 44.007,51.2501456 46.737,49.7791456 C44.222,51.6131456 41.931,53.3391456 39.764,55.1351456 L39.764,55.1351456 Z" id="Fill-52" fill="#ECEEF1"></path>
                <path d="M44.474,53.0751456 C43.504,53.8071456 42.52,54.5351456 41.517,55.2491456 C40.777,55.8621456 40.048,56.4841456 39.329,57.1241456 C35.782,59.9591456 31.038,62.1341456 26.979,64.7071456 C27.073,65.1881456 27.282,65.6201456 27.665,65.9771456 C32.51,64.0111456 36.713,60.8301456 41.437,58.6411456 C41.465,58.6071456 41.495,58.5761456 41.521,58.5401456 C43.042,56.6561456 46.386,55.2541456 48.471,53.2531456 C50.483,51.1101456 52.792,49.5321456 54.876,47.5311456 C51.324,49.4021456 48.109,51.4861456 44.474,53.0751456" id="Fill-53" fill="#ECEEF1"></path>
                <path d="M69.611,31.2661456 C68.693,31.8571456 67.77,32.4531456 66.843,33.0581456 C64.305,34.8231456 62.119,36.5161456 59.924,38.3251456 C61.693,37.2991456 63.487,36.2951456 65.319,35.3291456 C67.073,34.2131456 68.252,32.6811456 69.611,31.2661456" id="Fill-54" fill="#ECEEF1"></path>
                <path d="M58.151,39.8051456 C58.747,39.2991456 59.335,38.8091456 59.924,38.3251456 C57.302,39.8461456 54.732,41.4171456 52.175,43.0001456 C48.115,45.8741456 44.012,48.6761456 40.042,51.7191456 C39.586,52.0551456 39.127,52.3781456 38.665,52.6871456 C46.869,48.5671456 55.049,44.4621456 61.002,39.0491456 C61.108,38.9451456 61.233,38.8391456 61.348,38.7341456 C58.119,40.5581456 54.983,42.4731456 51.866,44.4011456 C53.98,42.9031456 56.084,41.3881456 58.151,39.8051456" id="Fill-55" fill="#ECEEF1"></path>
                <path d="M45.415,52.3661456 C45.173,52.4851456 44.935,52.6031456 44.698,52.7231456 C44.448,52.9151456 44.203,53.1061456 43.959,53.2981456 C44.132,53.2231456 44.304,53.1491456 44.474,53.0751456 C44.789,52.8381456 45.105,52.6041456 45.415,52.3661456" id="Fill-56" fill="#ECEEF1"></path>
                <path d="M54.351,52.3251456 C54.384,52.3141456 54.417,52.3031456 54.45,52.2911456 C55.184,51.8011456 55.939,51.3151456 56.702,50.8301456 C57.666,49.9941456 58.701,49.1711456 59.787,48.3871456 C57.745,49.6681456 55.728,50.9431456 54.351,52.3251456" id="Fill-57" fill="#ECEEF1"></path>
                <path d="M62.948,52.1221456 C63.195,51.9921456 63.684,51.7331456 63.932,51.6031456 C64.036,51.4381456 64.139,51.2751456 64.244,51.1121456 C64.011,51.2261456 63.773,51.3401456 63.536,51.4511456 L62.948,52.1221456" id="Fill-58" fill="#ECEEF1"></path>
                <path d="M76.252,42.1921456 C72.186,45.0381456 68.407,47.7671456 64.664,50.4801456 C64.522,50.6861456 64.382,50.8981456 64.244,51.1121456 C67.006,49.7671456 69.614,48.1631456 71.693,46.0691456 C72.109,45.6701456 72.624,44.8561456 73.115,44.5981456 C75.371,43.2381456 77.351,41.6221456 79.346,40.0501456 C78.352,40.7261456 77.353,41.4161456 76.338,42.1341456 C76.309,42.1521456 76.281,42.1731456 76.252,42.1921456" id="Fill-59" fill="#ECEEF1"></path>
                <path d="M26.679,25.8371456 L26.679,30.5951456 L29.664,30.5951456 C30.396,30.5951456 30.973,30.3801456 31.395,29.9481456 C31.817,29.5151456 32.029,28.9481456 32.029,28.2441456 C32.029,27.5401456 31.813,26.9631456 31.381,26.5121456 C30.949,26.0611456 30.376,25.8371456 29.664,25.8371456 L26.679,25.8371456 Z M26.679,34.2551456 L26.679,41.9411456 L21.865,41.9411456 L21.865,22.1771456 L29.664,22.1771456 C31.953,22.1771456 33.736,22.7681456 35.013,23.9511456 C36.289,25.1331456 36.927,26.5601456 36.927,28.2301456 C36.927,29.3751456 36.58,30.4921456 35.886,31.5811456 C35.191,32.6691456 34.056,33.4381456 32.479,33.8881456 L37.322,41.9411456 L31.69,41.9411456 L27.242,34.2551456 L26.679,34.2551456 L26.679,34.2551456 Z" id="Fill-60" fill="#272525"></path>
                <polyline id="Fill-61" fill="#272525" points="52.356 22.1211456 52.356 25.7801456 45.205 25.7801456 45.205 30.0311456 51.511 30.0311456 51.511 33.6911456 45.205 33.6911456 45.205 38.2811456 52.356 38.2811456 52.356 41.9411456 40.39 41.9411456 40.39 22.1211456 52.356 22.1211456"></polyline>
                <polyline id="Fill-62" fill="#272525" points="54.862 25.8371456 54.862 22.1771456 70.459 22.1771456 70.459 25.8371456 65.053 25.8371456 65.053 41.9411456 60.24 41.9411456 60.24 25.8371456 54.862 25.8371456"></polyline>
                <path d="M77.863,25.8371456 L77.863,30.5951456 L80.848,30.5951456 C81.579,30.5951456 82.156,30.3801456 82.579,29.9481456 C83.001,29.5151456 83.212,28.9481456 83.212,28.2441456 C83.212,27.5401456 82.996,26.9631456 82.566,26.5121456 C82.133,26.0611456 81.561,25.8371456 80.848,25.8371456 L77.863,25.8371456 Z M77.863,34.2551456 L77.863,41.9411456 L73.049,41.9411456 L73.049,22.1771456 L80.848,22.1771456 C83.137,22.1771456 84.92,22.7681456 86.197,23.9511456 C87.473,25.1331456 88.112,26.5601456 88.112,28.2301456 C88.112,29.3751456 87.764,30.4921456 87.07,31.5811456 C86.375,32.6691456 85.239,33.4381456 83.662,33.8881456 L88.505,41.9411456 L82.875,41.9411456 L78.426,34.2551456 L77.863,34.2551456 L77.863,34.2551456 Z" id="Fill-63" fill="#272525"></path>
                <path d="M104.342,36.1411456 C105.289,35.1091456 105.764,33.7301456 105.764,32.0031456 C105.764,30.2761456 105.289,28.8961456 104.342,27.8641456 C103.394,26.8321456 102.126,26.3151456 100.541,26.3151456 C98.954,26.3151456 97.688,26.8321456 96.74,27.8641456 C95.792,28.8961456 95.319,30.2761456 95.319,32.0031456 C95.319,33.7301456 95.792,35.1091456 96.74,36.1411456 C97.688,37.1741456 98.954,37.6891456 100.541,37.6891456 C102.126,37.6891456 103.394,37.1741456 104.342,36.1411456 Z M93.362,39.2651456 C91.4,37.3511456 90.419,34.9311456 90.419,32.0031456 C90.419,29.0751456 91.4,26.6581456 93.362,24.7531456 C95.322,22.8471456 97.726,21.8951456 100.569,21.8951456 C103.412,21.8951456 105.806,22.8471456 107.748,24.7531456 C109.692,26.6581456 110.662,29.0751456 110.662,32.0031456 C110.662,34.9311456 109.686,37.3511456 107.735,39.2651456 C105.782,41.1801456 103.389,42.1381456 100.555,42.1381456 C97.721,42.1381456 95.322,41.1801456 93.362,39.2651456 L93.362,39.2651456 Z" id="Fill-64" fill="#272525"></path>
                <polyline id="Fill-65" fill="#272525" points="50.937 9.77014555 50.937 7.71214555 59.709 7.71214555 59.709 9.77014555 56.668 9.77014555 56.668 18.8271456 53.961 18.8271456 53.961 9.77014555 50.937 9.77014555"></polyline>
                <polyline id="Fill-66" fill="#272525" points="68.163 7.71214555 70.871 7.71214555 70.871 18.8271456 68.163 18.8271456 68.163 14.2201456 63.873 14.2201456 63.873 18.8271456 61.165 18.8271456 61.165 7.71214555 63.873 7.71214555 63.873 12.1611456 68.163 12.1611456 68.163 7.71214555"></polyline>
                <polyline id="Fill-67" fill="#272525" points="79.817 7.68014555 79.817 9.73914555 75.795 9.73914555 75.795 12.1301456 79.342 12.1301456 79.342 14.1881456 75.795 14.1881456 75.795 16.7691456 79.817 16.7691456 79.817 18.8271456 73.087 18.8271456 73.087 7.68014555 79.817 7.68014555"></polyline>
                <path d="M36.303,51.9741456 C36.122,51.9741456 35.973,52.0221456 35.858,52.1191456 C35.742,52.2151456 35.684,52.3531456 35.684,52.5331456 C35.684,52.7141456 35.739,52.8591456 35.845,52.9701456 C35.953,53.0801456 36.093,53.1651456 36.264,53.2231456 C36.437,53.2831456 36.629,53.3401456 36.841,53.3931456 C37.052,53.4471456 37.262,53.5111456 37.471,53.5881456 C37.68,53.6641456 37.871,53.7591456 38.043,53.8711456 C38.215,53.9851456 38.355,54.1441456 38.462,54.3501456 C38.57,54.5561456 38.623,54.8031456 38.623,55.0911456 C38.623,55.5941456 38.418,56.0231456 38.009,56.3831456 C37.6,56.7411456 37.061,56.9201456 36.391,56.9201456 C35.722,56.9201456 35.184,56.7591456 34.775,56.4371456 C34.365,56.1151456 34.161,55.6581456 34.161,55.0651456 L35.702,55.0651456 C35.741,55.5401456 35.984,55.7771456 36.43,55.7771456 C36.638,55.7771456 36.802,55.7211456 36.921,55.6111456 C37.04,55.5021456 37.099,55.3621456 37.099,55.1921456 C37.099,55.0231456 37.045,54.8851456 36.938,54.7771456 C36.83,54.6711456 36.691,54.5861456 36.519,54.5231456 C36.346,54.4621456 36.155,54.4041456 35.943,54.3501456 C35.731,54.2971456 35.521,54.2301456 35.312,54.1511456 C35.103,54.0721456 34.913,53.9771456 34.74,53.8671456 C34.568,53.7571456 34.428,53.5991456 34.322,53.3931456 C34.214,53.1871456 34.161,52.9431456 34.161,52.6611456 C34.161,52.1071456 34.366,51.6651456 34.779,51.3311456 C35.19,50.9981456 35.717,50.8321456 36.358,50.8321456 C36.998,50.8321456 37.517,50.9771456 37.912,51.2681456 C38.306,51.5581456 38.513,52.0171456 38.53,52.6431456 L36.955,52.6431456 C36.932,52.4291456 36.863,52.2641456 36.747,52.1481456 C36.632,52.0321456 36.484,51.9741456 36.303,51.9741456" id="Fill-68" fill="#000000"></path>
                <polyline id="Fill-69" fill="#000000" points="44.779 52.0171456 44.779 50.9171456 49.469 50.9171456 49.469 52.0171456 47.844 52.0171456 47.844 56.8601456 46.396 56.8601456 46.396 52.0171456 44.779 52.0171456"></polyline>
                <path d="M55.728,54.4651456 L55.728,50.9171456 L57.175,50.9171456 L57.175,54.4651456 C57.175,54.8201456 57.262,55.0941456 57.437,55.2851456 C57.613,55.4771456 57.87,55.5741456 58.208,55.5741456 C58.547,55.5741456 58.806,55.4771456 58.987,55.2851456 C59.168,55.0941456 59.258,54.8201456 59.258,54.4651456 L59.258,50.9171456 L60.706,50.9171456 L60.706,54.4651456 C60.706,54.9891456 60.583,55.4421456 60.338,55.8231456 C60.093,56.2041456 59.782,56.4821456 59.407,56.6571456 C59.031,56.8331456 58.623,56.9201456 58.183,56.9201456 C57.494,56.9201456 56.912,56.7061456 56.438,56.2761456 C55.964,55.8471456 55.728,55.2441456 55.728,54.4651456" id="Fill-70" fill="#000000"></path>
                <path d="M68.81,55.7601456 L69.453,55.7601456 C70.006,55.7601456 70.442,55.5911456 70.757,55.2521456 C71.073,54.9131456 71.232,54.4591456 71.232,53.8881456 C71.232,53.3181456 71.073,52.8641456 70.757,52.5251456 C70.442,52.1861456 70.006,52.0171456 69.453,52.0171456 L68.81,52.0171456 L68.81,55.7601456 Z M69.453,50.9171456 C70.402,50.9171456 71.181,51.1911456 71.79,51.7421456 C72.4,52.2931456 72.705,53.0071456 72.705,53.8851456 C72.705,54.7611456 72.4,55.4771456 71.79,56.0311456 C71.181,56.5841456 70.402,56.8601456 69.453,56.8601456 L67.362,56.8601456 L67.362,50.9171456 L69.453,50.9171456 L69.453,50.9171456 Z" id="Fill-71" fill="#000000"></path>
                <polygon id="Fill-72" fill="#000000" points="79.038 56.8601456 80.487 56.8601456 80.487 50.9171456 79.038 50.9171456"></polygon>
                <path d="M91.016,55.1161456 C91.301,54.8051456 91.444,54.3901456 91.444,53.8711456 C91.444,53.3521456 91.301,52.9371456 91.016,52.6271456 C90.731,52.3161456 90.35,52.1611456 89.873,52.1611456 C89.396,52.1611456 89.015,52.3161456 88.73,52.6271456 C88.445,52.9371456 88.302,53.3521456 88.302,53.8711456 C88.302,54.3901456 88.445,54.8051456 88.73,55.1161456 C89.015,55.4271456 89.396,55.5821456 89.873,55.5821456 C90.35,55.5821456 90.731,55.4271456 91.016,55.1161456 Z M87.713,56.0561456 C87.123,55.4801456 86.828,54.7521456 86.828,53.8711456 C86.828,52.9911456 87.123,52.2641456 87.713,51.6911456 C88.303,51.1191456 89.026,50.8321456 89.881,50.8321456 C90.737,50.8321456 91.456,51.1191456 92.04,51.6911456 C92.625,52.2641456 92.917,52.9911456 92.917,53.8711456 C92.917,54.7521456 92.623,55.4801456 92.036,56.0561456 C91.449,56.6321456 90.729,56.9201456 89.877,56.9201456 C89.025,56.9201456 88.303,56.6321456 87.713,56.0561456 L87.713,56.0561456 Z" id="Fill-73" fill="#000000"></path>
            </g>
        </g>
    </g>
</svg>