<?xml version="1.0" encoding="UTF-8"?>
<svg width="153px" height="41px" viewBox="0 0 153 41" version="1.1" xmlns="http://www.w3.org/2000/svg" xmlns:xlink="http://www.w3.org/1999/xlink">
    <title>Group 7</title>
    <g id="Page-1" stroke="none" stroke-width="1" fill="none" fill-rule="evenodd">
        <g id="59924" transform="translate(-816.000000, -61.000000)">
            <g id="Group-7" transform="translate(816.036408, 61.016413)">
                <path d="M151.559592,26.8585875 C146.001592,26.6545875 140.420592,27.0695875 136.287592,25.6815875 C134.897592,25.6315875 137.750592,23.2635875 136.401592,21.9755875 C135.010592,21.9245875 132.229592,21.8235875 130.836592,21.7725875 C129.504592,19.8705875 132.342592,18.1215875 131.007592,16.2175875 C129.674592,14.3155875 124.075592,15.3465875 122.723592,14.0605875 C118.586592,12.6735875 125.561592,12.3115875 129.731592,12.4635875 C128.380592,11.1785875 132.512592,12.5665875 132.550592,11.3305875 C132.625592,8.86158747 132.701592,6.39158747 127.196592,4.33758747 C125.825592,3.66858747 127.273592,1.86758747 127.311592,0.632587472 C110.626592,0.0225874722 92.5525915,-0.639412528 75.7935915,1.21958747 C61.8335915,2.56258747 45.0975915,-0.709412528 31.2635915,0.824587472 C27.0725915,1.28958747 20.1975915,-1.43541253 17.3235915,1.54958747 C18.7125915,1.60058747 20.1035915,1.65158747 21.4925915,1.70258747 C17.2675915,3.40258747 13.1515915,1.39758747 8.96259151,1.86158747 C8.92559151,3.09758747 8.90559151,3.71458747 7.49459151,4.28058747 C10.2765915,4.38258747 14.4655915,3.91758747 17.2295915,4.63758747 L17.1725915,6.48758747 C14.3705915,7.00458747 10.2385915,5.61758747 7.43859151,6.13158747 C7.41959151,6.75058747 7.38159151,7.98558747 7.36259151,8.60258747 C7.34459151,9.21958747 5.95359151,9.16858747 4.56459151,9.11758747 C5.95359151,9.16858747 8.73559151,9.27058747 10.1255915,9.32058747 C10.1065915,9.93758747 10.0675915,11.1735875 10.0495915,11.7895875 C10.0305915,12.4085875 8.64159151,12.3575875 7.24959151,12.3065875 C7.21159151,13.5405875 5.78359151,14.7245875 7.15459151,15.3925875 C8.54759151,15.4435875 9.93659151,15.4935875 11.3265915,15.5445875 C5.74559151,15.9595875 2.86959151,18.9435875 2.81359151,20.7955875 C4.22459151,20.2285875 4.16759151,22.0815875 5.57559151,21.5145875 C1.34859151,23.2135875 -2.89840849,25.5295875 2.64359151,26.3495875 C51.2475915,29.9845875 101.375592,29.3475875 150.076592,29.8945875 C152.877592,29.3785875 151.521592,28.0925875 151.559592,26.8585875" id="Fill-179" fill="#C7C9CD"></path>
                <path d="M16.6585915,11.0855875 L16.6585915,14.1105875 L18.5555915,14.1105875 C19.0215915,14.1105875 19.3875915,13.9725875 19.6555915,13.6985875 C19.9245915,13.4235875 20.0585915,13.0635875 20.0585915,12.6155875 C20.0585915,12.1675875 19.9215915,11.8005875 19.6475915,11.5145875 C19.3725915,11.2285875 19.0085915,11.0855875 18.5555915,11.0855875 L16.6585915,11.0855875 Z M16.6585915,16.4365875 L16.6585915,21.3215875 L13.5985915,21.3215875 L13.5985915,8.75858747 L18.5555915,8.75858747 C20.0115915,8.75858747 21.1445915,9.13458747 21.9555915,9.88558747 C22.7675915,10.6375875 23.1725915,11.5445875 23.1725915,12.6075875 C23.1725915,13.3345875 22.9515915,14.0445875 22.5105915,14.7365875 C22.0685915,15.4275875 21.3475915,15.9175875 20.3455915,16.2035875 L23.4235915,21.3215875 L19.8445915,21.3215875 L17.0165915,16.4365875 L16.6585915,16.4365875 L16.6585915,16.4365875 Z" id="Fill-180" fill="#000000"></path>
                <polyline id="Fill-181" fill="#000000" points="38.1155915 8.72258747 38.1155915 11.0495875 33.5695915 11.0495875 33.5695915 13.7525875 37.5785915 13.7525875 37.5785915 16.0785875 33.5695915 16.0785875 33.5695915 18.9955875 38.1155915 18.9955875 38.1155915 21.3215875 30.5105915 21.3215875 30.5105915 8.72258747 38.1155915 8.72258747"></polyline>
                <polyline id="Fill-182" fill="#000000" points="45.7035915 21.3215875 45.7035915 8.75858747 53.8825915 8.75858747 53.8825915 11.0855875 48.7645915 11.0855875 48.7645915 13.7875875 52.5945915 13.7875875 52.5945915 16.1135875 48.7645915 16.1135875 48.7645915 21.3215875 45.7035915 21.3215875"></polyline>
                <path d="M64.0115915,11.0855875 L64.0115915,14.1105875 L65.9085915,14.1105875 C66.3735915,14.1105875 66.7405915,13.9725875 67.0095915,13.6985875 C67.2775915,13.4235875 67.4115915,13.0635875 67.4115915,12.6155875 C67.4115915,12.1675875 67.2755915,11.8005875 67.0005915,11.5145875 C66.7265915,11.2285875 66.3615915,11.0855875 65.9085915,11.0855875 L64.0115915,11.0855875 Z M64.0115915,16.4365875 L64.0115915,21.3215875 L60.9515915,21.3215875 L60.9515915,8.75858747 L65.9085915,8.75858747 C67.3635915,8.75858747 68.4975915,9.13458747 69.3095915,9.88558747 C70.1205915,10.6375875 70.5265915,11.5445875 70.5265915,12.6075875 C70.5265915,13.3345875 70.3055915,14.0445875 69.8635915,14.7365875 C69.4225915,15.4275875 68.7005915,15.9175875 67.6985915,16.2035875 L70.7765915,21.3215875 L67.1965915,21.3215875 L64.3695915,16.4365875 L64.0115915,16.4365875 L64.0115915,16.4365875 Z" id="Fill-183" fill="#000000"></path>
                <polyline id="Fill-184" fill="#000000" points="85.4695915 8.72258747 85.4695915 11.0495875 80.9235915 11.0495875 80.9235915 13.7525875 84.9325915 13.7525875 84.9325915 16.0785875 80.9235915 16.0785875 80.9235915 18.9955875 85.4695915 18.9955875 85.4695915 21.3215875 77.8625915 21.3215875 77.8625915 8.72258747 85.4695915 8.72258747"></polyline>
                <path d="M97.3165915,10.9965875 C96.9345915,10.9965875 96.6215915,11.0975875 96.3765915,11.3005875 C96.1325915,11.5035875 96.0105915,11.7955875 96.0105915,12.1765875 C96.0105915,12.5595875 96.1235915,12.8655875 96.3505915,13.0985875 C96.5765915,13.3315875 96.8715915,13.5105875 97.2355915,13.6355875 C97.5995915,13.7605875 98.0055915,13.8795875 98.4525915,13.9935875 C98.9005915,14.1075875 99.3445915,14.2445875 99.7855915,14.4045875 C100.227592,14.5665875 100.630592,14.7665875 100.993592,15.0045875 C101.358592,15.2435875 101.653592,15.5805875 101.879592,16.0155875 C102.106592,16.4515875 102.220592,16.9725875 102.220592,17.5815875 C102.220592,18.6435875 101.787592,19.5535875 100.922592,20.3115875 C100.057592,21.0685875 98.9185915,21.4475875 97.5045915,21.4475875 C96.0905915,21.4475875 94.9505915,21.1075875 94.0865915,20.4275875 C93.2215915,19.7475875 92.7885915,18.7805875 92.7885915,17.5275875 L96.0455915,17.5275875 C96.1295915,18.5295875 96.6425915,19.0315875 97.5845915,19.0315875 C98.0265915,19.0315875 98.3725915,18.9145875 98.6225915,18.6825875 C98.8735915,18.4495875 98.9985915,18.1535875 98.9985915,17.7965875 C98.9985915,17.4385875 98.8855915,17.1465875 98.6585915,16.9195875 C98.4325915,16.6925875 98.1365915,16.5135875 97.7735915,16.3825875 C97.4085915,16.2515875 97.0035915,16.1295875 96.5555915,16.0155875 C96.1085915,15.9025875 95.6635915,15.7625875 95.2225915,15.5955875 C94.7805915,15.4275875 94.3785915,15.2285875 94.0145915,14.9955875 C93.6515915,14.7625875 93.3555915,14.4285875 93.1285915,13.9935875 C92.9015915,13.5585875 92.7885915,13.0425875 92.7885915,12.4455875 C92.7885915,11.2765875 93.2245915,10.3395875 94.0955915,9.63558747 C94.9655915,8.93258747 96.0785915,8.58058747 97.4335915,8.58058747 C98.7865915,8.58058747 99.8815915,8.88658747 100.716592,9.50158747 C101.551592,10.1155875 101.987592,11.0855875 102.023592,12.4095875 L98.6945915,12.4095875 C98.6475915,11.9565875 98.5005915,11.6075875 98.2555915,11.3625875 C98.0115915,11.1185875 97.6985915,10.9965875 97.3165915,10.9965875" id="Fill-185" fill="#000000"></path>
                <polyline id="Fill-186" fill="#000000" points="117.503592 8.75858747 120.563592 8.75858747 120.563592 21.3215875 117.503592 21.3215875 117.503592 16.1135875 112.652592 16.1135875 112.652592 21.3215875 109.593592 21.3215875 109.593592 8.75858747 112.652592 8.75858747 112.652592 13.7875875 117.503592 13.7875875 117.503592 8.75858747"></polyline>
                <polyline id="Fill-187" fill="#000000" points="38.2655915 34.5635875 38.2655915 39.5335875 37.0555915 39.5335875 37.0555915 36.7295875 35.9015915 39.5335875 35.0015915 39.5335875 33.8485915 36.7295875 33.8485915 39.5335875 32.6375915 39.5335875 32.6375915 34.5635875 34.0255915 34.5635875 35.4545915 37.9905875 36.8775915 34.5635875 38.2655915 34.5635875"></polyline>
                <path d="M44.8925915,37.7775875 L46.0675915,37.7775875 L45.4805915,36.0075875 L44.8925915,37.7775875 Z M46.6485915,39.5335875 L46.3715915,38.6975875 L44.5885915,38.6975875 L44.3125915,39.5335875 L43.0235915,39.5335875 L44.7505915,34.5495875 L46.2235915,34.5495875 L47.9435915,39.5335875 L46.6485915,39.5335875 L46.6485915,39.5335875 Z" id="Fill-188" fill="#000000"></path>
                <path d="M53.1515915,38.8575875 C52.6575915,38.3785875 52.4105915,37.7705875 52.4105915,37.0345875 C52.4105915,36.2985875 52.6575915,35.6905875 53.1515915,35.2115875 C53.6445915,34.7325875 54.2475915,34.4925875 54.9595915,34.4925875 C55.5125915,34.4925875 56.0025915,34.6395875 56.4325915,34.9315875 C56.8615915,35.2245875 57.1615915,35.6305875 57.3315915,36.1495875 L55.8875915,36.1495875 C55.6985915,35.7855875 55.3965915,35.6045875 54.9815915,35.6045875 C54.5665915,35.6045875 54.2385915,35.7335875 54.0005915,35.9935875 C53.7625915,36.2535875 53.6435915,36.6005875 53.6435915,37.0345875 C53.6435915,37.4695875 53.7625915,37.8165875 54.0005915,38.0745875 C54.2385915,38.3345875 54.5595915,38.4645875 54.9595915,38.4645875 C55.2475915,38.4645875 55.4825915,38.3925875 55.6645915,38.2495875 C55.8455915,38.1045875 55.9675915,37.9125875 56.0285915,37.6715875 L54.6275915,37.6715875 L54.6275915,36.7515875 L57.3315915,36.7515875 L57.3315915,37.6715875 C57.2415915,38.1245875 56.9935915,38.5475875 56.5885915,38.9395875 C56.3945915,39.1275875 56.1545915,39.2815875 55.8695915,39.3995875 C55.5835915,39.5175875 55.2805915,39.5765875 54.9595915,39.5765875 C54.2475915,39.5765875 53.6445915,39.3365875 53.1515915,38.8575875" id="Fill-189" fill="#000000"></path>
                <path d="M63.6745915,37.7775875 L64.8505915,37.7775875 L64.2625915,36.0075875 L63.6745915,37.7775875 Z M65.4315915,39.5335875 L65.1545915,38.6975875 L63.3705915,38.6975875 L63.0945915,39.5335875 L61.8065915,39.5335875 L63.5335915,34.5495875 L65.0065915,34.5495875 L66.7265915,39.5335875 L65.4315915,39.5335875 L65.4315915,39.5335875 Z" id="Fill-190" fill="#000000"></path>
                <polyline id="Fill-191" fill="#000000" points="74.8185915 34.5635875 74.8185915 35.4845875 72.7015915 38.6125875 74.8185915 38.6125875 74.8185915 39.5335875 71.3075915 39.5335875 71.3075915 38.6125875 73.4235915 35.4845875 71.3075915 35.4845875 71.3075915 34.5635875 74.8185915 34.5635875"></polyline>
                <polygon id="Fill-192" fill="#000000" points="79.8665915 39.5335875 81.0775915 39.5335875 81.0775915 34.5635875 79.8665915 34.5635875"></polygon>
                <polyline id="Fill-193" fill="#000000" points="89.5375915 34.5495875 90.7475915 34.5495875 90.7475915 39.5335875 89.5375915 39.5335875 87.5125915 36.3975875 87.5125915 39.5335875 86.3025915 39.5335875 86.3025915 34.5495875 87.5125915 34.5495875 89.5375915 37.6855875 89.5375915 34.5495875"></polyline>
                <polyline id="Fill-194" fill="#000000" points="98.9825915 34.5495875 98.9825915 35.4695875 97.1845915 35.4695875 97.1845915 36.5395875 98.7705915 36.5395875 98.7705915 37.4595875 97.1845915 37.4595875 97.1845915 38.6125875 98.9825915 38.6125875 98.9825915 39.5335875 95.9735915 39.5335875 95.9735915 34.5495875 98.9825915 34.5495875"></polyline>
            </g>
        </g>
    </g>
</svg>