<?xml version="1.0" encoding="UTF-8"?>
<svg width="230px" height="61px" viewBox="0 0 230 61" version="1.1" xmlns="http://www.w3.org/2000/svg" xmlns:xlink="http://www.w3.org/1999/xlink">
    <title>logo</title>
    <g id="Page-1" stroke="none" stroke-width="1" fill="none" fill-rule="evenodd">
        <g id="logo">
            <path d="M60.84,25 L60.84,8.71 L60.9,8.71 L66.27,25 L69.84,25 L75.42,8.71 L75.48,8.71 L75.48,25 L80.16,25 L80.16,3.76 L73.11,3.76 L68.19,17.62 L68.13,17.62 L63.24,3.76 L56.16,3.76 L56.16,25 L60.84,25 Z M86.5676471,25 L88.3376471,20.5 L96.5876471,20.5 L98.4176471,25 L103.697647,25 L94.4576471,3.76 L90.5876471,3.76 L81.4076471,25 L86.5676471,25 Z M94.9976471,16.54 L89.8076471,16.54 L92.3876471,9.94 L94.9976471,16.54 Z M109.625294,25 L109.625294,16.51 L111.935294,16.51 L116.375294,25 L121.985294,25 L116.585294,16.03 C118.085294,15.75 119.225294,15.085 120.005294,14.035 C120.785294,12.985 121.175294,11.71 121.175294,10.21 C121.175294,8.97 120.960294,7.935 120.530294,7.105 C120.100294,6.275 119.520294,5.615 118.790294,5.125 C118.060294,4.635 117.210294,4.285 116.240294,4.075 C115.270294,3.865 114.245294,3.76 113.165294,3.76 L113.165294,3.76 L104.945294,3.76 L104.945294,25 L109.625294,25 Z M112.385294,12.55 L109.625294,12.55 L109.625294,7.72 L112.685294,7.72 C113.105294,7.72 113.535294,7.75 113.975294,7.81 C114.415294,7.87 114.805294,7.985 115.145294,8.155 C115.485294,8.325 115.765294,8.57 115.985294,8.89 C116.205294,9.21 116.315294,9.64 116.315294,10.18 C116.315294,10.76 116.190294,11.21 115.940294,11.53 C115.690294,11.85 115.375294,12.085 114.995294,12.235 C114.615294,12.385 114.190294,12.475 113.720294,12.505 C113.250294,12.535 112.805294,12.55 112.385294,12.55 L112.385294,12.55 Z M128.362941,25 L128.362941,14.92 L137.002941,25 L143.542941,25 L133.282941,13.63 L142.732941,3.76 L136.612941,3.76 L128.362941,12.58 L128.362941,3.76 L123.682941,3.76 L123.682941,25 L128.362941,25 Z M159.430588,25 L159.430588,20.68 L149.140588,20.68 L149.140588,16.36 L158.350588,16.36 L158.350588,12.04 L149.140588,12.04 L149.140588,8.08 L158.890588,8.08 L158.890588,3.76 L144.460588,3.76 L144.460588,25 L159.430588,25 Z M171.088235,25 L171.088235,7.9 L177.148235,7.9 L177.148235,3.76 L160.348235,3.76 L160.348235,7.9 L166.408235,7.9 L166.408235,25 L171.088235,25 Z M183.255882,25 L183.255882,3.76 L178.575882,3.76 L178.575882,25 L183.255882,25 Z M191.313529,25 L191.313529,9.88 L191.373529,9.88 L200.643529,25 L206.763529,25 L206.763529,3.76 L202.083529,3.76 L202.083529,18.52 L202.023529,18.52 L192.993529,3.76 L186.633529,3.76 L186.633529,25 L191.313529,25 Z M220.521176,25.54 C222.081176,25.54 223.611176,25.38 225.111176,25.06 C226.611176,24.74 228.051176,24.22 229.431176,23.5 L229.431176,23.5 L229.431176,12.4 L221.121176,12.4 L221.121176,16.72 L224.931176,16.72 L224.931176,20.17 C224.491176,20.41 223.901176,20.645 223.161176,20.875 C222.421176,21.105 221.541176,21.22 220.521176,21.22 C219.521176,21.22 218.616176,21.05 217.806176,20.71 C216.996176,20.37 216.301176,19.895 215.721176,19.285 C215.141176,18.675 214.696176,17.955 214.386176,17.125 C214.076176,16.295 213.921176,15.38 213.921176,14.38 C213.921176,13.4 214.076176,12.49 214.386176,11.65 C214.696176,10.81 215.141176,10.085 215.721176,9.475 C216.301176,8.865 216.996176,8.39 217.806176,8.05 C218.616176,7.71 219.521176,7.54 220.521176,7.54 C221.721176,7.54 222.721176,7.71 223.521176,8.05 C224.321176,8.39 225.041176,8.89 225.681176,9.55 L225.681176,9.55 L228.981176,5.95 C227.901176,4.95 226.646176,4.245 225.216176,3.835 C223.786176,3.425 222.221176,3.22 220.521176,3.22 C218.861176,3.22 217.331176,3.48 215.931176,4 C214.531176,4.52 213.321176,5.265 212.301176,6.235 C211.281176,7.205 210.486176,8.38 209.916176,9.76 C209.346176,11.14 209.061176,12.68 209.061176,14.38 C209.061176,16.08 209.346176,17.62 209.916176,19 C210.486176,20.38 211.281176,21.555 212.301176,22.525 C213.321176,23.495 214.531176,24.24 215.931176,24.76 C217.331176,25.28 218.861176,25.54 220.521176,25.54 Z M60.84,55 L60.84,46.72 L64.26,46.72 C65.38,46.72 66.42,46.615 67.38,46.405 C68.34,46.195 69.17,45.84 69.87,45.34 C70.57,44.84 71.12,44.17 71.52,43.33 C71.92,42.49 72.12,41.45 72.12,40.21 C72.12,38.95 71.905,37.905 71.475,37.075 C71.045,36.245 70.465,35.585 69.735,35.095 C69.005,34.605 68.15,34.26 67.17,34.06 C66.19,33.86 65.15,33.76 64.05,33.76 L64.05,33.76 L56.16,33.76 L56.16,55 L60.84,55 Z M63.96,42.76 L60.84,42.76 L60.84,37.72 L63.24,37.72 C63.68,37.72 64.14,37.745 64.62,37.795 C65.1,37.845 65.535,37.96 65.925,38.14 C66.315,38.32 66.635,38.575 66.885,38.905 C67.135,39.235 67.26,39.67 67.26,40.21 C67.26,40.71 67.165,41.125 66.975,41.455 C66.785,41.785 66.535,42.045 66.225,42.235 C65.915,42.425 65.565,42.56 65.175,42.64 C64.785,42.72 64.38,42.76 63.96,42.76 L63.96,42.76 Z M87.7076471,55 L87.7076471,50.68 L79.0376471,50.68 L79.0376471,33.76 L74.3576471,33.76 L74.3576471,55 L87.7076471,55 Z M92.3752941,55 L94.1452941,50.5 L102.395294,50.5 L104.225294,55 L109.505294,55 L100.265294,33.76 L96.3952941,33.76 L87.2152941,55 L92.3752941,55 Z M100.805294,46.54 L95.6152941,46.54 L98.1952941,39.94 L100.805294,46.54 Z M118.432941,55 L118.432941,45.94 L126.412941,33.76 L120.862941,33.76 L116.092941,41.71 L111.592941,33.76 L105.772941,33.76 L113.752941,45.94 L113.752941,55 L118.432941,55 Z M135.790588,55 C136.730588,55 137.675588,54.9 138.625588,54.7 C139.575588,54.5 140.430588,54.17 141.190588,53.71 C141.950588,53.25 142.570588,52.645 143.050588,51.895 C143.530588,51.145 143.770588,50.21 143.770588,49.09 C143.770588,48.41 143.660588,47.77 143.440588,47.17 C143.220588,46.57 142.905588,46.045 142.495588,45.595 C142.085588,45.145 141.595588,44.775 141.025588,44.485 C140.455588,44.195 139.820588,44 139.120588,43.9 L139.120588,43.9 L139.120588,43.84 C140.220588,43.5 141.105588,42.935 141.775588,42.145 C142.445588,41.355 142.780588,40.36 142.780588,39.16 C142.780588,38 142.550588,37.07 142.090588,36.37 C141.630588,35.67 141.030588,35.125 140.290588,34.735 C139.550588,34.345 138.715588,34.085 137.785588,33.955 C136.855588,33.825 135.930588,33.76 135.010588,33.76 L135.010588,33.76 L127.090588,33.76 L127.090588,55 L135.790588,55 Z M135.160588,42.25 L131.770588,42.25 L131.770588,37.72 L134.950588,37.72 C135.310588,37.72 135.680588,37.755 136.060588,37.825 C136.440588,37.895 136.780588,38.01 137.080588,38.17 C137.380588,38.33 137.625588,38.555 137.815588,38.845 C138.005588,39.135 138.100588,39.5 138.100588,39.94 C138.100588,40.36 138.015588,40.72 137.845588,41.02 C137.675588,41.32 137.450588,41.56 137.170588,41.74 C136.890588,41.92 136.575588,42.05 136.225588,42.13 C135.875588,42.21 135.520588,42.25 135.160588,42.25 L135.160588,42.25 Z M135.970588,51.04 L131.770588,51.04 L131.770588,46.21 L135.310588,46.21 C135.690588,46.21 136.100588,46.24 136.540588,46.3 C136.980588,46.36 137.390588,46.47 137.770588,46.63 C138.150588,46.79 138.465588,47.025 138.715588,47.335 C138.965588,47.645 139.090588,48.05 139.090588,48.55 C139.090588,49.01 138.995588,49.4 138.805588,49.72 C138.615588,50.04 138.370588,50.3 138.070588,50.5 C137.770588,50.7 137.435588,50.84 137.065588,50.92 C136.695588,51 136.330588,51.04 135.970588,51.04 L135.970588,51.04 Z M155.968235,55.54 C157.628235,55.54 159.158235,55.28 160.558235,54.76 C161.958235,54.24 163.168235,53.495 164.188235,52.525 C165.208235,51.555 166.003235,50.38 166.573235,49 C167.143235,47.62 167.428235,46.08 167.428235,44.38 C167.428235,42.68 167.143235,41.14 166.573235,39.76 C166.003235,38.38 165.208235,37.205 164.188235,36.235 C163.168235,35.265 161.958235,34.52 160.558235,34 C159.158235,33.48 157.628235,33.22 155.968235,33.22 C154.308235,33.22 152.778235,33.48 151.378235,34 C149.978235,34.52 148.768235,35.265 147.748235,36.235 C146.728235,37.205 145.933235,38.38 145.363235,39.76 C144.793235,41.14 144.508235,42.68 144.508235,44.38 C144.508235,46.08 144.793235,47.62 145.363235,49 C145.933235,50.38 146.728235,51.555 147.748235,52.525 C148.768235,53.495 149.978235,54.24 151.378235,54.76 C152.778235,55.28 154.308235,55.54 155.968235,55.54 Z M155.968235,51.22 C154.968235,51.22 154.063235,51.05 153.253235,50.71 C152.443235,50.37 151.748235,49.895 151.168235,49.285 C150.588235,48.675 150.143235,47.955 149.833235,47.125 C149.523235,46.295 149.368235,45.38 149.368235,44.38 C149.368235,43.4 149.523235,42.49 149.833235,41.65 C150.143235,40.81 150.588235,40.085 151.168235,39.475 C151.748235,38.865 152.443235,38.39 153.253235,38.05 C154.063235,37.71 154.968235,37.54 155.968235,37.54 C156.968235,37.54 157.873235,37.71 158.683235,38.05 C159.493235,38.39 160.188235,38.865 160.768235,39.475 C161.348235,40.085 161.793235,40.81 162.103235,41.65 C162.413235,42.49 162.568235,43.4 162.568235,44.38 C162.568235,45.38 162.413235,46.295 162.103235,47.125 C161.793235,47.955 161.348235,48.675 160.768235,49.285 C160.188235,49.895 159.493235,50.37 158.683235,50.71 C157.873235,51.05 156.968235,51.22 155.968235,51.22 Z M180.045882,55.54 C181.705882,55.54 183.235882,55.28 184.635882,54.76 C186.035882,54.24 187.245882,53.495 188.265882,52.525 C189.285882,51.555 190.080882,50.38 190.650882,49 C191.220882,47.62 191.505882,46.08 191.505882,44.38 C191.505882,42.68 191.220882,41.14 190.650882,39.76 C190.080882,38.38 189.285882,37.205 188.265882,36.235 C187.245882,35.265 186.035882,34.52 184.635882,34 C183.235882,33.48 181.705882,33.22 180.045882,33.22 C178.385882,33.22 176.855882,33.48 175.455882,34 C174.055882,34.52 172.845882,35.265 171.825882,36.235 C170.805882,37.205 170.010882,38.38 169.440882,39.76 C168.870882,41.14 168.585882,42.68 168.585882,44.38 C168.585882,46.08 168.870882,47.62 169.440882,49 C170.010882,50.38 170.805882,51.555 171.825882,52.525 C172.845882,53.495 174.055882,54.24 175.455882,54.76 C176.855882,55.28 178.385882,55.54 180.045882,55.54 Z M180.045882,51.22 C179.045882,51.22 178.140882,51.05 177.330882,50.71 C176.520882,50.37 175.825882,49.895 175.245882,49.285 C174.665882,48.675 174.220882,47.955 173.910882,47.125 C173.600882,46.295 173.445882,45.38 173.445882,44.38 C173.445882,43.4 173.600882,42.49 173.910882,41.65 C174.220882,40.81 174.665882,40.085 175.245882,39.475 C175.825882,38.865 176.520882,38.39 177.330882,38.05 C178.140882,37.71 179.045882,37.54 180.045882,37.54 C181.045882,37.54 181.950882,37.71 182.760882,38.05 C183.570882,38.39 184.265882,38.865 184.845882,39.475 C185.425882,40.085 185.870882,40.81 186.180882,41.65 C186.490882,42.49 186.645882,43.4 186.645882,44.38 C186.645882,45.38 186.490882,46.295 186.180882,47.125 C185.870882,47.955 185.425882,48.675 184.845882,49.285 C184.265882,49.895 183.570882,50.37 182.760882,50.71 C181.950882,51.05 181.045882,51.22 180.045882,51.22 Z M198.663529,55 L198.663529,44.92 L207.303529,55 L213.843529,55 L203.583529,43.63 L213.033529,33.76 L206.913529,33.76 L198.663529,42.58 L198.663529,33.76 L193.983529,33.76 L193.983529,55 L198.663529,55 Z" id="MARKETINGPLAYBOOK" fill="#1E1608" fill-rule="nonzero"></path>
            <path d="M40.5726473,43.8504558 L37.4307831,43.8504558 C37.3394268,43.8504558 37.2515459,43.8638987 37.1641616,43.8773415 L37.1641616,9.15903656 C37.1641616,8.75376064 36.881652,8.40374962 36.486933,8.31861181 L13.7878583,3.4363813 L40.5726473,3.4363813 L40.5726473,43.8504558 Z M35.450237,51.9465144 L31.1495374,51.0214497 L31.1495374,15.4313535 C31.1495374,14.7771366 30.7791469,14.1796783 30.1942677,13.8904088 L11.7104942,4.7473045 L35.450237,9.85308401 L35.450237,51.9465144 Z M27.7226811,56.5180666 L3.42735274,44.5006897 L3.42735274,4.48193341 L27.7226811,16.4998082 L27.7226811,56.5180666 Z M42.2860754,0 L1.71392462,0 C1.70498759,0 1.69654705,0.00248940981 1.68761002,0.00248940981 C1.58632363,0.00398305569 1.48603024,0.013442813 1.38672986,0.0328602094 C1.36736628,0.0368432651 1.34949221,0.0423199667 1.33062514,0.0468009043 C1.24820582,0.0657204189 1.16677951,0.0911123989 1.0868427,0.122478962 C1.06747912,0.129947192 1.04811555,0.136419657 1.02875197,0.144883651 C0.953780185,0.17774386 0.879801399,0.214587125 0.809298127,0.25889862 C0.798375085,0.265868967 0.788941548,0.274332961 0.778515008,0.280805426 C0.758158429,0.294248239 0.739787858,0.308686816 0.720424283,0.322627511 C0.653893026,0.370424179 0.591333785,0.421706021 0.53324306,0.477468801 C0.519341007,0.490911614 0.504445949,0.503358663 0.490543895,0.516801476 C0.424012638,0.585509186 0.363935906,0.659195717 0.309817197,0.736865303 C0.296411645,0.756282699 0.284495599,0.776197977 0.272083051,0.796113256 C0.227894381,0.86581673 0.188174227,0.938009615 0.154412097,1.01368767 C0.146468066,1.03061566 0.137531031,1.04654788 0.130580005,1.06397375 C0.0938388626,1.15259674 0.0665312571,1.24520278 0.0451816746,1.33930248 C0.0397201535,1.36369869 0.0352516362,1.38759703 0.0312796209,1.41199324 C0.0129090499,1.5125654 0,1.61413332 0,1.71819065 L0,45.5686465 C0,46.2233613 0.370886933,46.8203217 0.955766193,47.1095912 L28.6779508,60.822754 C28.9177612,60.9412499 29.1769352,61 29.4361092,61 C29.7513879,61 30.0651772,60.9133685 30.3407357,60.7411014 C30.8436922,60.4274357 31.1495374,59.8757825 31.1495374,59.2818094 L31.1495374,52.7789731 L36.1274656,53.8494193 C36.1870458,53.8623642 36.2471225,53.8688367 36.3071993,53.8688367 C36.5013315,53.8688367 36.6919883,53.8026184 36.8454074,53.67765 C37.0469871,53.5148426 37.1641616,53.2688889 37.1641616,53.0094924 L37.1641616,47.2604494 C37.2515459,47.2738922 37.3394268,47.287335 37.4307831,47.287335 L42.2860754,47.287335 C43.2329045,47.287335 44,46.5176095 44,45.5686465 L44,1.71819065 C44,0.76922763 43.2329045,0 42.2860754,0 L42.2860754,0 Z" id="Fill-8" fill="#FECC0B"></path>
        </g>
    </g>
</svg>