<?xml version="1.0" encoding="UTF-8"?>
<svg width="129px" height="81px" viewBox="0 0 129 81" version="1.1" xmlns="http://www.w3.org/2000/svg" xmlns:xlink="http://www.w3.org/1999/xlink">
    <title>Group 2</title>
    <g id="Page-1" stroke="none" stroke-width="1" fill="none" fill-rule="evenodd">
        <g id="59924" transform="translate(-436.000000, -40.000000)">
            <g id="Group-2" transform="translate(436.162000, 40.981703)">
                <path d="M25.707,53.2842969 L26.046,54.2982969 C24.787,51.0712969 24.023,47.4782969 23.771,43.9242969 C23.81,45.8652969 23.956,47.9142969 24.349,49.9522969 C24.762,51.9792969 25.306,54.0242969 26.135,55.8992969 C27.694,59.6952969 30.156,62.8342969 32.611,64.6552969 C32.531,65.1382969 33.703,66.8832969 35.107,68.3462969 C35.456,68.7122969 35.807,69.0712969 36.141,69.4032969 C36.496,69.7092969 36.825,69.9932969 37.108,70.2382969 C37.685,70.7172969 38.086,71.0302969 38.149,71.0082969 C38.832,71.4152969 39.516,71.8242969 40.203,72.2332969 C40.906,72.6122969 41.611,72.9922969 42.319,73.3732969 C41.362,72.8232969 40.367,72.3372969 39.446,71.7372969 C40.367,72.3372969 41.362,72.8232969 42.319,73.3732969 C44.587,74.5172969 46.943,75.5562969 49.398,76.4562969 C51.865,77.3222969 54.419,78.0542969 57.058,78.6172969 C59.703,79.1452969 62.428,79.4842969 65.206,79.6072969 C67.99,79.7442969 70.812,79.4982969 73.646,79.1282969 C74.423,78.9692969 75.366,78.7762969 76.436,78.5582969 C76.975,78.4632969 77.525,78.2872969 78.106,78.1162969 C78.687,77.9432969 79.292,77.7642969 79.919,77.5772969 C80.547,77.3932969 81.164,77.1152969 81.814,76.8762969 C82.452,76.6122969 83.134,76.4022969 83.775,76.0762969 C85.071,75.4522969 86.428,74.8422969 87.691,74.0562969 C89.002,73.3492969 90.208,72.4722969 91.404,71.6532969 C92.002,71.2442969 92.536,70.7652969 93.088,70.3362969 C93.63,69.8932969 94.182,69.4852969 94.652,69.0152969 C95.62,68.1062969 96.554,67.2782969 97.288,66.4282969 C97.669,66.0162969 98.028,65.6282969 98.362,65.2672969 C98.699,64.9072969 98.964,64.5332969 99.23,64.2162969 C99.82,63.4592969 100.449,62.7362969 100.963,61.9072969 C100.732,62.2372969 100.56,62.4852969 100.415,62.6922969 C100.257,62.8872969 100.13,63.0432969 100.002,63.1992969 C99.748,63.5102969 99.494,63.8202969 98.985,64.4422969 C101.315,61.1492969 102.922,57.8342969 104.032,54.4872969 C103.71,55.0272969 103.565,55.0912969 102.873,56.3782969 L103.624,54.7642969 C103.728,54.3702969 103.804,53.8242969 103.957,53.2392969 C104.086,52.6442969 104.304,52.0092969 104.42,51.3402969 C104.542,50.6742969 104.664,50.0042969 104.775,49.3922969 C104.905,48.7842969 104.902,48.2232969 104.942,47.7892969 C104.996,47.9852969 105.075,47.7452969 105.162,47.3032969 C105.203,47.0822969 105.255,46.8122969 105.292,46.5202969 C105.315,46.2292969 105.34,45.9172969 105.364,45.6162969 L105.233,46.0862969 C105.466,43.8022969 105.349,41.3322969 105.114,38.9512969 C104.932,37.7702969 104.816,36.5922969 104.565,35.4882969 C104.455,34.9332969 104.347,34.3882969 104.242,33.8592969 C104.112,33.3362969 103.985,32.8282969 103.864,32.3372969 C103.725,31.7922969 103.687,31.3652969 103.665,31.1052969 C103.238,29.8842969 102.856,28.6492969 102.344,27.4632969 C102.494,27.5672969 102.26,26.7972969 102.083,26.2102969 C101.894,25.6292969 101.746,25.2372969 102.167,26.0682969 C100.854,23.4662969 99.664,20.7622969 98.024,18.5162969 C95.424,14.3352969 92.146,10.3282969 88.074,7.15429688 C84.071,3.91329688 79.257,1.61329688 74.296,0.489296883 C74.371,0.529296883 74.443,0.580296883 74.517,0.629296883 C73.645,0.454296883 72.786,0.345296883 71.939,0.219296883 C71.089,0.103296883 70.226,0.110296883 69.354,0.0422968831 C69.136,0.0292968831 68.916,0.0152968831 68.694,0.00129688311 C68.473,-0.00370311689 68.248,0.00729688311 68.023,0.00829688311 C67.569,0.00929688311 67.109,0.0102968831 66.638,0.0122968831 C65.692,-0.0337031169 64.706,0.0662968831 63.639,0.0842968831 C63.263,0.146296883 62.864,0.182296883 62.461,0.265296883 C62.058,0.352296883 61.645,0.443296883 61.229,0.534296883 C60.399,0.725296883 59.553,0.858296883 58.794,1.13129688 C58.028,1.37229688 57.322,1.60329688 56.745,1.81829688 C56.164,2.02229688 55.734,2.29929688 55.48,2.48029688 C54.665,2.75329688 53.977,2.99629688 53.354,3.22529688 C52.742,3.48129688 52.204,3.75229688 51.665,4.00529688 C51.127,4.26129688 50.591,4.51629688 50.001,4.79729688 C49.425,5.11029688 48.796,5.45329688 48.059,5.85329688 C48.495,5.76229688 47.793,6.17729688 47.179,6.54129688 C46.566,6.89429688 46.034,7.26429688 46.815,6.93729688 C48.94,6.25729688 48.918,5.92929688 50.72,5.39429688 L50.639,5.34829688 C54.679,3.75129688 58.897,2.68229688 63.144,2.41429688 C67.388,2.13629688 71.642,2.67329688 75.649,4.04029688 C78.355,4.85729688 81.041,6.17629688 83.519,7.87229688 C86,9.56629688 88.281,11.6192969 90.282,13.8502969 C92.461,16.2302969 94.455,18.9802969 96.1,21.8142969 C97.749,24.6452969 99.048,27.5532969 100.007,30.1952969 C100.233,30.8262969 100.376,31.3872969 100.49,31.9282969 C100.594,32.4712969 100.639,33.0032969 100.732,33.5652969 C101.39,36.0452969 101.886,38.9362969 102.007,41.9132969 C102.134,44.8882969 101.883,47.9422969 101.22,50.6772969 C101.245,50.5742969 101.27,50.4742969 101.285,50.4082969 C101.225,50.7792969 101.111,51.1272969 100.997,51.4642969 C100.885,51.8022969 100.774,52.1302969 100.666,52.4542969 C100.55,52.7742969 100.463,53.0972969 100.322,53.3982969 C100.183,53.7002969 100.045,53.9992969 99.907,54.2962969 C99.401,55.5062969 98.719,56.6222969 98.045,57.9332969 C98.106,57.9522969 97.862,58.3412969 97.771,58.5462969 C97.705,58.5822969 97.518,58.8432969 97.24,59.2752969 C97.104,59.4932969 96.941,59.7522969 96.758,60.0452969 C96.557,60.3272969 96.331,60.6422969 96.086,60.9832969 C95.843,61.3262969 95.58,61.6952969 95.304,62.0852969 C95.031,62.4792969 94.685,62.8472969 94.359,63.2552969 C94.025,63.6552969 93.691,64.0792969 93.332,64.4942969 C92.951,64.8902969 92.565,65.2922969 92.177,65.6962969 C90.63,67.3192969 88.86,68.7482969 87.428,69.7972969 C85.978,70.8192969 84.858,71.4532969 84.62,71.5682969 C84.355,71.7362969 84.062,71.8802969 83.77,72.0382969 C80.922,73.4932969 77.773,74.4012969 74.724,74.9542969 C71.671,75.5362969 68.688,75.6852969 65.99,75.7022969 C64.816,75.8802969 63.484,75.8622969 62.473,75.9762969 C61.525,75.7422969 61.316,75.9582969 60.157,75.7932969 C57.323,74.7762969 55.636,74.5342969 57.064,75.0962969 C54.654,74.6932969 52.339,73.8512969 50.309,73.1102969 C49.367,72.7622969 48.413,72.4492969 47.485,72.0342969 C46.687,71.7032969 46.282,71.4332969 45.972,71.0932969 C44.989,70.6012969 44.655,70.4032969 44.32,70.1832969 C43.997,69.9432969 43.673,69.6822969 42.714,69.0532969 C42.619,68.9432969 42.269,68.7002969 41.792,68.3822969 C41.32,68.0572969 40.677,67.7142969 40.095,67.2852969 C39.507,66.8642969 38.879,66.4782969 38.428,66.1042969 C37.969,65.7392969 37.623,65.4552969 37.513,65.3352969 L37.811,65.5642969 C37.572,65.3352969 37.343,65.1162969 37.122,64.9042969 C36.922,64.6732969 36.729,64.4492969 36.54,64.2302969 C36.177,63.7802969 35.808,63.3802969 35.506,62.9202969 C35.192,62.4722969 34.881,62.0282969 34.545,61.5752969 C34.233,61.1022969 33.905,60.6142969 33.524,60.1022969 C32.54,58.6302969 31.581,57.0902969 30.809,55.4392969 C30.382,54.6332969 30.066,53.7742969 29.698,52.9382969 C29.401,52.0752969 29.048,51.2302969 28.816,50.3492969 C27.744,46.8682969 27.328,43.2622969 27.391,39.9682969 C27.18,39.9012969 27.449,41.4212969 27.169,41.5052969 C27.133,39.5482969 27.323,37.5842969 27.633,35.6452969 C27.952,33.7022969 28.456,31.8042969 29.003,29.9232969 C29.274,29.2662969 29.622,28.4732969 29.797,28.1952969 C30.308,27.0572969 29.961,27.4722969 30.306,26.6262969 L30.526,26.5812969 C30.916,25.3022969 31.467,24.8762969 31.973,23.7422969 C31.935,23.6492969 32.129,23.2362969 32.335,22.8442969 C32.524,22.9222969 33.004,21.6552969 33.132,21.8032969 L33.126,21.7852969 C33.263,21.5572969 33.34,21.3822969 33.539,21.1232969 C33.596,21.0082969 33.769,20.6552969 34,20.1832969 C34.117,19.9452969 34.249,19.6772969 34.388,19.3942969 C34.543,19.1202969 34.706,18.8302969 34.869,18.5412969 C35.497,17.3632969 36.274,16.2692969 36.396,16.0292969 L36.576,15.8642969 C37.051,15.3242969 37.161,15.0032969 36.843,15.2862969 L37.461,14.6412969 L37.4,14.7262969 L38.014,14.0842969 C38.145,13.9842969 38.346,13.9242969 38.227,14.1602969 C38.539,13.7672969 38.922,13.3502969 39.31,13.0312969 C38.202,13.8832969 36.855,15.0032969 35.759,16.0132969 C36.076,15.4842969 36.918,14.7632969 37.349,14.2682969 C37.656,14.0182969 38.13,13.6452969 38.649,13.2392969 C39.159,12.8232969 39.712,12.3722969 40.229,12.0192969 C40.43,11.8342969 40.431,11.5392969 40.971,11.2132969 C41.294,11.1312969 41.524,10.7782969 42.005,10.5562969 C41.792,10.7662969 41.564,10.9502969 41.327,11.1252969 C41.099,11.3102969 40.869,11.4962969 40.636,11.6852969 C40.734,11.7232969 41.033,11.5122969 41.356,11.2582969 C41.693,11.0232969 42.06,10.7512969 42.265,10.6302969 C42.408,10.4492969 43.363,9.80029688 43.959,9.38129688 C43.791,9.70129688 44.511,9.15529688 44.921,9.00029688 C45.334,8.74329688 45.586,8.55329688 45.376,8.59029688 C45.395,8.31429688 43.674,9.54929688 44.135,9.00129688 C44.338,8.98129688 45.121,8.41629688 45.58,8.17029688 C45.532,8.07629688 45.23,8.27729688 45.473,8.02329688 C45.988,7.75729688 46.463,7.34129688 46.805,7.27129688 C46.724,7.35029688 46.507,7.45329688 46.358,7.53529688 C46.69,7.35229688 45.881,8.01129688 45.107,8.63729688 C44.364,9.31329688 43.655,9.96129688 44.041,9.67229688 C43.918,9.71529688 44.691,8.96529688 45.523,8.32929688 C46.35,7.69229688 47.17,7.06929688 46.95,7.19129688 C46.524,7.37429688 47.15,6.86029688 46.715,7.06529688 L46.314,7.44029688 C45.728,7.72929688 45.4,7.70429688 45.566,7.52729688 C46.05,7.26229688 45.454,7.80429688 44.85,8.34029688 C44.27,8.91629688 43.675,9.48129688 44.035,9.18429688 L43.691,9.34829688 C43.987,9.08429688 44.826,8.43229688 45.242,8.33629688 C45.191,8.24629688 45.636,7.95129688 46.003,7.69929688 L46.148,7.63729688 C46.519,7.36529688 47.087,7.06829688 46.764,7.09529688 C45.6,7.76929688 45.85,7.32229688 46.118,6.85529688 C46.385,6.38929688 46.672,5.90029688 45.49,6.53929688 C46.579,6.18529688 45.273,6.92529688 44.276,7.53929688 C44.14,7.53429688 43.642,7.72329688 42.898,8.13829688 C42.293,8.55529688 42.583,8.44429688 42.499,8.56829688 C42.129,8.74729688 41.49,9.19129688 41.498,9.02829688 C41.126,9.48929688 40.702,9.49629688 40.188,9.96029688 C39.765,10.4022969 40.258,9.98229688 39.973,10.3132969 C39.62,10.6002969 39.196,10.9432969 38.791,11.2732969 C38.384,11.6012969 38.029,11.9542969 37.753,12.1882969 C37.474,12.2972969 36.709,12.7482969 37.04,12.1902969 C38.068,11.2472969 36.855,12.7612969 37.877,11.7372969 C37.244,11.9712969 38.757,10.8052969 38.853,10.5102969 C38.641,10.6182969 38.343,10.8132969 38.049,11.0712969 C37.757,11.3332969 37.449,11.6362969 37.175,11.9192969 L37.313,11.8352969 C37.079,12.0922969 36.7,12.4482969 36.344,12.8352969 C35.984,13.2202969 35.605,13.5952969 35.297,13.8232969 C35.352,13.6332969 35.076,13.8272969 35.41,13.4382969 L34.744,14.1302969 C34.687,14.2432969 34.629,14.3582969 34.822,14.1592969 C34.586,14.5532969 34.268,14.8742969 34.004,15.1082969 C33.969,15.1132969 33.767,15.3772969 33.485,15.7672969 C33.212,16.1632969 32.89,16.7082969 32.562,17.2342969 C31.908,18.2892969 31.392,19.3822969 31.394,19.2922969 C31.015,19.8622969 30.829,19.9452969 30.574,20.5712969 C30.583,20.5962969 30.773,20.2442969 31.048,19.7122969 C31.348,19.1952969 31.747,18.5072969 32.133,17.8402969 C32.957,16.5392969 33.768,15.3412969 33.503,15.7152969 C33.285,15.9162969 32.164,17.5342969 31.239,19.2302969 C30.758,20.0672969 30.36,20.9432969 30.004,21.5932969 C29.693,22.2682969 29.459,22.7412969 29.37,22.8162969 C29.141,23.2702969 28.898,23.8322969 29.041,23.7672969 C28.655,24.5332969 28.976,23.4542969 28.648,23.9762969 C28.656,23.9952969 28.712,23.9512969 28.63,24.1282969 L28.281,24.6192969 C27.865,25.8932969 27.029,27.6842969 26.818,29.0852969 C26.84,28.6692969 26.795,28.1702969 26.989,27.2752969 L27.093,27.1432969 C27.109,27.0132969 27.34,26.3012969 27.242,26.2872969 C27.063,26.6812969 26.901,27.0512969 26.779,27.4392969 C26.664,27.8312969 26.567,28.2342969 26.476,28.6822969 C26.401,28.8342969 26.316,29.0142969 26.252,29.1322969 C26.265,29.1322969 26.279,29.1222969 26.293,29.1292969 C26.145,29.3962969 26.145,29.3642969 26.141,29.2492969 C26.139,29.2342969 26.136,29.2152969 26.139,29.1832969 C25.916,29.4012969 25.758,30.2472969 25.571,31.2122969 C25.426,32.1882969 25.263,33.2862969 25.084,34.0582969 C25.055,34.5252969 25.125,34.1092969 25.094,34.6912969 C24.905,35.4792969 24.798,36.1552969 24.689,36.8422969 C24.564,37.5272969 24.504,38.2292969 24.433,39.0772969 C24.531,39.6242969 24.579,39.6642969 24.736,39.0182969 C24.697,39.4412969 24.673,39.8662969 24.67,40.2912969 C24.335,39.1202969 24.376,42.6922969 24.04,41.4112969 C23.952,41.7922969 24.009,42.5712969 24.098,43.2942969 C24.197,43.3602969 24.295,43.4672969 24.406,44.3712969 C24.454,45.6412969 24.423,45.3412969 24.49,46.3952969 C24.426,46.6582969 24.319,46.2832969 24.242,46.3392969 C24.658,47.9272969 24.229,47.7932969 24.606,49.3052969 C24.814,50.2572969 25.427,52.0832969 25.6,52.0742969 C26.017,53.3092969 25.897,53.3542969 25.707,53.2842969" id="Fill-417" fill="#ECEEF1"></path>
                <path d="M9.326,37.2582969 C9.326,32.0122969 9.25,30.4222969 6.99,30.4222969 C4.711,30.4222969 4.615,32.0122969 4.615,37.2582969 C4.615,42.5252969 4.711,43.9032969 6.99,43.9032969 C9.25,43.9032969 9.326,42.5252969 9.326,37.2582969 Z M13.98,37.2582969 C13.98,41.0692969 11.203,44.0762969 6.99,44.0762969 C2.777,44.0762969 2.84217094e-14,41.0692969 2.84217094e-14,37.2582969 C2.84217094e-14,33.4672969 2.777,30.2502969 6.99,30.2502969 C11.203,30.2502969 13.98,33.4672969 13.98,37.2582969 L13.98,37.2582969 Z" id="Fill-418" fill="#272525"></path>
                <path d="M28.633,34.0802969 C28.633,30.4222969 28.135,30.5952969 25.895,30.5952969 L25.301,30.5952969 L25.301,37.5083144 L25.895,37.5083144 C28.384,37.5083144 28.633,37.5462969 28.633,34.0802969 Z M34.8,43.7312969 L34.8,43.9032969 L30.989,43.9032969 C29.629,43.9032969 29.208,43.0412969 28.749,39.4802969 C28.499,37.5652969 26.202,37.6802969 26.202,37.6802969 L25.301,37.6802969 L25.301,41.7402969 C25.301,43.6162969 25.378,43.7312969 26.182,43.7312969 L26.182,43.9032969 L20.456,43.9032969 L20.456,43.7312969 C21.28,43.7312969 21.452,43.6932969 21.452,41.7402969 L21.452,32.2802969 C21.452,31.0922969 21.299,30.5752969 20.456,30.5752969 L20.456,30.4222969 L25.895,30.4222969 C29.706,30.4222969 33.134,30.8822969 33.134,34.0802969 C33.134,36.9522969 30.491,37.5462969 28.653,37.5462969 C30.855,37.5462969 31.965,38.0252969 32.904,41.4722969 C33.287,42.9272969 34.302,43.6932969 34.8,43.7312969 L34.8,43.7312969 Z" id="Fill-419" fill="#272525"></path>
                <path d="M54.413,38.8672969 L54.413,39.0392969 C53.092,39.0392969 53.188,39.1542969 53.188,42.9842969 C52.23,43.6542969 50.335,44.0762969 48.285,44.0762969 C44.149,44.0762969 40.932,41.2232969 40.932,37.1632969 C40.932,33.0842969 44.149,30.2502969 48.285,30.2502969 C50.909,30.2502969 51.942,30.5372969 53.13,31.3222969 L52.766,35.0952969 L52.613,35.0952969 C52.613,30.6522969 49.53,30.4222969 48.285,30.4222969 C46.103,30.4222969 45.643,31.8972969 45.643,37.1632969 C45.643,42.4292969 46.14,43.9032969 48.285,43.9032969 C49.76,43.9032969 50.353,43.1762969 50.353,41.3182969 C50.353,39.2312969 50.066,39.0392969 49.013,39.0392969 L49.013,38.8672969 L54.413,38.8672969" id="Fill-420" fill="#272525"></path>
                <path d="M65.658,35.7082969 L63.954,40.0162969 L67.572,40.0162969 L65.658,35.7082969 Z M67.592,30.4222969 L67.688,30.4222969 C72.533,41.5292969 72.858,42.1612969 72.858,42.1612969 C73.548,43.6932969 74.199,43.7122969 74.581,43.7502969 L74.581,43.9032969 L67.88,43.9032969 L67.88,43.7502969 C69.411,43.7502969 68.263,41.5102969 68.263,41.5102969 L67.649,40.1882969 L63.896,40.1882969 C63.513,41.0692969 63.858,43.7502969 66.156,43.7502969 L66.156,43.9032969 L60.641,43.9032969 L60.641,43.7502969 C61.215,43.7122969 62.249,43.5592969 63.724,40.1882969 L67.592,30.4222969 L67.592,30.4222969 Z" id="Fill-421" fill="#272525"></path>
                <path d="M90.997,43.9032969 L83.778,33.6202969 L83.778,39.5952969 C83.778,41.1272969 83.874,43.7312969 86.67,43.7312969 L86.67,43.9032969 L80.58,43.9032969 L80.58,43.7312969 C83.223,43.7312969 83.606,41.1072969 83.606,39.5952969 L83.606,33.3912969 L82.705,32.1072969 C81.557,30.5952969 80.81,30.6142969 80.313,30.5752969 L80.313,30.4222969 L86.421,30.4222969 L92.932,39.8252969 L92.932,34.7122969 C92.932,32.9312969 92.318,30.5752969 90.193,30.5752969 L90.193,30.4222969 L95.995,30.4222969 L95.995,30.5752969 C93.621,30.5752969 93.104,32.9312969 93.104,34.7122969 L93.104,43.9032969 L90.997,43.9032969" id="Fill-422" fill="#272525"></path>
                <path d="M108.696,30.4222969 L108.696,30.5752969 C107.892,30.5752969 107.451,30.5952969 107.451,32.2802969 L107.451,41.7402969 C107.451,43.5592969 107.892,43.7312969 108.696,43.7312969 L108.696,43.9032969 L102.376,43.9032969 L102.376,43.7312969 C103.181,43.7312969 103.621,43.5592969 103.621,41.7402969 L103.621,32.2802969 C103.621,30.5952969 103.2,30.5752969 102.376,30.5752969 L102.376,30.4222969 L108.696,30.4222969" id="Fill-423" fill="#272525"></path>
                <path d="M127.484,39.3082969 L127.676,43.1762969 C127.159,43.5202969 125.225,44.0762969 123.195,44.0762969 C119.097,44.0762969 115.458,41.4912969 115.458,37.1632969 C115.458,32.8352969 119.097,30.2502969 123.195,30.2502969 C125.666,30.2502969 127.217,30.7672969 127.676,31.1312969 L127.484,34.9992969 L127.332,34.9992969 C126.757,31.0352969 124.593,30.4222969 123.195,30.4222969 C121.069,30.4222969 120.17,31.9162969 120.17,37.1632969 C120.17,42.4292969 121.127,43.9032969 123.195,43.9032969 C124.497,43.9032969 126.68,43.1182969 127.332,39.3082969 L127.484,39.3082969" id="Fill-424" fill="#272525"></path>
                <path d="M28.119,47.6472969 L28.119,48.8472969 L28.021,48.8472969 C27.852,47.6992969 26.399,47.7442969 26.147,47.7442969 L25.861,47.7442969 L25.861,49.8522969 L26.179,49.8522969 C26.269,49.8522969 27.12,49.8722969 27.204,49.1972969 L27.301,49.1972969 L27.301,50.6242969 L27.204,50.6242969 C27.12,49.9432969 26.269,49.9632969 26.179,49.9632969 L25.861,49.9632969 L25.861,51.3772969 C25.861,52.0652969 26.101,52.1172969 26.386,52.1172969 L26.386,52.2142969 L24.693,52.2142969 L24.693,52.1172969 C24.972,52.1172969 25.056,51.8312969 25.056,51.3902969 L25.056,48.4382969 C25.056,48.0362969 24.979,47.7442969 24.693,47.7442969 L24.693,47.6472969 L28.119,47.6472969" id="Fill-425" fill="#000000"></path>
                <path d="M34.485,47.6862969 C33.713,47.6862969 33.239,48.1852969 33.239,49.9632969 C33.239,51.7472969 33.713,52.1752969 34.485,52.1752969 C35.25,52.1752969 35.718,51.7472969 35.718,49.9632969 C35.718,48.1852969 35.25,47.6862969 34.485,47.6862969 Z M34.485,52.2722969 C33.058,52.2722969 32.312,51.2532969 32.312,49.9632969 C32.312,48.6782969 33.058,47.5882969 34.485,47.5882969 C35.913,47.5882969 36.658,48.6782969 36.658,49.9632969 C36.658,51.2532969 35.913,52.2722969 34.485,52.2722969 L34.485,52.2722969 Z" id="Fill-426" fill="#000000"></path>
                <path d="M43.193,47.6862969 C42.421,47.6862969 41.947,48.1852969 41.947,49.9632969 C41.947,51.7472969 42.421,52.1752969 43.193,52.1752969 C43.958,52.1752969 44.426,51.7472969 44.426,49.9632969 C44.426,48.1852969 43.958,47.6862969 43.193,47.6862969 Z M43.193,52.2722969 C41.766,52.2722969 41.02,51.2532969 41.02,49.9632969 C41.02,48.6782969 41.766,47.5882969 43.193,47.5882969 C44.62,47.5882969 45.366,48.6782969 45.366,49.9632969 C45.366,51.2532969 44.62,52.2722969 43.193,52.2722969 L43.193,52.2722969 Z" id="Fill-427" fill="#000000"></path>
                <path d="M51.284,47.7442969 L50.999,47.7442969 L50.999,52.1172969 L51.284,52.1172969 C51.946,52.1172969 52.971,52.0322969 52.971,49.9432969 C52.971,47.8872969 51.959,47.7442969 51.284,47.7442969 Z M51.284,52.2142969 L49.727,52.2142969 L49.727,52.1172969 C50.006,52.1172969 50.189,51.8252969 50.189,51.3832969 L50.189,48.4782969 C50.189,48.0752969 50.013,47.7442969 49.727,47.7442969 L49.727,47.6472969 L51.284,47.6472969 C52.575,47.6472969 53.931,48.0422969 53.931,49.9432969 C53.931,51.8762969 52.575,52.2142969 51.284,52.2142969 L51.284,52.2142969 Z" id="Fill-428" fill="#000000"></path>
                <path d="M59.908,48.6662969 L60.376,49.3532969 C61.225,48.7952969 61.076,48.1072969 60.791,47.7502969 C60.602,47.5622969 60.33,47.4782969 60.097,47.5622969 C59.759,47.6802969 59.597,48.2052969 59.908,48.6662969 Z M60.875,51.3192969 L59.817,49.7942969 L59.493,50.0022969 C59.129,50.2612969 58.877,50.9042969 59.382,51.5332969 C59.733,51.9672969 60.557,51.9992969 60.875,51.3192969 Z M62.957,51.4612969 C62.957,51.9872969 62.567,52.2332969 62.211,52.2722969 C62.211,52.2722969 61.568,52.3312969 61.31,51.9482969 L60.946,51.4162969 C60.7,52.1552969 59.37,52.7072969 58.721,51.8052969 C58.072,50.9162969 58.922,50.2032969 59.434,49.9052969 L59.759,49.7102969 L59.415,49.1912969 C58.805,48.3482969 59.213,47.5372969 59.941,47.4142969 C60.376,47.3352969 60.68,47.4532969 60.881,47.6802969 C61.134,47.9782969 61.42,48.7432969 60.434,49.4442969 L61.251,50.6572969 C61.498,50.1122969 61.828,49.9892969 61.997,49.9502969 C62.133,49.9172969 62.315,49.9302969 62.431,50.0282969 C62.587,50.1512969 62.62,50.3912969 62.47,50.5532969 C62.341,50.7092969 62.101,50.7352969 61.939,50.5992969 C61.861,50.5272969 61.822,50.4502969 61.816,50.3462969 C61.816,50.2092969 61.465,50.3132969 61.303,50.7352969 L61.816,51.4742969 C62.016,51.7732969 62.354,51.7732969 62.354,51.7732969 C62.581,51.7732969 62.808,51.7012969 62.86,51.4612969 L62.957,51.4612969 L62.957,51.4612969 Z" id="Fill-429" fill="#000000"></path>
                <path d="M68.927,47.7442969 L68.642,47.7442969 L68.642,52.1172969 L68.927,52.1172969 C69.589,52.1172969 70.613,52.0322969 70.613,49.9432969 C70.613,47.8872969 69.602,47.7442969 68.927,47.7442969 Z M68.927,52.2142969 L67.37,52.2142969 L67.37,52.1172969 C67.649,52.1172969 67.831,51.8252969 67.831,51.3832969 L67.831,48.4782969 C67.831,48.0752969 67.656,47.7442969 67.37,47.7442969 L67.37,47.6472969 L68.927,47.6472969 C70.219,47.6472969 71.574,48.0422969 71.574,49.9432969 C71.574,51.8762969 70.219,52.2142969 68.927,52.2142969 L68.927,52.2142969 Z" id="Fill-430" fill="#000000"></path>
                <path d="M77.259,47.7442937 L77.058,47.7442937 L77.058,50.0282969 L77.259,50.0282969 C77.946,50.0282969 78.479,50.0282969 78.479,48.8862969 C78.479,47.7312969 77.92,47.7442937 77.259,47.7442937 Z M80.094,52.2142969 L79.548,52.2142969 C78.549,52.2072969 78.686,52.2072969 78.271,50.8002969 C78.076,50.1252969 77.446,50.1252969 77.362,50.1252969 L77.058,50.1252969 L77.058,51.4812969 C77.058,51.9292969 77.239,52.1172969 77.512,52.1172969 L77.512,52.2142969 L75.838,52.2142969 L75.838,52.1172969 C76.116,52.1172969 76.273,51.9352969 76.273,51.4422969 L76.273,48.2832969 C76.273,47.8802969 76.123,47.7442969 75.838,47.7442969 L75.838,47.6472969 L77.259,47.6472969 C78.549,47.6472969 79.367,47.8032969 79.367,48.8862969 C79.367,49.7232969 78.86,50.0022969 78.128,50.0662969 C78.556,50.0542969 79.036,50.2162969 79.36,51.5132969 C79.489,52.0062969 79.925,52.1032969 80.094,52.1172969 L80.094,52.2142969 L80.094,52.2142969 Z" id="Fill-431" fill="#000000"></path>
                <path d="M86.065,47.6472969 L86.065,47.7442969 C85.785,47.7442969 85.558,47.8872969 85.558,48.2892969 L85.558,51.4742969 C85.558,51.9162969 85.791,52.1172969 86.065,52.1172969 L86.065,52.2142969 L84.254,52.2142969 L84.254,52.1172969 C84.533,52.1172969 84.76,51.9162969 84.76,51.4742969 L84.76,48.2892969 C84.76,47.8872969 84.539,47.7442969 84.254,47.7442969 L84.254,47.6472969 L86.065,47.6472969" id="Fill-432" fill="#000000"></path>
                <path d="M95.318,47.6472969 L95.318,47.7442969 C94.358,47.7382969 94.377,48.9772969 94.377,49.2752969 L94.377,52.2142969 L94.099,52.2142969 L91.303,48.6522969 L91.303,50.5732969 C91.303,50.8652969 91.296,52.1172969 92.172,52.1172969 L92.172,52.2142969 L90.252,52.2142969 L90.252,52.1172969 C91.205,52.1172969 91.205,50.8652969 91.205,50.5732969 L91.205,48.5492969 L90.945,48.2182969 C90.53,47.6992969 90.343,47.7572969 90.174,47.7442969 L90.174,47.6472969 L91.568,47.6472969 L94.28,51.0662969 L94.28,49.2752969 C94.28,48.9772969 94.28,47.7382969 93.411,47.7442969 L93.411,47.6472969 L95.318,47.6472969" id="Fill-433" fill="#000000"></path>
                <path d="M104.169,52.2142969 L103.313,52.2142969 C102.624,52.2142969 102.476,52.0192969 101.788,51.0402969 C101.418,50.5082969 101.1,50.0922969 101.1,50.0922969 L101.956,49.0552969 C102.145,48.8412969 103.078,47.7642969 102.015,47.7442969 L102.015,47.6472969 L103.98,47.6472969 L103.98,47.7442969 C103.526,47.7442969 103.118,47.8292969 101.716,49.6252969 C102.858,51.1502969 103.286,51.7272969 103.286,51.7272969 C103.591,52.1292969 104.038,52.1172969 104.169,52.1172969 L104.169,52.2142969 Z M101.275,47.6472969 L101.275,47.7442969 C100.989,47.7442969 100.743,47.8162969 100.743,48.2892969 L100.743,51.4742969 C100.743,51.9162969 100.925,52.1172969 101.204,52.1172969 L101.204,52.2142969 L99.504,52.2142969 L99.504,52.1172969 C99.776,52.1172969 99.939,51.9162969 99.939,51.4742969 L99.939,48.2892969 C99.939,47.8872969 99.783,47.7442969 99.504,47.7442969 L99.504,47.6472969 L101.275,47.6472969 L101.275,47.6472969 Z" id="Fill-434" fill="#000000"></path>
            </g>
        </g>
    </g>
</svg>