<?xml version="1.0" encoding="UTF-8"?>
<svg width="129px" height="52px" viewBox="0 0 129 52" version="1.1" xmlns="http://www.w3.org/2000/svg" xmlns:xlink="http://www.w3.org/1999/xlink">
    <title>Group 3</title>
    <g id="Page-1" stroke="none" stroke-width="1" fill="none" fill-rule="evenodd">
        <g id="59924" transform="translate(-643.000000, -183.000000)">
            <g id="Group-3" transform="translate(643.872216, 183.389613)">
                <path d="M22.083784,49.517387 C21.648784,49.091387 21.432784,48.552387 21.432784,47.899387 C21.432784,47.246387 21.650784,46.707387 22.086784,46.281387 C22.522784,45.856387 23.056784,45.643387 23.688784,45.643387 C24.168784,45.643387 24.595784,45.766387 24.967784,46.009387 C25.340784,46.254387 25.606784,46.597387 25.767784,47.040387 L24.698784,47.040387 C24.501784,46.652387 24.164784,46.458387 23.688784,46.458387 C23.287784,46.458387 22.962784,46.590387 22.712784,46.853387 C22.461784,47.117387 22.336784,47.466387 22.336784,47.902387 C22.336784,48.338387 22.461784,48.688387 22.712784,48.951387 C22.962784,49.214387 23.287784,49.346387 23.688784,49.346387 C24.159784,49.346387 24.497784,49.152387 24.698784,48.765387 L25.767784,48.765387 C25.606784,49.207387 25.340784,49.549387 24.967784,49.791387 C24.595784,50.034387 24.168784,50.154387 23.688784,50.154387 C23.052784,50.154387 22.517784,49.942387 22.083784,49.517387" id="Fill-548" fill="#000000"></path>
                <path d="M33.564784,48.951387 C33.812784,48.688387 33.936784,48.337387 33.936784,47.899387 C33.936784,47.461387 33.812784,47.111387 33.564784,46.850387 C33.315784,46.589387 32.990784,46.458387 32.590784,46.458387 C32.190784,46.458387 31.864784,46.590387 31.614784,46.853387 C31.363784,47.117387 31.238784,47.466387 31.238784,47.902387 C31.238784,48.338387 31.363784,48.688387 31.614784,48.951387 C31.864784,49.214387 32.190784,49.346387 32.590784,49.346387 C32.990784,49.346387 33.315784,49.214387 33.564784,48.951387 Z M32.590784,50.161387 C31.954784,50.161387 31.419784,49.948387 30.985784,49.523387 C30.552784,49.097387 30.334784,48.557387 30.334784,47.902387 C30.334784,47.247387 30.553784,46.707387 30.988784,46.281387 C31.424784,45.856387 31.960784,45.643387 32.594784,45.643387 C33.228784,45.643387 33.761784,45.856387 34.195784,46.281387 C34.629784,46.707387 34.846784,47.247387 34.846784,47.902387 C34.846784,48.557387 34.629784,49.097387 34.195784,49.523387 C33.761784,49.948387 33.227784,50.161387 32.590784,50.161387 L32.590784,50.161387 Z" id="Fill-549" fill="#000000"></path>
                <polyline id="Fill-550" fill="#000000" points="39.592784 50.117387 39.592784 45.707387 42.321784 45.707387 42.321784 46.389387 40.482784 46.389387 40.482784 47.545387 41.885784 47.545387 41.885784 48.228387 40.482784 48.228387 40.482784 50.117387 39.592784 50.117387"></polyline>
                <polyline id="Fill-551" fill="#000000" points="47.065784 50.117387 47.065784 45.707387 49.796784 45.707387 49.796784 46.389387 47.957784 46.389387 47.957784 47.545387 49.359784 47.545387 49.359784 48.228387 47.957784 48.228387 47.957784 50.117387 47.065784 50.117387"></polyline>
                <polyline id="Fill-552" fill="#000000" points="57.088784 45.694387 57.088784 46.376387 55.433784 46.376387 55.433784 47.532387 56.898784 47.532387 56.898784 48.215387 55.433784 48.215387 55.433784 49.434387 57.088784 49.434387 57.088784 50.117387 54.541784 50.117387 54.541784 45.694387 57.088784 45.694387"></polyline>
                <polyline id="Fill-553" fill="#000000" points="64.588784 45.694387 64.588784 46.376387 62.933784 46.376387 62.933784 47.532387 64.398784 47.532387 64.398784 48.215387 62.933784 48.215387 62.933784 49.434387 64.588784 49.434387 64.588784 50.117387 62.041784 50.117387 62.041784 45.694387 64.588784 45.694387"></polyline>
                <path d="M76.908784,46.358387 C76.732784,46.358387 76.588784,46.402387 76.477784,46.493387 C76.364784,46.584387 76.309784,46.709387 76.309784,46.869387 C76.309784,47.029387 76.350784,47.154387 76.432784,47.245387 C76.514784,47.336387 76.622784,47.405387 76.757784,47.453387 C76.892784,47.502387 77.040784,47.545387 77.199784,47.583387 C77.359784,47.621387 77.520784,47.667387 77.680784,47.722387 C77.840784,47.777387 77.987784,47.844387 78.122784,47.924387 C78.257784,48.005387 78.365784,48.121387 78.447784,48.275387 C78.529784,48.429387 78.570784,48.615387 78.570784,48.834387 C78.570784,49.196387 78.427784,49.508387 78.138784,49.769387 C77.850784,50.030387 77.466784,50.161387 76.987784,50.161387 C76.510784,50.161387 76.123784,50.048387 75.828784,49.823387 C75.533784,49.598387 75.386784,49.281387 75.386784,48.872387 L76.334784,48.872387 C76.367784,49.259387 76.589784,49.453387 76.997784,49.453387 C77.199784,49.453387 77.359784,49.401387 77.478784,49.296387 C77.596784,49.190387 77.654784,49.050387 77.654784,48.875387 C77.654784,48.700387 77.576784,48.563387 77.421784,48.462387 C77.265784,48.360387 77.076784,48.284387 76.855784,48.234387 C76.634784,48.183387 76.412784,48.122387 76.189784,48.050387 C75.966784,47.979387 75.775784,47.854387 75.620784,47.674387 C75.464784,47.496387 75.386784,47.259387 75.386784,46.964387 C75.386784,46.564387 75.531784,46.243387 75.822784,46.004387 C76.113784,45.763387 76.486784,45.643387 76.943784,45.643387 C77.400784,45.643387 77.769784,45.748387 78.046784,45.956387 C78.324784,46.165387 78.476784,46.482387 78.501784,46.907387 L77.528784,46.907387 C77.511784,46.738387 77.448784,46.605387 77.339784,46.506387 C77.229784,46.407387 77.086784,46.358387 76.908784,46.358387" id="Fill-554" fill="#000000"></path>
                <polyline id="Fill-555" fill="#000000" points="86.254784 45.707387 87.145784 45.707387 87.145784 50.117387 86.254784 50.117387 86.254784 48.228387 84.358784 48.228387 84.358784 50.117387 83.467784 50.117387 83.467784 45.707387 84.358784 45.707387 84.358784 47.545387 86.254784 47.545387 86.254784 45.707387"></polyline>
                <path d="M95.119784,48.951387 C95.367784,48.688387 95.491784,48.337387 95.491784,47.899387 C95.491784,47.461387 95.367784,47.111387 95.119784,46.850387 C94.870784,46.589387 94.547784,46.458387 94.146784,46.458387 C93.746784,46.458387 93.420784,46.590387 93.170784,46.853387 C92.919784,47.117387 92.794784,47.466387 92.794784,47.902387 C92.794784,48.338387 92.919784,48.688387 93.170784,48.951387 C93.420784,49.214387 93.746784,49.346387 94.146784,49.346387 C94.547784,49.346387 94.870784,49.214387 95.119784,48.951387 Z M94.146784,50.161387 C93.510784,50.161387 92.975784,49.948387 92.541784,49.523387 C92.107784,49.097387 91.890784,48.557387 91.890784,47.902387 C91.890784,47.247387 92.108784,46.707387 92.544784,46.281387 C92.981784,45.856387 93.516784,45.643387 94.149784,45.643387 C94.783784,45.643387 95.316784,45.856387 95.751784,46.281387 C96.185784,46.707387 96.401784,47.247387 96.401784,47.902387 C96.401784,48.557387 96.185784,49.097387 95.751784,49.523387 C95.316784,49.948387 94.782784,50.161387 94.146784,50.161387 L94.146784,50.161387 Z" id="Fill-556" fill="#000000"></path>
                <path d="M102.038784,47.678387 L102.771784,47.678387 C102.994784,47.678387 103.165784,47.620387 103.282784,47.504387 C103.400784,47.388387 103.460784,47.232387 103.460784,47.033387 C103.460784,46.835387 103.400784,46.678387 103.282784,46.563387 C103.165784,46.446387 102.994784,46.389387 102.771784,46.389387 L102.038784,46.389387 L102.038784,47.678387 Z M104.028784,47.905387 C103.914784,48.044387 103.749784,48.155387 103.532784,48.237387 C103.315784,48.319387 103.062784,48.360387 102.771784,48.360387 L102.038784,48.360387 L102.038784,50.117387 L101.147784,50.117387 L101.147784,45.707387 L102.771784,45.707387 C103.280784,45.707387 103.674784,45.834387 103.949784,46.089387 C104.225784,46.344387 104.363784,46.644387 104.363784,46.989387 C104.363784,47.335387 104.251784,47.640387 104.028784,47.905387 L104.028784,47.905387 Z" id="Fill-557" fill="#000000"></path>
                <path d="M0.222784042,35.626387 C0.0367840416,35.348387 -0.0322159584,34.904387 0.0137840416,34.293387 C0.0597840416,33.681387 0.180784042,32.992387 0.374784042,32.223387 C0.568784042,31.455387 0.815784042,30.650387 1.11078404,29.806387 C1.40678404,28.964387 1.70378404,28.159387 1.99978404,27.390387 C2.29678404,26.622387 2.56878404,25.932387 2.81878404,25.320387 C3.06878404,24.710387 3.24978404,24.265387 3.36078404,23.987387 C3.49078404,23.710387 3.66178404,23.316387 3.87478404,22.807387 C4.08778404,22.298387 4.31878404,21.742387 4.56878404,21.140387 C4.81878404,20.539387 5.08278404,19.904387 5.36078404,19.237387 C5.63878404,18.571387 5.90178404,17.932387 6.15178404,17.321387 C6.40278404,16.710387 6.63378404,16.154387 6.84778404,15.654387 C7.05978404,15.154387 7.23178404,14.756387 7.35978404,14.460387 C7.76778404,14.331387 8.03678404,14.344387 8.16678404,14.502387 C8.29578404,14.659387 8.33278404,14.923387 8.27678404,15.293387 C8.22278404,15.664387 8.09178404,16.112387 7.88878404,16.640387 C7.68478404,17.168387 7.44778404,17.733387 7.18078404,18.335387 C6.91178404,18.937387 6.63378404,19.552387 6.34678404,20.182387 C6.06078404,20.812387 5.80078404,21.409387 5.56878404,21.973387 C5.33778404,22.539387 5.16178404,23.052387 5.04178404,23.515387 C4.92078404,23.978387 4.88878404,24.348387 4.94378404,24.626387 C5.27678404,24.663387 5.66178404,24.663387 6.09778404,24.626387 C6.53178404,24.589387 6.97678404,24.534387 7.43078404,24.460387 C7.88378404,24.386387 8.33278404,24.302387 8.77678404,24.210387 C9.22178404,24.117387 9.60978404,24.043387 9.94378404,23.987387 C11.628784,23.710387 12.976784,23.312387 13.984784,22.793387 C14.993784,22.275387 15.837784,21.612387 16.513784,20.807387 C17.189784,20.001387 17.776784,19.034387 18.276784,17.904387 C18.776784,16.775387 19.350784,15.460387 19.998784,13.960387 C20.165784,13.645387 20.314784,13.511387 20.443784,13.557387 C20.572784,13.604387 20.679784,13.733387 20.762784,13.946387 C20.846784,14.159387 20.905784,14.395387 20.942784,14.654387 C20.981784,14.914387 20.981784,15.099387 20.942784,15.210387 C20.924784,15.265387 20.869784,15.386387 20.776784,15.571387 C20.684784,15.756387 20.582784,15.955387 20.471784,16.168387 C20.359784,16.381387 20.258784,16.575387 20.165784,16.752387 C20.072784,16.928387 20.017784,17.043387 19.998784,17.099387 C19.961784,17.173387 19.915784,17.298387 19.859784,17.474387 C19.804784,17.650387 19.739784,17.839387 19.665784,18.043387 C19.591784,18.247387 19.526784,18.437387 19.471784,18.612387 C19.415784,18.789387 19.378784,18.914387 19.359784,18.987387 C19.452784,19.006387 19.577784,19.094387 19.734784,19.251387 C19.892784,19.409387 19.980784,19.534387 19.998784,19.626387 C20.054784,19.942387 19.952784,20.298387 19.693784,20.695387 C19.434784,21.094387 19.114784,21.506387 18.734784,21.932387 C18.355784,22.358387 17.984784,22.775387 17.623784,23.182387 C17.263784,23.589387 17.017784,23.969387 16.888784,24.320387 C16.128784,26.173387 15.476784,28.025387 14.929784,29.876387 C14.383784,31.728387 13.980784,33.645387 13.721784,35.626387 C13.666784,35.719387 13.582784,35.811387 13.471784,35.903387 C13.360784,35.996387 13.239784,36.005387 13.109784,35.931387 C13.072784,35.524387 13.106784,34.964387 13.207784,34.251387 C13.309784,33.538387 13.443784,32.760387 13.610784,31.918387 C13.776784,31.075387 13.961784,30.219387 14.165784,29.348387 C14.369784,28.478387 14.559784,27.677387 14.734784,26.945387 C14.910784,26.214387 15.054784,25.608387 15.166784,25.126387 C15.276784,24.645387 15.322784,24.376387 15.305784,24.320387 C14.915784,24.247387 14.416784,24.233387 13.805784,24.279387 C13.193784,24.325387 12.526784,24.409387 11.805784,24.529387 C11.082784,24.650387 10.332784,24.793387 9.55578404,24.960387 C8.77678404,25.126387 8.02378404,25.307387 7.29178404,25.501387 C6.55978404,25.695387 5.87978404,25.881387 5.24978404,26.057387 C4.61978404,26.233387 4.10178404,26.386387 3.69378404,26.515387 C3.37878404,27.219387 3.11978404,27.992387 2.91678404,28.834387 C2.71278404,29.677387 2.50378404,30.525387 2.29178404,31.376387 C2.07778404,32.228387 1.84278404,33.048387 1.58378404,33.834387 C1.32378404,34.621387 0.981784042,35.320387 0.555784042,35.931387 C0.518784042,35.913387 0.457784042,35.866387 0.374784042,35.793387 C0.291784042,35.719387 0.239784042,35.663387 0.222784042,35.626387" id="Fill-558" fill="#272525"></path>
                <path d="M19.665784,34.043387 C19.813784,34.635387 20.128784,34.964387 20.609784,35.028387 C21.091784,35.094387 21.651784,34.973387 22.290784,34.668387 C22.929784,34.362387 23.600784,33.918387 24.304784,33.334387 C25.008784,32.751387 25.651784,32.117387 26.234784,31.432387 C26.817784,30.747387 27.299784,30.057387 27.679784,29.362387 C28.058784,28.668387 28.243784,28.062387 28.234784,27.543387 C28.225784,27.025387 27.975784,26.631387 27.484784,26.362387 C26.993784,26.094387 26.174784,26.043387 25.026784,26.210387 C24.767784,26.450387 24.433784,26.742387 24.026784,27.084387 C23.618784,27.427387 23.197784,27.802387 22.762784,28.209387 C22.327784,28.617387 21.896784,29.056387 21.470784,29.529387 C21.044784,30.001387 20.675784,30.487387 20.359784,30.987387 C20.045784,31.487387 19.817784,31.997387 19.679784,32.515387 C19.540784,33.033387 19.535784,33.543387 19.665784,34.043387 Z M19.971784,35.626387 C19.193784,35.311387 18.707784,34.839387 18.512784,34.209387 C18.317784,33.580387 18.322784,32.881387 18.526784,32.112387 C18.730784,31.344387 19.081784,30.548387 19.582784,29.723387 C20.082784,28.900387 20.637784,28.145387 21.248784,27.459387 C21.859784,26.775387 22.475784,26.195387 23.096784,25.723387 C23.716784,25.251387 24.248784,24.987387 24.692784,24.932387 C25.841784,24.784387 26.743784,24.862387 27.400784,25.168387 C28.058784,25.473387 28.508784,25.914387 28.748784,26.487387 C28.988784,27.061387 29.054784,27.733387 28.942784,28.501387 C28.832784,29.270387 28.586784,30.043387 28.207784,30.820387 C27.826784,31.598387 27.336784,32.348387 26.734784,33.070387 C26.132784,33.792387 25.466784,34.399387 24.734784,34.890387 C24.002784,35.381387 23.230784,35.705387 22.415784,35.862387 C21.600784,36.019387 20.785784,35.940387 19.971784,35.626387 L19.971784,35.626387 Z" id="Fill-559" fill="#272525"></path>
                <path d="M45.456784,34.473387 C45.428784,34.167387 45.445784,33.862387 45.511784,33.557387 C45.576784,33.251387 45.668784,32.955387 45.788784,32.668387 C45.908784,32.381387 46.024784,32.117387 46.136784,31.876387 C46.210784,31.691387 46.362784,31.353387 46.594784,30.862387 C46.825784,30.372387 47.076784,29.858387 47.344784,29.320387 C47.612784,28.783387 47.867784,28.279387 48.108784,27.807387 C48.349784,27.335387 48.516784,27.006387 48.608784,26.820387 L48.608784,26.210387 C48.423784,26.117387 48.043784,26.242387 47.469784,26.585387 C46.896784,26.927387 46.229784,27.400387 45.470784,28.001387 C44.710784,28.603387 43.904784,29.275387 43.053784,30.015387 C42.201784,30.756387 41.400784,31.464387 40.650784,32.140387 C39.900784,32.816387 39.247784,33.417387 38.692784,33.945387 C38.136784,34.473387 37.784784,34.820387 37.637784,34.987387 C37.229784,35.117387 36.965784,35.028387 36.845784,34.723387 C36.724784,34.418387 36.691784,33.992387 36.747784,33.445387 C36.803784,32.899387 36.914784,32.288387 37.080784,31.612387 C37.247784,30.936387 37.419784,30.298387 37.595784,29.695387 C37.770784,29.094387 37.928784,28.580387 38.067784,28.154387 C38.206784,27.728387 38.266784,27.497387 38.247784,27.459387 C37.877784,27.330387 37.487784,27.376387 37.080784,27.598387 C36.673784,27.820387 36.256784,28.150387 35.831784,28.585387 C35.404784,29.020387 34.979784,29.529387 34.553784,30.112387 C34.127784,30.695387 33.701784,31.279387 33.274784,31.862387 C32.850784,32.445387 32.441784,33.001387 32.054784,33.528387 C31.664784,34.056387 31.293784,34.487387 30.942784,34.820387 C30.590784,35.153387 30.261784,35.348387 29.956784,35.403387 C29.650784,35.459387 29.387784,35.320387 29.164784,34.987387 C29.146784,34.969387 29.137784,34.923387 29.137784,34.848387 C29.137784,34.774387 29.146784,34.719387 29.164784,34.681387 C29.257784,34.497387 29.400784,34.205387 29.595784,33.806387 C29.789784,33.408387 30.007784,32.959387 30.248784,32.459387 C30.488784,31.959387 30.747784,31.436387 31.025784,30.890387 C31.304784,30.344387 31.567784,29.825387 31.816784,29.335387 C32.066784,28.844387 32.289784,28.404387 32.483784,28.015387 C32.678784,27.626387 32.830784,27.339387 32.942784,27.153387 C33.034784,26.969387 33.164784,26.733387 33.331784,26.445387 C33.497784,26.159387 33.664784,25.881387 33.831784,25.612387 C33.998784,25.344387 34.210784,25.015387 34.470784,24.626387 L35.136784,24.626387 C35.266784,25.052387 35.247784,25.450387 35.081784,25.820387 C34.914784,26.191387 34.715784,26.552387 34.483784,26.904387 C34.252784,27.256387 34.058784,27.603387 33.900784,27.945387 C33.742784,28.288387 33.738784,28.654387 33.886784,29.043387 C35.479784,27.635387 36.706784,26.598387 37.566784,25.932387 C38.428784,25.265387 39.034784,24.885387 39.386784,24.793387 C39.737784,24.700387 39.904784,24.839387 39.887784,25.209387 C39.868784,25.580387 39.789784,26.080387 39.649784,26.709387 C39.511784,27.339387 39.372784,28.057387 39.233784,28.862387 C39.095784,29.668387 39.081784,30.450387 39.191784,31.210387 L39.525784,31.210387 C39.636784,31.136387 39.821784,30.997387 40.080784,30.793387 C40.340784,30.589387 40.622784,30.367387 40.928784,30.126387 C41.233784,29.885387 41.521784,29.663387 41.789784,29.459387 C42.058784,29.256387 42.247784,29.117387 42.358784,29.043387 C42.563784,28.876387 42.858784,28.645387 43.247784,28.348387 C43.636784,28.052387 44.029784,27.751387 44.428784,27.445387 C44.826784,27.140387 45.187784,26.872387 45.511784,26.640387 C45.835784,26.409387 46.043784,26.265387 46.136784,26.210387 C46.210784,26.154387 46.372784,26.038387 46.622784,25.862387 C46.872784,25.686387 47.149784,25.497387 47.455784,25.293387 C47.761784,25.089387 48.052784,24.900387 48.330784,24.723387 C48.608784,24.548387 48.812784,24.414387 48.941784,24.320387 C49.220784,24.135387 49.479784,24.052387 49.719784,24.070387 C49.959784,24.089387 50.158784,24.177387 50.316784,24.335387 C50.474784,24.492387 50.570784,24.705387 50.607784,24.973387 C50.645784,25.242387 50.607784,25.543387 50.497784,25.876387 C50.053784,26.709387 49.612784,27.525387 49.178784,28.320387 C48.742784,29.117387 48.344784,29.918387 47.983784,30.723387 C47.622784,31.528387 47.325784,32.358387 47.095784,33.209387 C46.862784,34.061387 46.737784,34.969387 46.719784,35.931387 C46.626784,35.987387 46.529784,35.987387 46.428784,35.931387 C46.326784,35.876387 46.229784,35.802387 46.136784,35.709387 C46.043784,35.617387 45.932784,35.478387 45.803784,35.292387 C45.599784,35.052387 45.482784,34.778387 45.456784,34.473387" id="Fill-560" fill="#272525"></path>
                <path d="M59.246784,25.015387 C59.228784,24.997387 59.089784,25.075387 58.830784,25.251387 C58.570784,25.427387 58.251784,25.659387 57.871784,25.946387 C57.492784,26.233387 57.084784,26.548387 56.649784,26.890387 C56.214784,27.233387 55.816784,27.552387 55.455784,27.848387 C55.094784,28.145387 54.793784,28.400387 54.552784,28.612387 C54.312784,28.825387 54.209784,28.932387 54.246784,28.932387 C54.543784,28.987387 54.928784,28.945387 55.399784,28.807387 C55.872784,28.668387 56.362784,28.469387 56.872784,28.209387 C57.381784,27.950387 57.867784,27.658387 58.330784,27.335387 C58.793784,27.010387 59.159784,26.692387 59.427784,26.376387 C59.695784,26.061387 59.834784,25.784387 59.844784,25.543387 C59.853784,25.302387 59.653784,25.126387 59.246784,25.015387 Z M52.607784,35.626387 C52.053784,35.441387 51.631784,35.158387 51.345784,34.778387 C51.057784,34.399387 50.867784,33.978387 50.774784,33.515387 C50.682784,33.052387 50.668784,32.566387 50.733784,32.056387 C50.798784,31.548387 50.904784,31.061387 51.053784,30.598387 C51.608784,30.006387 52.233784,29.325387 52.928784,28.557387 C53.622784,27.788387 54.358784,27.034387 55.136784,26.293387 C55.913784,25.552387 56.724784,24.862387 57.565784,24.223387 C58.409784,23.585387 59.265784,23.098387 60.136784,22.765387 C60.432784,22.636387 60.667784,22.640387 60.844784,22.779387 C61.020784,22.918387 61.145784,23.136387 61.219784,23.432387 C61.292784,23.728387 61.325784,24.070387 61.316784,24.460387 C61.307784,24.848387 61.274784,25.228387 61.219784,25.598387 C61.163784,25.969387 61.089784,26.302387 60.997784,26.598387 C60.903784,26.895387 60.812784,27.098387 60.719784,27.210387 C60.497784,27.469387 60.066784,27.775387 59.427784,28.126387 C58.788784,28.478387 58.080784,28.862387 57.302784,29.279387 C56.524784,29.695387 55.747784,30.126387 54.970784,30.570387 C54.191784,31.015387 53.553784,31.455387 53.052784,31.890387 C52.553784,32.325387 52.256784,32.756387 52.163784,33.181387 C52.070784,33.608387 52.330784,33.997387 52.941784,34.348387 C53.571784,34.422387 54.334784,34.390387 55.233784,34.251387 C56.131784,34.112387 57.048784,33.927387 57.983784,33.695387 C58.918784,33.464387 59.820784,33.223387 60.691784,32.973387 C61.562784,32.723387 62.274784,32.525387 62.830784,32.376387 L63.163784,32.681387 C62.756784,33.219387 62.089784,33.709387 61.163784,34.154387 C60.237784,34.598387 59.237784,34.964387 58.163784,35.251387 C57.089784,35.538387 56.043784,35.723387 55.024784,35.806387 C54.006784,35.890387 53.200784,35.830387 52.607784,35.626387 L52.607784,35.626387 Z" id="Fill-561" fill="#272525"></path>
                <path d="M78.065784,34.473387 C78.037784,34.167387 78.056784,33.862387 78.120784,33.557387 C78.186784,33.251387 78.277784,32.955387 78.398784,32.668387 C78.519784,32.381387 78.635784,32.117387 78.745784,31.876387 C78.819784,31.691387 78.972784,31.353387 79.204784,30.862387 C79.435784,30.372387 79.686784,29.858387 79.954784,29.320387 C80.222784,28.783387 80.477784,28.279387 80.718784,27.807387 C80.958784,27.335387 81.125784,27.006387 81.218784,26.820387 L81.218784,26.210387 C81.032784,26.117387 80.652784,26.242387 80.079784,26.585387 C79.505784,26.927387 78.838784,27.400387 78.079784,28.001387 C77.319784,28.603387 76.514784,29.275387 75.662784,30.015387 C74.811784,30.756387 74.010784,31.464387 73.260784,32.140387 C72.510784,32.816387 71.856784,33.417387 71.302784,33.945387 C70.745784,34.473387 70.394784,34.820387 70.246784,34.987387 C69.838784,35.117387 69.574784,35.028387 69.454784,34.723387 C69.333784,34.418387 69.302784,33.992387 69.356784,33.445387 C69.412784,32.899387 69.523784,32.288387 69.690784,31.612387 C69.856784,30.936387 70.028784,30.298387 70.204784,29.695387 C70.380784,29.094387 70.538784,28.580387 70.677784,28.154387 C70.815784,27.728387 70.875784,27.497387 70.856784,27.459387 C70.486784,27.330387 70.098784,27.376387 69.690784,27.598387 C69.283784,27.820387 68.866784,28.150387 68.440784,28.585387 C68.015784,29.020387 67.589784,29.529387 67.162784,30.112387 C66.736784,30.695387 66.311784,31.279387 65.885784,31.862387 C65.459784,32.445387 65.052784,33.001387 64.663784,33.528387 C64.273784,34.056387 63.903784,34.487387 63.552784,34.820387 C63.199784,35.153387 62.871784,35.348387 62.565784,35.403387 C62.260784,35.459387 61.996784,35.320387 61.774784,34.987387 C61.756784,34.969387 61.746784,34.923387 61.746784,34.848387 C61.746784,34.774387 61.756784,34.719387 61.774784,34.681387 C61.866784,34.497387 62.010784,34.205387 62.204784,33.806387 C62.399784,33.408387 62.616784,32.959387 62.857784,32.459387 C63.098784,31.959387 63.357784,31.436387 63.635784,30.890387 C63.913784,30.344387 64.177784,29.825387 64.427784,29.335387 C64.676784,28.844387 64.898784,28.404387 65.094784,28.015387 C65.287784,27.626387 65.440784,27.339387 65.552784,27.153387 C65.644784,26.969387 65.773784,26.733387 65.940784,26.445387 C66.107784,26.159387 66.273784,25.881387 66.440784,25.612387 C66.607784,25.344387 66.819784,25.015387 67.079784,24.626387 L67.746784,24.626387 C67.875784,25.052387 67.856784,25.450387 67.690784,25.820387 C67.523784,26.191387 67.324784,26.552387 67.093784,26.904387 C66.861784,27.256387 66.667784,27.603387 66.510784,27.945387 C66.353784,28.288387 66.348784,28.654387 66.496784,29.043387 C68.089784,27.635387 69.315784,26.598387 70.177784,25.932387 C71.037784,25.265387 71.644784,24.885387 71.996784,24.793387 C72.348784,24.700387 72.514784,24.839387 72.496784,25.209387 C72.478784,25.580387 72.398784,26.080387 72.260784,26.709387 C72.121784,27.339387 71.981784,28.057387 71.843784,28.862387 C71.704784,29.668387 71.690784,30.450387 71.801784,31.210387 L72.135784,31.210387 C72.245784,31.136387 72.431784,30.997387 72.690784,30.793387 C72.949784,30.589387 73.232784,30.367387 73.537784,30.126387 C73.843784,29.885387 74.130784,29.663387 74.398784,29.459387 C74.667784,29.256387 74.856784,29.117387 74.968784,29.043387 C75.172784,28.876387 75.468784,28.645387 75.856784,28.348387 C76.246784,28.052387 76.639784,27.751387 77.037784,27.445387 C77.436784,27.140387 77.796784,26.872387 78.120784,26.640387 C78.444784,26.409387 78.652784,26.265387 78.745784,26.210387 C78.819784,26.154387 78.981784,26.038387 79.231784,25.862387 C79.481784,25.686387 79.759784,25.497387 80.065784,25.293387 C80.370784,25.089387 80.662784,24.900387 80.940784,24.723387 C81.218784,24.548387 81.421784,24.414387 81.552784,24.320387 C81.829784,24.135387 82.088784,24.052387 82.328784,24.070387 C82.569784,24.089387 82.769784,24.177387 82.926784,24.335387 C83.083784,24.492387 83.180784,24.705387 83.218784,24.973387 C83.255784,25.242387 83.218784,25.543387 83.106784,25.876387 C82.662784,26.709387 82.223784,27.525387 81.787784,28.320387 C81.352784,29.117387 80.953784,29.918387 80.593784,30.723387 C80.231784,31.528387 79.936784,32.358387 79.704784,33.209387 C79.472784,34.061387 79.348784,34.969387 79.328784,35.931387 C79.235784,35.987387 79.139784,35.987387 79.037784,35.931387 C78.936784,35.876387 78.838784,35.802387 78.745784,35.709387 C78.652784,35.617387 78.541784,35.478387 78.412784,35.292387 C78.208784,35.052387 78.093784,34.778387 78.065784,34.473387" id="Fill-562" fill="#272525"></path>
                <path d="M84.745784,34.348387 C84.912784,34.941387 85.282784,35.214387 85.856784,35.168387 C86.431784,35.122387 87.097784,34.839387 87.856784,34.320387 C88.616784,33.802387 89.402784,33.094387 90.218784,32.195387 C91.032784,31.298387 91.763784,30.298387 92.412784,29.195387 C93.060784,28.094387 93.556784,26.932387 93.898784,25.710387 C94.240784,24.487387 94.328784,23.284387 94.162784,22.099387 C93.718784,21.747387 93.162784,21.733387 92.495784,22.057387 C91.828784,22.381387 91.120784,22.909387 90.370784,23.640387 C89.620784,24.372387 88.880784,25.242387 88.148784,26.251387 C87.416784,27.261387 86.773784,28.279387 86.218784,29.307387 C85.662784,30.334387 85.240784,31.302387 84.954784,32.209387 C84.667784,33.117387 84.597784,33.830387 84.745784,34.348387 Z M84.440784,35.292387 C83.995784,34.923387 83.750784,34.376387 83.703784,33.653387 C83.657784,32.932387 83.760784,32.117387 84.009784,31.210387 C84.260784,30.302387 84.630784,29.353387 85.120784,28.362387 C85.610784,27.372387 86.181784,26.427387 86.829784,25.529387 C87.477784,24.631387 88.180784,23.825387 88.940784,23.112387 C89.698784,22.400387 90.458784,21.872387 91.218784,21.529387 C91.977784,21.187387 92.718784,21.067387 93.440784,21.168387 C94.162784,21.270387 94.818784,21.692387 95.412784,22.432387 C95.782784,22.895387 96.004784,23.362387 96.078784,23.835387 C96.152784,24.307387 96.144784,24.789387 96.050784,25.279387 C95.958784,25.770387 95.810784,26.270387 95.606784,26.779387 C95.402784,27.289387 95.203784,27.802387 95.009784,28.320387 C94.815784,28.839387 94.656784,29.367387 94.536784,29.904387 C94.416784,30.441387 94.393784,30.987387 94.468784,31.543387 C94.560784,32.247387 94.874784,32.663387 95.412784,32.793387 C95.948784,32.922387 96.593784,32.885387 97.343784,32.681387 C98.093784,32.478387 98.884784,32.153387 99.717784,31.709387 C100.551784,31.265387 101.323784,30.820387 102.037784,30.376387 C102.749784,29.932387 103.578784,29.376387 104.523784,28.710387 C105.040784,28.598387 105.332784,28.631387 105.398784,28.807387 C105.462784,28.983387 105.360784,29.242387 105.092784,29.584387 C104.823784,29.927387 104.421784,30.316387 103.883784,30.751387 C103.347784,31.186387 102.735784,31.608387 102.051784,32.015387 C101.365784,32.423387 100.634784,32.793387 99.856784,33.126387 C99.078784,33.459387 98.318784,33.686387 97.578784,33.806387 C96.837784,33.927387 96.138784,33.918387 95.481784,33.779387 C94.823784,33.640387 94.282784,33.311387 93.856784,32.793387 C93.652784,32.570387 93.499784,32.348387 93.398784,32.126387 C93.296784,31.903387 93.134784,31.709387 92.911784,31.543387 C92.634784,31.802387 92.301784,32.140387 91.912784,32.557387 C91.523784,32.973387 91.102784,33.390387 90.648784,33.806387 C90.194784,34.223387 89.713784,34.617387 89.204784,34.987387 C88.694784,35.358387 88.172784,35.635387 87.634784,35.820387 C87.097784,36.005387 86.556784,36.070387 86.009784,36.015387 C85.463784,35.959387 84.940784,35.719387 84.440784,35.292387 L84.440784,35.292387 Z" id="Fill-563" fill="#272525"></path>
                <path d="M102.744784,34.043387 C102.818784,34.358387 103.101784,34.450387 103.592784,34.320387 C104.082784,34.191387 104.661784,33.918387 105.327784,33.501387 C105.994784,33.084387 106.702784,32.580387 107.452784,31.987387 C108.202784,31.395387 108.879784,30.802387 109.481784,30.209387 C110.082784,29.617387 110.554784,29.070387 110.897784,28.570387 C111.239784,28.070387 111.346784,27.700387 111.216784,27.459387 C110.643784,27.145387 110.003784,26.987387 109.300784,26.987387 C108.596784,26.987387 107.897784,27.112387 107.203784,27.362387 C106.509784,27.612387 105.842784,27.964387 105.202784,28.418387 C104.564784,28.872387 104.026784,29.395387 103.592784,29.987387 C103.156784,30.580387 102.852784,31.223387 102.675784,31.918387 C102.499784,32.612387 102.523784,33.320387 102.744784,34.043387 Z M113.106784,35.292387 C112.401784,34.811387 111.893784,34.214387 111.577784,33.501387 C111.263784,32.788387 111.031784,32.025387 110.883784,31.210387 L110.578784,31.210387 C109.077784,32.431387 107.776784,33.348387 106.675784,33.959387 C105.573784,34.570387 104.643784,34.945387 103.883784,35.084387 C103.124784,35.223387 102.531784,35.163387 102.106784,34.904387 C101.680784,34.645387 101.406784,34.269387 101.286784,33.779387 C101.166784,33.288387 101.190784,32.709387 101.356784,32.043387 C101.523784,31.376387 101.809784,30.705387 102.217784,30.028387 C102.624784,29.353387 103.151784,28.710387 103.800784,28.098387 C104.448784,27.487387 105.193784,26.987387 106.036784,26.598387 C106.879784,26.210387 107.814784,25.964387 108.842784,25.862387 C109.869784,25.761387 110.976784,25.876387 112.161784,26.210387 L112.466784,25.876387 L116.216784,18.348387 C116.717784,18.423387 117.012784,18.645387 117.105784,19.015387 C117.197784,19.386387 117.192784,19.793387 117.091784,20.237387 C116.989784,20.682387 116.841784,21.112387 116.647784,21.529387 C116.452784,21.946387 116.309784,22.247387 116.216784,22.432387 C116.160784,22.543387 116.054784,22.756387 115.897784,23.071387 C115.739784,23.386387 115.554784,23.761387 115.341784,24.196387 C115.128784,24.631387 114.901784,25.089387 114.660784,25.571387 C114.420784,26.052387 114.192784,26.511387 113.981784,26.945387 C113.767784,27.381387 113.578784,27.760387 113.411784,28.084387 C113.244784,28.408387 113.142784,28.617387 113.106784,28.710387 C112.772784,29.395387 112.619784,30.122387 112.648784,30.890387 C112.675784,31.658387 112.716784,32.395387 112.772784,33.098387 C112.846784,33.431387 112.994784,33.705387 113.216784,33.918387 C113.439784,34.131387 113.675784,34.325387 113.925784,34.501387 C114.175784,34.677387 114.425784,34.848387 114.675784,35.015387 C114.925784,35.181387 115.133784,35.385387 115.300784,35.626387 C115.225784,35.866387 115.077784,35.991387 114.856784,36.001387 C114.633784,36.010387 114.401784,35.968387 114.161784,35.876387 C113.920784,35.783387 113.698784,35.673387 113.494784,35.543387 C113.290784,35.413387 113.160784,35.330387 113.106784,35.292387 L113.106784,35.292387 Z" id="Fill-564" fill="#272525"></path>
                <path d="M124.076784,25.015387 C124.058784,24.997387 123.919784,25.075387 123.660784,25.251387 C123.400784,25.427387 123.081784,25.659387 122.701784,25.946387 C122.322784,26.233387 121.914784,26.548387 121.480784,26.890387 C121.044784,27.233387 120.647784,27.552387 120.285784,27.848387 C119.924784,28.145387 119.622784,28.400387 119.382784,28.612387 C119.142784,28.825387 119.039784,28.932387 119.076784,28.932387 C119.373784,28.987387 119.758784,28.945387 120.230784,28.807387 C120.702784,28.668387 121.192784,28.469387 121.702784,28.209387 C122.211784,27.950387 122.696784,27.658387 123.160784,27.335387 C123.623784,27.010387 123.989784,26.692387 124.257784,26.376387 C124.525784,26.061387 124.664784,25.784387 124.674784,25.543387 C124.683784,25.302387 124.483784,25.126387 124.076784,25.015387 Z M117.438784,35.626387 C116.883784,35.441387 116.461784,35.158387 116.174784,34.778387 C115.887784,34.399387 115.697784,33.978387 115.605784,33.515387 C115.512784,33.052387 115.498784,32.566387 115.564784,32.056387 C115.628784,31.548387 115.734784,31.061387 115.883784,30.598387 C116.438784,30.006387 117.064784,29.325387 117.757784,28.557387 C118.452784,27.788387 119.188784,27.034387 119.966784,26.293387 C120.743784,25.552387 121.554784,24.862387 122.396784,24.223387 C123.239784,23.585387 124.095784,23.098387 124.965784,22.765387 C125.262784,22.636387 125.497784,22.640387 125.674784,22.779387 C125.850784,22.918387 125.975784,23.136387 126.049784,23.432387 C126.122784,23.728387 126.155784,24.070387 126.147784,24.460387 C126.137784,24.848387 126.105784,25.228387 126.049784,25.598387 C125.993784,25.969387 125.919784,26.302387 125.827784,26.598387 C125.733784,26.895387 125.642784,27.098387 125.549784,27.210387 C125.326784,27.469387 124.897784,27.775387 124.257784,28.126387 C123.618784,28.478387 122.910784,28.862387 122.132784,29.279387 C121.355784,29.695387 120.577784,30.126387 119.799784,30.570387 C119.022784,31.015387 118.382784,31.455387 117.882784,31.890387 C117.383784,32.325387 117.086784,32.756387 116.993784,33.181387 C116.900784,33.608387 117.160784,33.997387 117.772784,34.348387 C118.401784,34.422387 119.164784,34.390387 120.063784,34.251387 C120.961784,34.112387 121.878784,33.927387 122.813784,33.695387 C123.748784,33.464387 124.650784,33.223387 125.522784,32.973387 C126.392784,32.723387 127.105784,32.525387 127.660784,32.376387 L127.993784,32.681387 C127.586784,33.219387 126.919784,33.709387 125.993784,34.154387 C125.066784,34.598387 124.067784,34.964387 122.993784,35.251387 C121.919784,35.538387 120.873784,35.723387 119.855784,35.806387 C118.836784,35.890387 118.030784,35.830387 117.438784,35.626387 L117.438784,35.626387 Z" id="Fill-565" fill="#272525"></path>
                <path d="M53.638784,15.186387 C53.624784,15.159387 53.617784,15.086387 53.617784,14.964387 C53.617784,14.843387 53.624784,14.763387 53.638784,14.723387 C53.678784,14.575387 53.752784,14.317387 53.859784,13.947387 C53.967784,13.578387 54.081784,13.188387 54.202784,12.778387 C54.323784,12.369387 54.437784,11.983387 54.544784,11.620387 C54.651784,11.257387 54.726784,11.002387 54.766784,10.854387 C54.819784,10.666387 54.880784,10.448387 54.947784,10.199387 C55.015784,9.95138704 55.027784,9.71338704 54.988784,9.48438704 C54.786784,9.45738704 54.537784,9.48138704 54.242784,9.55438704 C53.946784,9.62938704 53.654784,9.68938704 53.365784,9.73638704 C53.077784,9.78338704 52.808784,9.78338704 52.560784,9.73638704 C52.311784,9.68938704 52.133784,9.53138704 52.026784,9.26238704 C52.187784,8.92638704 52.429784,8.70838704 52.751784,8.60838704 C53.073784,8.50738704 53.423784,8.43638704 53.799784,8.39638704 C54.175784,8.35638704 54.534784,8.29538704 54.877784,8.21438704 C55.219784,8.13438704 55.491784,7.95338704 55.692784,7.67138704 C55.814784,7.32138704 55.958784,6.89538704 56.126784,6.39138704 C56.294784,5.88738704 56.472784,5.36038704 56.660784,4.80938704 C56.848784,4.25938704 57.053784,3.71438704 57.274784,3.17738704 C57.496784,2.64038704 57.728784,2.16338704 57.970784,1.74638704 C58.117784,1.65338704 58.238784,1.64638704 58.332784,1.72738704 C58.426784,1.80738704 58.496784,1.92538704 58.544784,2.07938704 C58.591784,2.23438704 58.621784,2.39138704 58.635784,2.55238704 C58.648784,2.71438704 58.648784,2.82138704 58.635784,2.87538704 C58.555784,3.22438704 58.416784,3.59738704 58.222784,3.99338704 C58.027784,4.39038704 57.846784,4.78938704 57.678784,5.19238704 C57.510784,5.59538704 57.375784,5.99838704 57.274784,6.40138704 C57.174784,6.80438704 57.171784,7.18738704 57.265784,7.54938704 L61.597784,7.54938704 C61.610784,7.54938704 61.644784,7.59338704 61.697784,7.68138704 C61.751784,7.76838704 61.798784,7.83938704 61.839784,7.89238704 C61.905784,8.08038704 61.831784,8.20838704 61.616784,8.27538704 C61.401784,8.34238704 61.113784,8.38638704 60.750784,8.40638704 C60.388784,8.42638704 59.975784,8.44038704 59.511784,8.44638704 C59.048784,8.45338704 58.605784,8.48638704 58.181784,8.54738704 C57.758784,8.60838704 57.379784,8.70838704 57.043784,8.84938704 C56.707784,8.99038704 56.479784,9.20238704 56.357784,9.48438704 C56.008784,10.384387 55.686784,11.287387 55.391784,12.194387 C55.095784,13.101387 54.814784,14.017387 54.544784,14.944387 C54.518784,14.985387 54.464784,15.048387 54.384784,15.136387 C54.303784,15.223387 54.215784,15.297387 54.121784,15.358387 C54.027784,15.418387 53.937784,15.441387 53.850784,15.428387 C53.762784,15.414387 53.691784,15.334387 53.638784,15.186387" id="Fill-566" fill="#272525"></path>
                <path d="M59.823784,14.944387 C59.810784,14.918387 59.803784,14.881387 59.803784,14.834387 C59.803784,14.787387 59.810784,14.750387 59.823784,14.723387 C59.877784,14.615387 59.968784,14.431387 60.096784,14.169387 C60.223784,13.906387 60.357784,13.631387 60.499784,13.342387 C60.640784,13.054387 60.777784,12.782387 60.912784,12.527387 C61.046784,12.272387 61.140784,12.090387 61.193784,11.983387 C61.221784,11.942387 61.291784,11.828387 61.405784,11.640387 C61.519784,11.452387 61.660784,11.220387 61.828784,10.944387 C61.996784,10.670387 62.178784,10.364387 62.372784,10.028387 C62.567784,9.69338704 62.762784,9.36338704 62.956784,9.04138704 C63.151784,8.71838704 63.332784,8.41638704 63.500784,8.13438704 C63.669784,7.85238704 63.806784,7.61738704 63.914784,7.42838704 C64.183784,6.98538704 64.495784,6.46238704 64.851784,5.85738704 C65.206784,5.25338704 65.573784,4.64138704 65.949784,4.02438704 C66.325784,3.40638704 66.697784,2.80838704 67.066784,2.23038704 C67.437784,1.65338704 67.775784,1.17638704 68.085784,0.799387045 C68.394784,0.423387045 68.655784,0.175387045 68.870784,0.054387045 C69.085784,-0.066612955 69.233784,0.014387045 69.314784,0.296387045 L69.314784,0.941387045 C69.220784,1.08938704 69.093784,1.28038704 68.931784,1.51538704 C68.771784,1.75038704 68.606784,1.99938704 68.438784,2.26038704 C68.270784,2.52238704 68.106784,2.77438704 67.943784,3.01638704 C67.782784,3.25738704 67.661784,3.44638704 67.581784,3.58038704 C67.460784,3.76938704 67.265784,4.07138704 66.996784,4.48738704 C66.728784,4.90338704 66.425784,5.37338704 66.090784,5.89838704 C65.754784,6.42138704 65.411784,6.96838704 65.063784,7.54038704 C64.713784,8.11038704 64.398784,8.64538704 64.115784,9.14138704 C63.833784,9.63838704 63.608784,10.065387 63.440784,10.421387 C63.272784,10.777387 63.209784,11.002387 63.249784,11.096387 C63.571784,11.002387 63.917784,10.831387 64.286784,10.582387 C64.655784,10.334387 65.029784,10.068387 65.405784,9.78638704 C65.781784,9.50438704 66.157784,9.23238704 66.533784,8.97038704 C66.909784,8.70838704 67.259784,8.50438704 67.581784,8.35638704 C67.903784,8.39638704 68.186784,8.51738704 68.428784,8.71838704 C68.669784,8.92038704 68.843784,9.17538704 68.951784,9.48438704 C68.938784,9.60538704 68.928784,9.83038704 68.921784,10.159387 C68.914784,10.488387 68.911784,10.834387 68.911784,11.196387 C68.911784,11.559387 68.914784,11.902387 68.921784,12.224387 C68.928784,12.547387 68.938784,12.768387 68.951784,12.889387 C68.964784,13.037387 69.032784,13.222387 69.152784,13.443387 C69.273784,13.665387 69.404784,13.887387 69.545784,14.108387 C69.687784,14.330387 69.815784,14.521387 69.929784,14.682387 C70.042784,14.843387 70.093784,14.931387 70.079784,14.944387 C69.811784,15.038387 69.556784,15.042387 69.314784,14.954387 C69.071784,14.867387 68.860784,14.726387 68.679784,14.531387 C68.498784,14.337387 68.350784,14.115387 68.236784,13.866387 C68.122784,13.618387 68.051784,13.373387 68.024784,13.131387 C68.011784,13.010387 67.990784,12.785387 67.964784,12.456387 C67.937784,12.127387 67.913784,11.781387 67.894784,11.418387 C67.873784,11.055387 67.853784,10.713387 67.833784,10.391387 C67.813784,10.068387 67.803784,9.84638704 67.803784,9.72638704 L67.339784,9.48438704 C67.259784,9.44338704 67.121784,9.47738704 66.926784,9.58538704 C66.731784,9.69338704 66.506784,9.84038704 66.251784,10.028387 C65.996784,10.216387 65.728784,10.431387 65.445784,10.673387 C65.163784,10.914387 64.898784,11.143387 64.649784,11.358387 C64.400784,11.573387 64.189784,11.761387 64.015784,11.922387 C63.840784,12.083387 63.732784,12.184387 63.692784,12.224387 C63.585784,12.332387 63.391784,12.523387 63.107784,12.798387 C62.825784,13.074387 62.526784,13.369387 62.211784,13.685387 C61.896784,14.001387 61.600784,14.299387 61.324784,14.582387 C61.049784,14.864387 60.858784,15.066387 60.750784,15.186387 C60.563784,15.227387 60.385784,15.243387 60.216784,15.236387 C60.048784,15.230387 59.917784,15.133387 59.823784,14.944387" id="Fill-567" fill="#272525"></path>
                <path d="M76.427784,7.48938704 C76.413784,7.47638704 76.313784,7.53338704 76.124784,7.66038704 C75.936784,7.78838704 75.704784,7.95638704 75.429784,8.16438704 C75.153784,8.37338704 74.858784,8.60138704 74.543784,8.84938704 C74.227784,9.09838704 73.939784,9.33038704 73.676784,9.54538704 C73.414784,9.75938704 73.195784,9.94438704 73.022784,10.099387 C72.847784,10.253387 72.773784,10.330387 72.800784,10.330387 C73.014784,10.371387 73.293784,10.340387 73.636784,10.239387 C73.978784,10.139387 74.334784,9.99538704 74.703784,9.80638704 C75.072784,9.61838704 75.426784,9.40738704 75.762784,9.17238704 C76.097784,8.93738704 76.362784,8.70538704 76.558784,8.47738704 C76.752784,8.24838704 76.853784,8.04738704 76.859784,7.87238704 C76.866784,7.69838704 76.722784,7.57038704 76.427784,7.48938704 Z M71.610784,15.186387 C71.208784,15.052387 70.901784,14.847387 70.694784,14.571387 C70.485784,14.297387 70.348784,13.990387 70.280784,13.655387 C70.214784,13.319387 70.203784,12.966387 70.251784,12.597387 C70.297784,12.228387 70.375784,11.875387 70.482784,11.539387 C70.885784,11.109387 71.339784,10.616387 71.843784,10.058387 C72.346784,9.50138704 72.880784,8.95338704 73.444784,8.41638704 C74.009784,7.87938704 74.596784,7.37938704 75.207784,6.91538704 C75.818784,6.45138704 76.440784,6.09938704 77.071784,5.85738704 C77.286784,5.76338704 77.457784,5.76638704 77.585784,5.86738704 C77.713784,5.96838704 77.803784,6.12638704 77.857784,6.34038704 C77.910784,6.55638704 77.935784,6.80438704 77.928784,7.08638704 C77.920784,7.36838704 77.898784,7.64438704 77.857784,7.91238704 C77.816784,8.18138704 77.763784,8.42338704 77.696784,8.63738704 C77.628784,8.85338704 77.562784,9.00038704 77.494784,9.08138704 C77.333784,9.26938704 77.021784,9.49138704 76.558784,9.74638704 C76.094784,10.001387 75.580784,10.280387 75.017784,10.582387 C74.451784,10.884387 73.888784,11.196387 73.323784,11.519387 C72.759784,11.841387 72.296784,12.161387 71.934784,12.476387 C71.570784,12.792387 71.356784,13.104387 71.288784,13.413387 C71.222784,13.722387 71.409784,14.004387 71.853784,14.259387 C72.310784,14.313387 72.863784,14.290387 73.515784,14.189387 C74.166784,14.088387 74.831784,13.954387 75.510784,13.786387 C76.188784,13.618387 76.843784,13.443387 77.474784,13.262387 C78.106784,13.081387 78.622784,12.936387 79.025784,12.829387 L79.268784,13.050387 C78.972784,13.440387 78.488784,13.796387 77.816784,14.118387 C77.145784,14.441387 76.419784,14.706387 75.641784,14.914387 C74.861784,15.123387 74.103784,15.256387 73.363784,15.317387 C72.625784,15.378387 72.040784,15.334387 71.610784,15.186387 L71.610784,15.186387 Z" id="Fill-568" fill="#272525"></path>
            </g>
        </g>
    </g>
</svg>